<svg width="212" height="62" viewBox="0 0 212 62" fill="none" xmlns="http://www.w3.org/2000/svg">
<rect width="212" height="62" rx="31" fill="#DF7F1B"/>
<path d="M49.4375 23H51.375V33.5937C51.375 34.6875 51.1172 35.6641 50.6016 36.5234C50.0911 37.3776 49.3698 38.0521 48.4375 38.5469C47.5052 39.0365 46.4115 39.2813 45.1563 39.2813C43.901 39.2813 42.8073 39.0365 41.875 38.5469C40.9427 38.0521 40.2188 37.3776 39.7031 36.5234C39.1927 35.6641 38.9375 34.6875 38.9375 33.5937V23H40.875V33.4375C40.875 34.2187 41.0469 34.9141 41.3906 35.5234C41.7344 36.1276 42.224 36.6042 42.8594 36.9531C43.5 37.2969 44.2656 37.4687 45.1563 37.4687C46.0469 37.4687 46.8125 37.2969 47.4531 36.9531C48.0938 36.6042 48.5833 36.1276 48.9219 35.5234C49.2656 34.9141 49.4375 34.2187 49.4375 33.4375V23ZM55.2441 39V23H60.6504C61.9056 23 62.9316 23.2266 63.7285 23.6797C64.5306 24.1276 65.1243 24.7344 65.5098 25.5C65.8952 26.2656 66.0879 27.1198 66.0879 28.0625C66.0879 29.0052 65.8952 29.862 65.5098 30.6328C65.1296 31.4036 64.541 32.0182 63.7441 32.4766C62.9473 32.9297 61.9264 33.1562 60.6816 33.1562H56.8066V31.4375H60.6191C61.4785 31.4375 62.1686 31.2891 62.6895 30.9922C63.2103 30.6953 63.5879 30.2943 63.8223 29.7891C64.0618 29.2786 64.1816 28.7031 64.1816 28.0625C64.1816 27.4219 64.0618 26.849 63.8223 26.3437C63.5879 25.8385 63.2077 25.4427 62.6816 25.1562C62.1556 24.8646 61.4577 24.7187 60.5879 24.7187H57.1816V39H55.2441ZM69.209 39V23H71.1465V37.2812H78.584V39H69.209ZM94.4609 31C94.4609 32.6875 94.1563 34.1458 93.5469 35.375C92.9375 36.6042 92.1016 37.5521 91.0391 38.2188C89.9766 38.8854 88.763 39.2187 87.3984 39.2187C86.0339 39.2187 84.8203 38.8854 83.7578 38.2188C82.6953 37.5521 81.8594 36.6042 81.25 35.375C80.6406 34.1458 80.3359 32.6875 80.3359 31C80.3359 29.3125 80.6406 27.8542 81.25 26.625C81.8594 25.3958 82.6953 24.4479 83.7578 23.7812C84.8203 23.1146 86.0339 22.7812 87.3984 22.7812C88.763 22.7812 89.9766 23.1146 91.0391 23.7812C92.1016 24.4479 92.9375 25.3958 93.5469 26.625C94.1563 27.8542 94.4609 29.3125 94.4609 31ZM92.5859 31C92.5859 29.6146 92.3542 28.4453 91.8906 27.4922C91.4323 26.5391 90.8099 25.8177 90.0234 25.3281C89.2422 24.8385 88.3672 24.5937 87.3984 24.5937C86.4297 24.5937 85.5521 24.8385 84.7656 25.3281C83.9844 25.8177 83.362 26.5391 82.8984 27.4922C82.4401 28.4453 82.2109 29.6146 82.2109 31C82.2109 32.3854 82.4401 33.5547 82.8984 34.5078C83.362 35.4609 83.9844 36.1823 84.7656 36.6719C85.5521 37.1615 86.4297 37.4062 87.3984 37.4062C88.3672 37.4062 89.2422 37.1615 90.0234 36.6719C90.8099 36.1823 91.4323 35.4609 91.8906 34.5078C92.3542 33.5547 92.5859 32.3854 92.5859 31ZM97.623 39H95.5918L101.467 23H103.467L109.342 39H107.311L102.529 25.5312H102.404L97.623 39ZM98.373 32.75H106.561V34.4687H98.373V32.75ZM116.771 39H111.834V23H116.99C118.542 23 119.87 23.3203 120.975 23.9609C122.079 24.5964 122.925 25.5104 123.514 26.7031C124.102 27.8906 124.396 29.3125 124.396 30.9687C124.396 32.6354 124.1 34.0703 123.506 35.2734C122.912 36.4714 122.048 37.3932 120.912 38.0391C119.777 38.6797 118.396 39 116.771 39ZM113.771 37.2812H116.646C117.969 37.2812 119.066 37.026 119.936 36.5156C120.805 36.0052 121.454 35.2786 121.881 34.3359C122.308 33.3932 122.521 32.2708 122.521 30.9687C122.521 29.6771 122.311 28.5651 121.889 27.6328C121.467 26.6953 120.837 25.9766 119.998 25.4766C119.16 24.9714 118.115 24.7187 116.865 24.7187H113.771V37.2812Z" fill="white"/>
<g clip-path="url(#clip0_0_1)">
<path d="M155.651 24.6765C155.651 25.4487 155.344 26.1893 154.798 26.7354C154.252 27.2815 153.511 27.5882 152.739 27.5882C151.967 27.5882 151.226 27.2815 150.68 26.7354C150.134 26.1893 149.827 25.4487 149.827 24.6765C149.827 23.9042 150.134 23.1636 150.68 22.6175C151.226 22.0715 151.967 21.7647 152.739 21.7647C153.511 21.7647 154.252 22.0715 154.798 22.6175C155.344 23.1636 155.651 23.9042 155.651 24.6765Z" fill="white"/>
<path d="M147.886 15.9412C146.857 15.9412 145.869 16.3502 145.141 17.0783C144.413 17.8064 144.004 18.7939 144.004 19.8235V39.2353C144.004 40.2649 144.413 41.2524 145.141 41.9805C145.869 42.7086 146.857 43.1176 147.886 43.1176H171.18C172.21 43.1176 173.198 42.7086 173.926 41.9805C174.654 41.2524 175.063 40.2649 175.063 39.2353V19.8235C175.063 18.7939 174.654 17.8064 173.926 17.0783C173.198 16.3502 172.21 15.9412 171.18 15.9412H147.886ZM171.18 17.8823C171.695 17.8823 172.189 18.0869 172.553 18.4509C172.917 18.8149 173.122 19.3087 173.122 19.8235V32.4412L165.79 28.6617C165.608 28.5705 165.402 28.5389 165.201 28.5713C165 28.6037 164.814 28.6985 164.67 28.8422L157.468 36.044L152.304 32.6042C152.118 32.4801 151.894 32.4243 151.671 32.4462C151.449 32.4681 151.24 32.5665 151.081 32.7246L145.945 37.2941V19.8235C145.945 19.3087 146.15 18.8149 146.514 18.4509C146.878 18.0869 147.371 17.8823 147.886 17.8823H171.18Z" fill="white"/>
</g>
<circle cx="173" cy="39" r="7" fill="white" stroke="#DF7F1B" stroke-width="2"/>
<path fill-rule="evenodd" clip-rule="evenodd" d="M172.434 35.1958C172.508 35.1338 172.596 35.0845 172.693 35.0509C172.791 35.0173 172.895 35 173 35C173.105 35 173.209 35.0173 173.307 35.0509C173.404 35.0845 173.492 35.1338 173.566 35.1958L176.765 37.8621C176.84 37.9241 176.899 37.9976 176.939 38.0786C176.979 38.1596 177 38.2464 177 38.334C177 38.4217 176.979 38.5085 176.939 38.5894C176.899 38.6704 176.84 38.744 176.765 38.806C176.691 38.8679 176.603 38.9171 176.506 38.9506C176.408 38.9842 176.304 39.0014 176.199 39.0014C176.094 39.0014 175.99 38.9842 175.893 38.9506C175.796 38.9171 175.707 38.8679 175.633 38.806L173.8 37.2769V42.3334C173.8 42.5102 173.716 42.6798 173.566 42.8048C173.416 42.9298 173.212 43 173 43C172.788 43 172.584 42.9298 172.434 42.8048C172.284 42.6798 172.2 42.5102 172.2 42.3334V37.2769L170.367 38.806C170.217 38.9311 170.013 39.0014 169.801 39.0014C169.588 39.0014 169.385 38.9311 169.235 38.806C169.084 38.6808 169 38.511 169 38.334C169 38.157 169.084 37.9873 169.235 37.8621L172.434 35.1958Z" fill="black"/>
<defs>
<clipPath id="clip0_0_1">
<rect width="31.0588" height="31.0588" fill="white" transform="translate(144 14)"/>
</clipPath>
</defs>
</svg>
