<svg width="212" height="62" viewBox="0 0 212 62" fill="none" xmlns="http://www.w3.org/2000/svg">
<rect width="212" height="62" rx="31" fill="#DF7F1B"/>
<path d="M54.4375 24H56.375V34.5937C56.375 35.6875 56.1172 36.6641 55.6016 37.5234C55.0911 38.3776 54.3698 39.0521 53.4375 39.5469C52.5052 40.0365 51.4115 40.2813 50.1563 40.2813C48.901 40.2813 47.8073 40.0365 46.875 39.5469C45.9427 39.0521 45.2188 38.3776 44.7031 37.5234C44.1927 36.6641 43.9375 35.6875 43.9375 34.5937V24H45.875V34.4375C45.875 35.2187 46.0469 35.9141 46.3906 36.5234C46.7344 37.1276 47.224 37.6042 47.8594 37.9531C48.5 38.2969 49.2656 38.4687 50.1563 38.4687C51.0469 38.4687 51.8125 38.2969 52.4531 37.9531C53.0938 37.6042 53.5833 37.1276 53.9219 36.5234C54.2656 35.9141 54.4375 35.2187 54.4375 34.4375V24ZM60.2441 40V24H65.6504C66.9056 24 67.9316 24.2266 68.7285 24.6797C69.5306 25.1276 70.1243 25.7344 70.5098 26.5C70.8952 27.2656 71.0879 28.1198 71.0879 29.0625C71.0879 30.0052 70.8952 30.862 70.5098 31.6328C70.1296 32.4036 69.541 33.0182 68.7441 33.4766C67.9473 33.9297 66.9264 34.1562 65.6816 34.1562H61.8066V32.4375H65.6191C66.4785 32.4375 67.1686 32.2891 67.6895 31.9922C68.2103 31.6953 68.5879 31.2943 68.8223 30.7891C69.0618 30.2786 69.1816 29.7031 69.1816 29.0625C69.1816 28.4219 69.0618 27.849 68.8223 27.3437C68.5879 26.8385 68.2077 26.4427 67.6816 26.1562C67.1556 25.8646 66.4577 25.7187 65.5879 25.7187H62.1816V40H60.2441ZM74.209 40V24H76.1465V38.2812H83.584V40H74.209ZM99.4609 32C99.4609 33.6875 99.1563 35.1458 98.5469 36.375C97.9375 37.6042 97.1016 38.5521 96.0391 39.2188C94.9766 39.8854 93.763 40.2187 92.3984 40.2187C91.0339 40.2187 89.8203 39.8854 88.7578 39.2188C87.6953 38.5521 86.8594 37.6042 86.25 36.375C85.6406 35.1458 85.3359 33.6875 85.3359 32C85.3359 30.3125 85.6406 28.8542 86.25 27.625C86.8594 26.3958 87.6953 25.4479 88.7578 24.7812C89.8203 24.1146 91.0339 23.7812 92.3984 23.7812C93.763 23.7812 94.9766 24.1146 96.0391 24.7812C97.1016 25.4479 97.9375 26.3958 98.5469 27.625C99.1563 28.8542 99.4609 30.3125 99.4609 32ZM97.5859 32C97.5859 30.6146 97.3542 29.4453 96.8906 28.4922C96.4323 27.5391 95.8099 26.8177 95.0234 26.3281C94.2422 25.8385 93.3672 25.5937 92.3984 25.5937C91.4297 25.5937 90.5521 25.8385 89.7656 26.3281C88.9844 26.8177 88.362 27.5391 87.8984 28.4922C87.4401 29.4453 87.2109 30.6146 87.2109 32C87.2109 33.3854 87.4401 34.5547 87.8984 35.5078C88.362 36.4609 88.9844 37.1823 89.7656 37.6719C90.5521 38.1615 91.4297 38.4062 92.3984 38.4062C93.3672 38.4062 94.2422 38.1615 95.0234 37.6719C95.8099 37.1823 96.4323 36.4609 96.8906 35.5078C97.3542 34.5547 97.5859 33.3854 97.5859 32ZM102.623 40H100.592L106.467 24H108.467L114.342 40H112.311L107.529 26.5312H107.404L102.623 40ZM103.373 33.75H111.561V35.4687H103.373V33.75ZM121.771 40H116.834V24H121.99C123.542 24 124.87 24.3203 125.975 24.9609C127.079 25.5964 127.925 26.5104 128.514 27.7031C129.102 28.8906 129.396 30.3125 129.396 31.9687C129.396 33.6354 129.1 35.0703 128.506 36.2734C127.912 37.4714 127.048 38.3932 125.912 39.0391C124.777 39.6797 123.396 40 121.771 40ZM118.771 38.2812H121.646C122.969 38.2812 124.066 38.026 124.936 37.5156C125.805 37.0052 126.454 36.2786 126.881 35.3359C127.308 34.3932 127.521 33.2708 127.521 31.9687C127.521 30.6771 127.311 29.5651 126.889 28.6328C126.467 27.6953 125.837 26.9766 124.998 26.4766C124.16 25.9714 123.115 25.7187 121.865 25.7187H118.771V38.2812Z" fill="white"/>
<g clip-path="url(#clip0_0_1)">
<path d="M161.592 20.6232H161.754C163.244 20.6286 170.793 20.683 172.828 21.2304C173.443 21.3974 174.004 21.723 174.454 22.1747C174.904 22.6263 175.228 23.1882 175.393 23.8041C175.576 24.4929 175.705 25.4045 175.792 26.3452L175.81 26.5337L175.85 27.005L175.864 27.1935C175.982 28.8501 175.996 30.4016 175.998 30.7405V30.8765C175.996 31.2281 175.98 32.8847 175.85 34.6102L175.835 34.8005L175.819 34.989C175.728 36.0258 175.594 37.0553 175.393 37.8129C175.228 38.4291 174.905 38.9912 174.455 39.4429C174.005 39.8947 173.444 40.2201 172.828 40.3867C170.726 40.9522 162.734 40.992 161.627 40.9939H161.369C160.809 40.9939 158.493 40.983 156.064 40.8996L155.756 40.8887L155.598 40.8815L155.289 40.8688L154.979 40.8561C152.967 40.7673 151.051 40.6241 150.168 40.3849C149.553 40.2185 148.992 39.8933 148.542 39.4419C148.092 38.9905 147.768 38.4287 147.604 37.8129C147.402 37.0571 147.268 36.0258 147.178 34.989L147.163 34.7987L147.149 34.6102C147.059 33.3821 147.01 32.1513 147 30.92V30.697C147.004 30.3074 147.018 28.9607 147.116 27.4744L147.129 27.2877L147.134 27.1935L147.149 27.005L147.189 26.5337L147.207 26.3452C147.294 25.4045 147.422 24.491 147.605 23.8041C147.77 23.1879 148.093 22.6258 148.543 22.1741C148.994 21.7224 149.554 21.3969 150.17 21.2304C151.053 20.9947 152.969 20.8497 154.98 20.7591L155.289 20.7464L155.6 20.7355L155.756 20.7301L156.066 20.7174C157.791 20.6619 159.517 20.6311 161.243 20.625H161.592V20.6232ZM158.6 26.4413V35.1739L166.135 30.8094L158.6 26.4413Z" fill="white"/>
</g>
<circle cx="174" cy="38" r="7" fill="white" stroke="#DF7F1B" stroke-width="2"/>
<path fill-rule="evenodd" clip-rule="evenodd" d="M173.434 34.1958C173.508 34.1338 173.596 34.0845 173.693 34.0509C173.791 34.0173 173.895 34 174 34C174.105 34 174.209 34.0173 174.307 34.0509C174.404 34.0845 174.492 34.1338 174.566 34.1958L177.765 36.8621C177.84 36.9241 177.899 36.9976 177.939 37.0786C177.979 37.1596 178 37.2464 178 37.334C178 37.4217 177.979 37.5085 177.939 37.5894C177.899 37.6704 177.84 37.744 177.765 37.806C177.691 37.8679 177.603 37.9171 177.506 37.9506C177.408 37.9842 177.304 38.0014 177.199 38.0014C177.094 38.0014 176.99 37.9842 176.893 37.9506C176.796 37.9171 176.707 37.8679 176.633 37.806L174.8 36.2769V41.3334C174.8 41.5102 174.716 41.6798 174.566 41.8048C174.416 41.9298 174.212 42 174 42C173.788 42 173.584 41.9298 173.434 41.8048C173.284 41.6798 173.2 41.5102 173.2 41.3334V36.2769L171.367 37.806C171.217 37.9311 171.013 38.0014 170.801 38.0014C170.588 38.0014 170.385 37.9311 170.235 37.806C170.084 37.6808 170 37.511 170 37.334C170 37.157 170.084 36.9873 170.235 36.8621L173.434 34.1958Z" fill="black"/>
<defs>
<clipPath id="clip0_0_1">
<rect width="29" height="29" fill="white" transform="translate(147 17)"/>
</clipPath>
</defs>
</svg>
