<svg width="265" height="62" viewBox="0 0 265 62" fill="none" xmlns="http://www.w3.org/2000/svg">
<rect width="265" height="62" rx="31" fill="#DF7F1B"/>
<path d="M34.5938 40H32.5625L38.4375 24H40.4375L46.3125 40H44.2812L39.5 26.5312H39.375L34.5938 40ZM35.3438 33.75H43.5313V35.4687H35.3438V33.75ZM46.0605 25.7187V24H58.0605V25.7187H53.0293V40H51.0918V25.7187H46.0605ZM60.1758 25.7187V24H72.1758V25.7187H67.1445V40H65.207V25.7187H60.1758ZM73.9531 40H71.9219L77.7969 24H79.7969L85.6719 40H83.6406L78.8594 26.5312H78.7344L73.9531 40ZM74.7031 33.75H82.8906V35.4687H74.7031V33.75ZM100.287 29H98.3496C98.235 28.4427 98.0345 27.9531 97.748 27.5312C97.4668 27.1094 97.123 26.7552 96.7168 26.4688C96.3158 26.1771 95.8704 25.9583 95.3809 25.8125C94.8913 25.6667 94.3809 25.5937 93.8496 25.5937C92.8809 25.5937 92.0033 25.8385 91.2168 26.3281C90.4355 26.8177 89.8132 27.5391 89.3496 28.4922C88.8913 29.4453 88.6621 30.6146 88.6621 32C88.6621 33.3854 88.8913 34.5547 89.3496 35.5078C89.8132 36.4609 90.4355 37.1823 91.2168 37.6719C92.0033 38.1615 92.8809 38.4062 93.8496 38.4062C94.3809 38.4062 94.8913 38.3333 95.3809 38.1875C95.8704 38.0417 96.3158 37.8255 96.7168 37.5391C97.123 37.2474 97.4668 36.8906 97.748 36.4687C98.0345 36.0417 98.235 35.5521 98.3496 35H100.287C100.141 35.8177 99.8757 36.5495 99.4902 37.1953C99.1048 37.8411 98.6257 38.3906 98.0527 38.8437C97.4798 39.2917 96.8366 39.6328 96.123 39.8672C95.4147 40.1016 94.6569 40.2187 93.8496 40.2187C92.485 40.2187 91.2715 39.8854 90.209 39.2188C89.1465 38.5521 88.3105 37.6042 87.7012 36.375C87.0918 35.1458 86.7871 33.6875 86.7871 32C86.7871 30.3125 87.0918 28.8542 87.7012 27.625C88.3105 26.3958 89.1465 25.4479 90.209 24.7812C91.2715 24.1146 92.485 23.7812 93.8496 23.7812C94.6569 23.7812 95.4147 23.8984 96.123 24.1328C96.8366 24.3672 97.4798 24.7109 98.0527 25.1641C98.6257 25.612 99.1048 26.1589 99.4902 26.8047C99.8757 27.4453 100.141 28.1771 100.287 29ZM103.418 40V24H105.355V31.125H113.887V24H115.824V40H113.887V32.8437H105.355V40H103.418ZM119.703 24H122.016L127.453 37.2812H127.641L133.078 24H135.391V40H133.578V27.8438H133.422L128.422 40H126.672L121.672 27.8438H121.516V40H119.703V24ZM139.275 40V24H148.932V25.7187H141.213V31.125H148.432V32.8437H141.213V38.2812H149.057V40H139.275ZM165.111 24V40H163.236L154.518 27.4375H154.361V40H152.424V24H154.299L163.049 36.5937H163.205V24H165.111ZM168.113 25.7187V24H180.113V25.7187H175.082V40H173.145V25.7187H168.113Z" fill="white"/>
<g clip-path="url(#clip0_106_16)">
<path d="M221.997 30.7914L211.267 41.3615C210.09 42.521 208.493 43.1724 206.829 43.1724C205.164 43.1724 203.567 42.521 202.39 41.3615C201.213 40.202 200.552 38.6293 200.552 36.9895C200.552 35.3496 201.213 33.777 202.39 32.6174L217.65 17.586C218.038 17.2033 218.5 16.8998 219.008 16.6928C219.515 16.4857 220.06 16.3792 220.609 16.3793C221.159 16.3795 221.703 16.4862 222.211 16.6935C222.718 16.9008 223.18 17.2045 223.568 17.5874C223.957 17.9703 224.265 18.4248 224.475 18.925C224.685 19.4252 224.793 19.9613 224.793 20.5026C224.793 21.044 224.685 21.58 224.474 22.0801C224.264 22.5802 223.955 23.0345 223.567 23.4172L208.296 38.4596C207.9 38.8337 207.37 39.0382 206.822 39.0313C206.273 39.0245 205.749 38.8055 205.362 38.4216C204.976 38.0378 204.758 37.5197 204.756 36.9791C204.753 36.4385 204.967 35.9187 205.35 35.5317L216.244 24.8008M208.308 38.4459L208.295 38.4596" stroke="white" stroke-width="2.7" stroke-linecap="round" stroke-linejoin="round"/>
<circle cx="224.793" cy="36.7936" r="9.2069" fill="white" stroke="#DF7F1B" stroke-width="2"/>
<path fill-rule="evenodd" clip-rule="evenodd" d="M224.071 31.94C224.165 31.8608 224.278 31.7979 224.402 31.7551C224.526 31.7122 224.659 31.6901 224.793 31.6901C224.927 31.6901 225.06 31.7122 225.184 31.7551C225.308 31.7979 225.421 31.8608 225.516 31.94L229.597 35.3418C229.692 35.4208 229.767 35.5147 229.819 35.618C229.87 35.7213 229.897 35.8321 229.897 35.9439C229.897 36.0557 229.87 36.1664 229.819 36.2697C229.767 36.3731 229.692 36.4669 229.597 36.546C229.502 36.6251 229.39 36.6878 229.266 36.7306C229.142 36.7734 229.009 36.7954 228.875 36.7954C228.741 36.7954 228.608 36.7734 228.484 36.7306C228.36 36.6878 228.247 36.6251 228.152 36.546L225.814 34.5951V41.0466C225.814 41.2721 225.706 41.4884 225.515 41.6479C225.323 41.8074 225.064 41.897 224.793 41.897C224.523 41.897 224.263 41.8074 224.072 41.6479C223.88 41.4884 223.773 41.2721 223.773 41.0466V34.5951L221.434 36.546C221.242 36.7057 220.982 36.7954 220.711 36.7954C220.44 36.7954 220.181 36.7057 219.989 36.546C219.797 36.3863 219.69 36.1697 219.69 35.9439C219.69 35.718 219.797 35.5015 219.989 35.3418L224.071 31.94Z" fill="black"/>
</g>
<defs>
<clipPath id="clip0_106_16">
<rect width="37" height="37" fill="white" transform="translate(198 10)"/>
</clipPath>
</defs>
</svg>
