<svg width="58" height="54" viewBox="0 0 58 54" fill="none" xmlns="http://www.w3.org/2000/svg">
<path d="M57.1897 8.64688L55.4449 4.13786C55.3755 3.95766 55.2714 3.79295 55.1385 3.65314C55.0056 3.51334 54.8466 3.40119 54.6705 3.32308C54.4945 3.24496 54.3049 3.20243 54.1124 3.19791C53.92 3.19339 53.7285 3.22696 53.549 3.29672L16.9131 17.5914C13.8998 18.6991 10.4148 21.7925 8.67006 24.1274C7.07511 26.2458 5.90408 28.6542 5.2217 31.2196C4.5073 34.0142 4.87366 38.4129 4.99273 38.3164C5.11406 39.2601 5.30852 40.1929 5.57433 41.1063C5.34388 41.0716 5.11127 41.0532 4.87824 41.0512C4.00046 41.0502 3.13874 41.2871 2.38407 41.7371C1.6294 42.1871 1.00981 42.8333 0.590848 43.6075C0.171881 44.3816 -0.0309362 45.255 0.00382246 46.1354C0.0385811 47.0157 0.309657 47.8702 0.788349 48.6087C1.26704 49.3472 1.93561 49.9422 2.72339 50.3308C3.51117 50.7194 4.3889 50.8872 5.26385 50.8164C6.1388 50.7457 6.97843 50.439 7.69407 49.9289C8.40972 49.4187 8.9748 48.724 9.32954 47.9181C11.8349 50.6242 15.074 52.5359 18.6481 53.418C22.2222 54.3 25.9752 54.1138 29.4452 52.8824C32.9152 51.651 35.9507 49.428 38.178 46.4872C40.4054 43.5464 41.7273 40.016 41.9812 36.3307C42.0982 34.3755 41.9112 32.4139 41.4271 30.5163C41.0328 28.9884 41.0722 27.3802 41.5408 25.8735C42.0093 24.3668 42.8884 23.0217 44.0786 21.9901L56.5577 11.2116C56.9139 10.9019 57.1662 10.4893 57.2801 10.0303C57.394 9.57128 57.3641 9.08817 57.1943 8.64688M4.87824 48.3778C4.39691 48.3787 3.92618 48.2362 3.52558 47.9684C3.12499 47.7005 2.81259 47.3194 2.62797 46.8732C2.44335 46.4271 2.39481 45.936 2.48849 45.4621C2.58217 44.9882 2.81387 44.5529 3.15423 44.2113C3.49458 43.8697 3.92826 43.6372 4.40039 43.5431C4.87252 43.4491 5.36186 43.4978 5.80638 43.6831C6.2509 43.8684 6.63062 44.182 6.89747 44.584C7.16432 44.9861 7.30629 45.4586 7.30539 45.9417C7.30418 46.5874 7.04805 47.2063 6.59314 47.6629C6.13823 48.1195 5.52158 48.3766 4.87824 48.3778Z" fill="#1C3F71"/>
<path d="M18.1591 14.9761C17.9381 14.9762 17.7214 14.9149 17.533 14.7989C17.3447 14.6828 17.192 14.5166 17.0921 14.3188L10.7725 1.89023C10.6279 1.60559 10.602 1.27498 10.7003 0.971127C10.7986 0.667277 11.0132 0.415081 11.2968 0.270017C11.5804 0.124952 11.9098 0.0988984 12.2125 0.197596C12.5152 0.296293 12.7665 0.511651 12.9111 0.796295L19.2262 13.234C19.2982 13.3749 19.3419 13.5287 19.3546 13.6866C19.3674 13.8444 19.349 14.0033 19.3005 14.154C19.252 14.3047 19.1743 14.4443 19.072 14.5649C18.9697 14.6855 18.8447 14.7846 18.7041 14.8565C18.5349 14.9413 18.3483 14.9854 18.1591 14.9852" fill="#1C3F71"/>
<path d="M14.3857 16.7549C14.1459 16.7545 13.9116 16.6825 13.7126 16.548L4.39334 10.2096C4.25463 10.1247 4.13454 10.0124 4.04038 9.8795C3.94621 9.74659 3.87995 9.59587 3.84556 9.43648C3.81117 9.2771 3.80936 9.11237 3.8403 8.95227C3.87125 8.79217 3.93429 8.64005 4.02556 8.50513C4.11683 8.37021 4.23447 8.25531 4.37132 8.16738C4.50816 8.07945 4.66137 8.02034 4.82166 7.99363C4.98195 7.96691 5.14595 7.97314 5.30376 8.01196C5.46157 8.05077 5.60986 8.12135 5.73968 8.21942L15.059 14.5532C15.2717 14.6977 15.4326 14.9069 15.5181 15.15C15.6035 15.3932 15.609 15.6574 15.5336 15.9039C15.4583 16.1504 15.3061 16.3661 15.0994 16.5193C14.8928 16.6725 14.6426 16.755 14.3857 16.7549Z" fill="#1C3F71"/>
<path d="M22.2576 13.5742C22.2027 13.5787 22.1476 13.5787 22.0927 13.5742C21.9362 13.5539 21.7852 13.5025 21.6486 13.4231C21.512 13.3437 21.3925 13.2378 21.2971 13.1117C21.2016 12.9855 21.1321 12.8415 21.0926 12.6882C21.0531 12.5348 21.0444 12.375 21.0669 12.2182L22.601 1.02611C22.6478 0.712431 22.8159 0.429922 23.069 0.239942C23.322 0.0499609 23.6395 -0.0321548 23.9525 0.0114282C24.2655 0.0550112 24.5488 0.220776 24.7407 0.472719C24.9327 0.724662 25.0178 1.04244 24.9778 1.35705L23.4528 12.5354C23.4131 12.823 23.2712 13.0864 23.0532 13.2773C22.8353 13.4682 22.556 13.5736 22.2667 13.5742" fill="#1C3F71"/>
<path d="M23.4803 20.841C23.2788 20.841 23.0819 20.841 22.8849 20.841C19.2041 20.9418 15.7087 22.4843 13.1463 25.1386C10.584 27.7928 9.15823 31.348 9.17396 35.0438C9.17438 35.5596 9.20192 36.0751 9.25641 36.5881C9.52946 39.3525 10.596 41.9779 12.3268 44.1457C14.0575 46.3135 16.3779 47.9305 19.0064 48.8005C21.6349 49.6704 24.4585 49.7559 27.1344 49.0466C29.8104 48.3373 32.2238 46.8636 34.0815 44.8045C35.9393 42.7454 37.1617 40.1893 37.6003 37.4465C38.0389 34.7036 37.6749 31.892 36.5524 29.3528C35.4299 26.8136 33.5972 24.6559 31.2768 23.1418C28.9564 21.6276 26.248 20.8219 23.4803 20.8226" fill="white"/>
<path d="M35.9823 35.2092C35.9795 32.7714 35.2805 30.3855 33.9681 28.3343C32.6556 26.283 30.7848 24.6524 28.5773 23.6356L28.5315 23.6126L28.2384 23.4839C27.5652 23.2072 26.8697 22.9889 26.1594 22.8312C24.9479 24.6713 23.9419 26.6397 23.1598 28.7008C21.273 34.5152 21.9004 41.6579 25.5045 47.7159C26.4719 47.557 27.4173 47.2839 28.3209 46.9024C28.8465 46.6738 29.3559 46.4097 29.8458 46.1118C29.7405 45.9739 29.6352 45.8222 29.5253 45.6521C29.3604 45.4315 29.1864 45.1925 29.0078 44.8983C27.7917 43.1739 27.0064 41.1813 26.718 39.0885C26.6338 38.6541 26.5742 38.2152 26.5394 37.774H26.6265H30.4366L30.5373 43.7493L30.5831 45.5878C32.2627 44.438 33.633 42.8892 34.5719 41.0792C35.5107 39.2692 35.9889 37.2543 35.964 35.2138M26.3059 32.7548C26.3975 30.8703 27.1439 28.8111 27.4462 28.9168C29.0124 29.4454 30.1939 32.1343 30.1939 32.7548H26.3059Z" fill="#1C3F71"/>
<path d="M18.2143 37.8016H20.907V32.6123H18.1593C19.2675 29.5281 22.5465 29.0639 22.5465 29.0639C22.9174 27.4184 24.4332 24.5595 25.6147 22.7301C24.8954 22.5991 24.1659 22.5329 23.4349 22.5325C20.0851 22.5325 16.8726 23.8681 14.504 26.2454C12.1354 28.6228 10.8047 31.8471 10.8047 35.2092C10.8047 38.5713 12.1354 41.7957 14.504 44.173C16.8726 46.5504 20.0851 47.886 23.4349 47.886C23.9277 47.8848 24.42 47.8556 24.9095 47.7986C23.8333 45.9877 22.6197 43.1241 22.3495 41.4005C21.3973 41.2333 20.5079 40.8105 19.7758 40.1768C19.0436 39.5432 18.4961 38.7224 18.1914 37.8016" fill="#1C3F71"/>
<path d="M36.5865 35.2092C36.5886 31.8637 35.328 28.6415 33.0585 26.1912C30.789 23.7408 27.679 22.2443 24.3544 22.0026C21.0299 21.761 17.7375 22.7922 15.1399 24.8888C12.5423 26.9853 10.8324 29.9916 10.3542 33.3025C9.87599 36.6135 10.6651 39.9833 12.5625 42.7339C14.46 45.4845 17.3251 47.4116 20.5812 48.1274C23.8373 48.8433 27.2427 48.2946 30.112 46.592C32.9813 44.8894 35.1016 42.1591 36.0461 38.9507C36.4039 37.736 36.5859 36.4759 36.5865 35.2092ZM23.4525 47.886C20.1028 47.886 16.8902 46.5504 14.5216 44.173C12.153 41.7957 10.8223 38.5713 10.8223 35.2092C10.8223 31.8471 12.153 28.6228 14.5216 26.2454C16.8902 23.8681 20.1028 22.5325 23.4525 22.5325C24.1835 22.5329 24.9131 22.5991 25.6323 22.7301C24.4508 24.5687 22.9351 27.4184 22.5641 29.0639C22.5641 29.0639 19.2852 29.5235 18.1769 32.6123H20.9246V37.8016H18.2319C18.5375 38.7227 19.0858 39.5437 19.8187 40.1773C20.5516 40.811 21.4417 41.2336 22.3946 41.4005C22.6831 43.1241 23.8784 45.9969 24.95 47.7986C24.4605 47.8556 23.9682 47.8848 23.4754 47.886M30.6194 45.6384V45.5832L30.5736 43.7447L30.4179 37.7694H26.5757C26.6104 38.2106 26.6701 38.6495 26.7543 39.084C27.1687 41.1414 27.944 43.1086 29.044 44.8937C29.2226 45.1741 29.3967 45.4269 29.5615 45.6476C29.7264 45.8682 29.8088 45.9509 29.9233 46.0796C29.42 46.3816 28.8967 46.6488 28.3571 46.8794C27.4535 47.261 26.5082 47.534 25.5408 47.6929C21.9367 41.6349 21.3093 34.4922 23.196 28.6778C23.9782 26.6167 24.9841 24.6483 26.1956 22.8083C26.9059 22.9659 27.6015 23.1842 28.2747 23.4609L28.5678 23.5896L28.6136 23.6126C30.6571 24.5327 32.4204 25.9814 33.7228 27.8102C35.0252 29.639 35.8201 31.7824 36.026 34.0209C36.2319 36.2593 35.8416 38.5125 34.8948 40.5498C33.948 42.5871 32.4788 44.3352 30.6377 45.6154" fill="white"/>
</svg>
