<svg width="156" height="55" viewBox="0 0 156 55" fill="none" xmlns="http://www.w3.org/2000/svg">
<g clip-path="url(#clip0_70_1542)">
<mask id="mask0_70_1542" style="mask-type:luminance" maskUnits="userSpaceOnUse" x="0" y="0" width="156" height="55">
<path d="M156 0H0V55H156V0Z" fill="white"/>
</mask>
<g mask="url(#mask0_70_1542)">
<path d="M48.2588 48.0227H52.2979V49.2362H49.5685V50.3485H52.1468V51.5619H49.5685V52.7754H52.449V53.9888H48.2588V48.0227Z" fill="white"/>
<path d="M53.6304 48.0227H54.9447V52.7754H57.3673V53.9888H53.6304V48.0227Z" fill="white"/>
<path d="M58.2236 48.0227H59.5333V52.7754H61.9605V53.9888H58.2236V48.0227Z" fill="white"/>
<path d="M64.0578 48.0227H62.748V53.9888H64.0578V48.0227Z" fill="white"/>
<path d="M68.2711 49.4796C68.1584 49.3414 68.0092 49.2379 67.8406 49.1808C67.6747 49.1197 67.4998 49.0871 67.3232 49.0843C67.2246 49.0839 67.1262 49.0947 67.0301 49.1165C66.9313 49.1392 66.8358 49.1747 66.7461 49.2222C66.6583 49.2656 66.5827 49.3304 66.5263 49.4106C66.4693 49.4961 66.4405 49.5974 66.4439 49.7002C66.4391 49.7801 66.4551 49.8599 66.4904 49.9316C66.5258 50.0034 66.5792 50.0646 66.6453 50.1093C66.8002 50.2164 66.97 50.3 67.1491 50.3575L67.8086 50.5597C68.0409 50.6223 68.263 50.7183 68.468 50.8447C68.6736 50.9683 68.8476 51.1383 68.9763 51.3411C69.1218 51.5949 69.1917 51.8852 69.1778 52.1776C69.1858 52.4762 69.123 52.7724 68.9946 53.0418C68.878 53.2831 68.7071 53.4939 68.4955 53.6577C68.2776 53.8263 68.0286 53.9497 67.7628 54.0208C67.4781 54.1009 67.1837 54.1411 66.8881 54.1403C66.5217 54.144 66.1575 54.0833 65.8119 53.961C65.4716 53.8346 65.1602 53.6408 64.896 53.3911L65.8119 52.3615C65.9451 52.5402 66.1196 52.6837 66.3202 52.7798C66.5173 52.8756 66.7332 52.9258 66.9522 52.9269C67.0619 52.9264 67.171 52.9125 67.2773 52.8855C67.3803 52.8649 67.4793 52.8276 67.5704 52.7752C67.6539 52.7271 67.7259 52.6612 67.7811 52.5821C67.8329 52.4979 67.8599 52.4007 67.8589 52.3017C67.8621 52.2196 67.845 52.138 67.809 52.0642C67.773 51.9904 67.7194 51.9268 67.6529 51.8789C67.4968 51.7637 67.3238 51.6737 67.14 51.6123L66.4667 51.3917C66.2311 51.322 66.005 51.2231 65.7936 51.0975C65.5876 50.9751 65.411 50.8088 65.2761 50.6103C65.1283 50.3693 65.058 50.0884 65.0746 49.8059C65.0674 49.5143 65.1319 49.2254 65.2624 48.9648C65.3845 48.7283 65.5564 48.5213 65.7661 48.3581C65.9831 48.1924 66.2282 48.0678 66.4897 47.9904C66.7652 47.9115 67.0503 47.8713 67.3369 47.8709C67.6673 47.8688 67.9961 47.9169 68.3123 48.0134C68.6246 48.1029 68.9137 48.2598 69.1595 48.473L68.2711 49.4796Z" fill="white"/>
<path d="M77.1962 52.5821L78.5197 53.9886H76.9031L76.404 53.4232C76.1829 53.6614 75.9125 53.8481 75.6118 53.9702C75.3075 54.0859 74.9845 54.1435 74.6592 54.1403C74.3958 54.1412 74.1336 54.104 73.8807 54.03C73.6359 53.9615 73.406 53.8477 73.2029 53.6944C72.994 53.5406 72.8256 53.338 72.7123 53.1041C72.599 52.8703 72.5442 52.6122 72.5526 52.3523C72.5513 52.1671 72.5839 51.9833 72.6488 51.8099C72.7133 51.643 72.8046 51.4877 72.919 51.3503C73.0336 51.2092 73.1678 51.0854 73.3174 50.9826C73.4717 50.8801 73.6377 50.7968 73.812 50.7344L73.5464 50.431C73.4665 50.337 73.3959 50.2354 73.3357 50.1277C73.2793 50.021 73.2348 49.9085 73.2029 49.7921C73.1706 49.6629 73.1552 49.53 73.1572 49.3968C73.1496 49.156 73.2031 48.9171 73.3128 48.7028C73.4151 48.5197 73.5576 48.3625 73.7296 48.2432C73.9085 48.1146 74.1107 48.0225 74.3249 47.972C74.5497 47.9168 74.7804 47.889 75.0118 47.8892C75.2331 47.8874 75.4536 47.9168 75.6667 47.9766C75.8654 48.0311 76.0519 48.1231 76.2162 48.2477C76.3778 48.3694 76.5094 48.5266 76.6009 48.7074C76.6991 48.9106 76.7477 49.1343 76.7429 49.3601C76.7439 49.5299 76.7128 49.6983 76.6513 49.8565C76.5947 50.0092 76.5143 50.1519 76.4132 50.2793C76.3137 50.4126 76.1966 50.5316 76.0651 50.6333C75.934 50.7388 75.7929 50.8312 75.6438 50.909L76.404 51.7272L76.9856 50.9366H78.4464L77.1962 52.5821ZM74.5905 51.4422L74.3432 51.5985C74.2667 51.6504 74.1947 51.7089 74.128 51.7732C74.064 51.839 74.0113 51.9151 73.9723 51.9984C73.9302 52.0906 73.9099 52.1912 73.9127 52.2925C73.9106 52.3978 73.9342 52.5019 73.9814 52.5959C74.022 52.6844 74.0814 52.7628 74.1555 52.8257C74.2324 52.8884 74.3191 52.938 74.4119 52.9728C74.507 53.0093 74.6078 53.028 74.7096 53.028C74.8874 53.0313 75.0629 52.9869 75.2179 52.8993C75.3694 52.8088 75.512 52.7041 75.6438 52.5867L74.5905 51.4422ZM74.9935 48.882C74.8432 48.8778 74.6972 48.9322 74.586 49.0337C74.5295 49.0843 74.485 49.1468 74.4557 49.2168C74.4264 49.2867 74.413 49.3624 74.4165 49.4382C74.4174 49.5116 74.4346 49.5838 74.4669 49.6496C74.4992 49.7221 74.5408 49.7901 74.5905 49.8519C74.6363 49.9182 74.6884 49.9797 74.7462 50.0357L74.9111 50.1874L75.1309 50.0495C75.2076 49.996 75.2795 49.936 75.3461 49.8703C75.4127 49.8086 75.4698 49.7373 75.5155 49.6588C75.5599 49.587 75.5837 49.5043 75.5842 49.4198C75.5886 49.3441 75.5751 49.2685 75.5448 49.199C75.5146 49.1295 75.4685 49.0682 75.4102 49.0199C75.2918 48.9262 75.1443 48.8774 74.9935 48.882Z" fill="white"/>
<path d="M83.7862 48.0227H84.8669L87.4544 53.998H85.9752L85.4623 52.734H83.1725L82.6779 53.998H81.2354L83.7862 48.0227ZM84.2899 49.7556L83.5664 51.5941H85.018L84.2899 49.7556Z" fill="white"/>
<path d="M91.0723 49.4797C90.9535 49.3357 90.7938 49.2314 90.6144 49.1809C90.4502 49.1195 90.2767 49.0868 90.1015 49.0844C90.0029 49.084 89.9046 49.0948 89.8084 49.1166C89.7083 49.1401 89.6115 49.1756 89.5199 49.2223C89.4343 49.2671 89.3605 49.3317 89.3047 49.4107C89.2439 49.4946 89.2132 49.5967 89.2176 49.7003C89.2128 49.7802 89.2289 49.86 89.2642 49.9317C89.2996 50.0035 89.353 50.0647 89.4191 50.1094C89.5762 50.2156 89.7473 50.2992 89.9275 50.3576L90.5869 50.5598C90.8186 50.6241 91.0405 50.72 91.2464 50.8448C91.4519 50.9684 91.6259 51.1384 91.7547 51.3412C91.9002 51.595 91.9701 51.8853 91.9561 52.1777C91.9618 52.476 91.8991 52.7717 91.7729 53.0418C91.6548 53.2822 91.4842 53.4927 91.2738 53.6578C91.056 53.8264 90.8069 53.9498 90.5411 54.0209C90.2549 54.101 89.959 54.1412 89.6618 54.1404C89.2969 54.1437 88.9343 54.0831 88.5902 53.9611C88.25 53.8347 87.9385 53.6408 87.6743 53.3912L88.5902 52.3616C88.7235 52.5402 88.8979 52.6838 89.0985 52.7798C89.2954 52.8761 89.5115 52.9264 89.7305 52.9269C89.8387 52.9268 89.9464 52.9129 90.0511 52.8856C90.1555 52.8649 90.256 52.8276 90.3487 52.7752C90.4318 52.7284 90.5025 52.6622 90.5548 52.5822C90.61 52.4993 90.6387 52.4015 90.6372 52.3018C90.6404 52.2197 90.6233 52.1381 90.5873 52.0643C90.5514 51.9905 90.4977 51.9268 90.4312 51.879C90.2735 51.7638 90.0989 51.6739 89.9137 51.6124C89.7076 51.5388 89.4833 51.4653 89.2451 51.3918C89.0095 51.322 88.7833 51.2232 88.5719 51.0976C88.3659 50.9752 88.1893 50.8088 88.0544 50.6104C87.905 50.3699 87.8331 50.089 87.8484 49.806C87.8425 49.514 87.9086 49.2251 88.0407 48.9649C88.1629 48.7284 88.3347 48.5214 88.5444 48.3582C88.7608 48.1916 89.0062 48.0669 89.268 47.9904C89.5435 47.9116 89.8286 47.8714 90.1152 47.8709C90.4456 47.8693 90.7744 47.9173 91.0906 48.0134C91.4023 48.1046 91.6911 48.2613 91.9379 48.4731L91.0723 49.4797Z" fill="white"/>
<path d="M95.9768 49.4798C95.8561 49.3379 95.697 49.2341 95.5188 49.181C95.353 49.1196 95.178 49.087 95.0013 49.0845C94.9028 49.0843 94.8045 49.0951 94.7082 49.1167C94.6094 49.1394 94.514 49.1749 94.4243 49.2224C94.3365 49.2658 94.261 49.3306 94.2045 49.4108C94.1475 49.4963 94.1187 49.5976 94.1221 49.7004C94.1172 49.7803 94.1333 49.8601 94.1687 49.9318C94.204 50.0036 94.2574 50.0648 94.3236 50.1095C94.4796 50.2175 94.6509 50.3012 94.8319 50.3577L95.4913 50.5599C95.7231 50.6242 95.945 50.7201 96.1508 50.8449C96.3544 50.971 96.5279 51.1405 96.6591 51.3413C96.8028 51.5956 96.8711 51.8859 96.856 52.1778C96.8641 52.4764 96.8013 52.7726 96.6729 53.042C96.5562 53.2833 96.3853 53.4941 96.1737 53.6579C95.957 53.8256 95.7096 53.949 95.4455 54.021C95.1592 54.1008 94.8634 54.141 94.5663 54.1405C94.1999 54.1438 93.8357 54.0832 93.4901 53.9612C93.1491 53.8363 92.8373 53.6423 92.5742 53.3913L93.4901 52.3617C93.6253 52.5384 93.7993 52.6815 93.9985 52.78C94.1957 52.8752 94.4115 52.9254 94.6304 52.9271C94.74 52.9269 94.8493 52.913 94.9556 52.8857C95.0585 52.8651 95.1575 52.8278 95.2486 52.7754C95.3331 52.7287 95.4053 52.6625 95.4593 52.5823C95.5144 52.4994 95.5432 52.4016 95.5417 52.3019C95.5449 52.2198 95.5278 52.1382 95.4918 52.0644C95.4559 51.9906 95.4022 51.9269 95.3356 51.8791C95.1779 51.7639 95.0033 51.674 94.8181 51.6125C94.6105 51.5389 94.3862 51.4654 94.145 51.3919C93.9237 51.3186 93.7117 51.2199 93.513 51.0977C93.3061 50.9765 93.1292 50.81 92.9955 50.6105C92.8461 50.37 92.7742 50.0891 92.7895 49.8061C92.7848 49.5148 92.8491 49.2265 92.9772 48.965C93.1009 48.7295 93.2725 48.5228 93.481 48.3583C93.6998 48.193 93.9464 48.0684 94.2091 47.9906C94.4846 47.9113 94.7697 47.8711 95.0563 47.8711C95.3867 47.8697 95.7154 47.9177 96.0317 48.0135C96.3434 48.1047 96.6322 48.2614 96.8789 48.4732L95.9768 49.4798Z" fill="white"/>
<path d="M97.6347 51.0058C97.6279 50.5607 97.7089 50.1186 97.8728 49.705C98.0227 49.3314 98.2506 48.9944 98.5414 48.7168C98.833 48.4393 99.1793 48.2264 99.5581 48.0917C100.388 47.7976 101.293 47.7976 102.122 48.0917C102.501 48.2264 102.847 48.4393 103.139 48.7168C103.43 48.9944 103.658 49.3314 103.808 49.705C103.972 50.1186 104.053 50.5607 104.046 51.0058C104.053 51.4494 103.972 51.89 103.808 52.302C103.658 52.6756 103.43 53.0126 103.139 53.2902C102.848 53.5691 102.501 53.7836 102.122 53.9199C101.293 54.2139 100.388 54.2139 99.5581 53.9199C99.1791 53.7836 98.8327 53.5691 98.5414 53.2902C98.2506 53.0126 98.0227 52.6756 97.8728 52.302C97.7085 51.89 97.6276 51.4494 97.6347 51.0058ZM99.0085 51.0058C99.0049 51.2688 99.0483 51.5304 99.1368 51.778C99.2193 52.0025 99.3471 52.2075 99.5123 52.3801C99.6753 52.5548 99.8736 52.6927 100.094 52.7846C100.583 52.9745 101.125 52.9745 101.614 52.7846C101.834 52.6927 102.033 52.5548 102.196 52.3801C102.361 52.2075 102.489 52.0025 102.571 51.778C102.742 51.2791 102.742 50.7371 102.571 50.2382C102.491 50.0119 102.364 49.805 102.199 49.6308C102.035 49.4566 101.835 49.3191 101.614 49.227C101.125 49.037 100.583 49.037 100.094 49.227C99.8728 49.3191 99.6734 49.4566 99.5085 49.6308C99.3437 49.805 99.2171 50.0119 99.1368 50.2382C99.0487 50.4843 99.0052 50.7443 99.0085 51.0058Z" fill="white"/>
<path d="M108.895 49.5716C108.771 49.4181 108.615 49.2941 108.438 49.2085C108.226 49.1206 108 49.0754 107.771 49.0754C107.543 49.0754 107.316 49.1206 107.105 49.2085C106.897 49.3022 106.712 49.4384 106.56 49.6084C106.401 49.7866 106.278 49.9942 106.198 50.2197C106.022 50.7177 106.022 51.2615 106.198 51.7595C106.28 51.9813 106.401 52.1868 106.555 52.3662C106.696 52.538 106.872 52.6777 107.071 52.776C107.27 52.8742 107.488 52.9288 107.709 52.9361C107.952 52.9434 108.192 52.888 108.407 52.7754C108.622 52.6627 108.804 52.4965 108.937 52.2927L110.027 53.1108C109.785 53.4559 109.454 53.7278 109.069 53.8968C108.694 54.0617 108.289 54.1477 107.879 54.1496C107.44 54.154 107.004 54.0792 106.592 53.929C106.215 53.7903 105.87 53.5778 105.575 53.3038C105.287 53.0235 105.061 52.6852 104.911 52.311C104.745 51.8995 104.663 51.4588 104.669 51.0149C104.663 50.5695 104.746 50.1274 104.911 49.7141C105.06 49.3407 105.286 49.0037 105.575 48.7259C105.868 48.4503 106.214 48.2376 106.592 48.1008C107.004 47.9505 107.44 47.8758 107.879 47.8801C108.054 47.8803 108.229 47.8957 108.401 47.9261C108.584 47.9568 108.764 48.0061 108.937 48.0732C109.117 48.1415 109.288 48.2326 109.445 48.3444C109.618 48.4556 109.773 48.5937 109.903 48.7535L108.895 49.5716Z" fill="white"/>
<path d="M112.138 48.0227H110.828V53.9888H112.138V48.0227Z" fill="white"/>
<path d="M115.366 48.0227H116.452L119.034 53.998H117.555L117.047 52.734H114.734L114.24 53.998H112.797L115.366 48.0227ZM115.87 49.7556L115.146 51.5941H116.603L115.87 49.7556Z" fill="white"/>
<path d="M120.092 49.1856H118.398V48.0227H123.101V49.1856H121.407V53.9888H120.092V49.1856Z" fill="white"/>
<path d="M123.898 48.0227H127.937V49.2362H125.208V50.3485H127.786V51.5619H125.208V52.7754H128.088V53.9888H123.898V48.0227Z" fill="white"/>
<path d="M132.155 49.4797C132.043 49.3402 131.894 49.2363 131.724 49.1809C131.558 49.1195 131.383 49.0868 131.207 49.0844C131.108 49.084 131.01 49.0948 130.914 49.1166C130.815 49.1393 130.719 49.1748 130.63 49.2223C130.542 49.2657 130.466 49.3305 130.41 49.4107C130.353 49.4962 130.324 49.5975 130.327 49.7003C130.323 49.7802 130.339 49.86 130.374 49.9317C130.409 50.0034 130.463 50.0647 130.529 50.1094C130.685 50.2174 130.856 50.3011 131.037 50.3576L131.692 50.5598C131.924 50.6224 132.147 50.7184 132.352 50.8448C132.557 50.9684 132.731 51.1384 132.86 51.3412C133.007 51.5942 133.077 51.8851 133.061 52.1777C133.069 52.4763 133.007 52.7724 132.878 53.0418C132.762 53.2832 132.591 53.494 132.379 53.6578C132.161 53.8264 131.912 53.9498 131.646 54.0209C131.362 54.101 131.067 54.1412 130.772 54.1404C130.405 54.1437 130.041 54.083 129.695 53.9611C129.354 53.8362 129.043 53.6422 128.78 53.3912L129.695 52.3616C129.829 52.5402 130.003 52.6838 130.204 52.7798C130.401 52.8751 130.617 52.9253 130.836 52.9269C130.945 52.9268 131.055 52.9129 131.161 52.8856C131.264 52.865 131.363 52.8277 131.454 52.7752C131.538 52.7272 131.609 52.6613 131.665 52.5822C131.717 52.498 131.743 52.4008 131.743 52.3018C131.746 52.2197 131.729 52.1381 131.693 52.0643C131.657 51.9905 131.603 51.9268 131.536 51.879C131.38 51.7638 131.207 51.6738 131.024 51.6124C130.813 51.5388 130.593 51.4653 130.35 51.3918C130.12 51.3202 129.898 51.2214 129.691 51.0976C129.486 50.975 129.311 50.8086 129.178 50.6104C129.029 50.3699 128.957 50.089 128.972 49.806C128.964 49.5269 129.023 49.2499 129.143 48.9981C129.263 48.7463 129.442 48.5269 129.663 48.3582C129.882 48.1929 130.129 48.0683 130.392 47.9904C130.667 47.9109 130.952 47.8707 131.239 47.8709C131.568 47.8693 131.895 47.9173 132.21 48.0134C132.523 48.103 132.814 48.2598 133.061 48.4731L132.155 49.4797Z" fill="white"/>
<path d="M134.284 52.6235H135.489L134.733 54.9998H133.661L134.284 52.6235Z" fill="white"/>
<path d="M140.553 48.0227H139.244V53.9888H140.553V48.0227Z" fill="white"/>
<path d="M141.827 48.0227H143.608L146.136 52.1686H146.15V48.0227H147.459V53.9888H145.747L143.155 49.7418H143.136V53.9888H141.827V48.0227Z" fill="white"/>
<path d="M152.639 49.5716C152.514 49.419 152.358 49.2952 152.181 49.2085C151.975 49.1225 151.753 49.0803 151.53 49.0844C151.298 49.081 151.068 49.1277 150.856 49.2213C150.643 49.3148 150.453 49.4531 150.299 49.6267C150.139 49.8049 150.017 50.0126 149.937 50.2381C149.766 50.737 149.766 51.2789 149.937 51.7778C150.019 51.9997 150.14 52.2051 150.294 52.3845C150.443 52.5522 150.623 52.6881 150.825 52.7844C151.033 52.8782 151.257 52.9268 151.485 52.9269C151.733 52.9328 151.979 52.8742 152.199 52.7569C152.405 52.6486 152.582 52.4907 152.712 52.2972L153.802 53.1154C153.561 53.4605 153.23 53.7324 152.845 53.9014C152.469 54.0663 152.064 54.1523 151.654 54.1541C151.215 54.1585 150.78 54.0838 150.367 53.9335C149.991 53.7959 149.647 53.5832 149.355 53.3084C149.065 53.0283 148.837 52.69 148.687 52.3156C148.522 51.9037 148.441 51.4631 148.448 51.0194C148.442 50.5743 148.523 50.1323 148.687 49.7187C148.836 49.345 149.064 49.008 149.355 48.7305C149.646 48.4541 149.99 48.2412 150.367 48.1053C150.78 47.9551 151.215 47.8803 151.654 47.8847C151.831 47.8846 152.007 47.9 152.181 47.9307C152.364 47.9625 152.543 48.0117 152.717 48.0778C152.896 48.148 153.066 48.239 153.225 48.3489C153.397 48.4612 153.552 48.5992 153.683 48.758L152.639 49.5716Z" fill="white"/>
<path d="M154.452 53.2624C154.451 53.1582 154.471 53.055 154.512 52.959C154.549 52.8655 154.605 52.781 154.677 52.7108C154.748 52.6402 154.832 52.5841 154.924 52.5453C155.117 52.4657 155.335 52.4657 155.528 52.5453C155.621 52.5835 155.705 52.6397 155.776 52.7107C155.846 52.7817 155.902 52.8661 155.94 52.959C156.014 53.1545 156.014 53.3702 155.94 53.5657C155.902 53.6586 155.846 53.7431 155.776 53.8141C155.705 53.8851 155.621 53.9413 155.528 53.9794C155.335 54.0591 155.117 54.0591 154.924 53.9794C154.832 53.9407 154.748 53.8845 154.677 53.8139C154.605 53.7438 154.549 53.6592 154.512 53.5657C154.471 53.4698 154.451 53.3665 154.452 53.2624Z" fill="white"/>
<path d="M57.1838 8.67325L55.439 4.16423C55.3696 3.98403 55.2655 3.81931 55.1326 3.67951C54.9998 3.53971 54.8407 3.42755 54.6647 3.34944C54.4886 3.27133 54.299 3.2288 54.1065 3.22428C53.9141 3.21976 53.7226 3.25333 53.5431 3.32309L16.9073 17.6177C13.894 18.7254 10.409 21.8188 8.66421 24.1537C7.06925 26.2721 5.89822 28.6805 5.21584 31.2459C4.50144 34.0405 4.8678 38.4392 4.98687 38.3427C5.1082 39.2864 5.30266 40.2193 5.56847 41.1327C5.33802 41.098 5.10541 41.0795 4.87238 41.0775C3.9946 41.0765 3.13288 41.3135 2.37821 41.7634C1.62354 42.2134 1.00396 42.8596 0.584989 43.6338C0.166022 44.408 -0.0367955 45.2814 -0.00203693 46.1617C0.0327217 47.042 0.303797 47.8966 0.78249 48.6351C1.26118 49.3735 1.92975 49.9685 2.71753 50.3571C3.50531 50.7457 4.38305 50.9135 5.25799 50.8428C6.13294 50.772 6.97257 50.4654 7.68821 49.9552C8.40386 49.4451 8.96894 48.7503 9.32368 47.9445C11.8291 50.6506 15.0682 52.5623 18.6422 53.4443C22.2163 54.3263 25.9693 54.1402 29.4393 52.9087C32.9093 51.6773 35.9448 49.4543 38.1722 46.5135C40.3995 43.5727 41.7215 40.0423 41.9753 36.3571C42.0923 34.4018 41.9054 32.4402 41.4212 30.5427C41.027 29.0147 41.0663 27.4065 41.5349 25.8998C42.0034 24.3931 42.8825 23.048 44.0728 22.0164L56.5519 11.238C56.9081 10.9282 57.1603 10.5156 57.2742 10.0566C57.3882 9.59764 57.3582 9.11454 57.1884 8.67325M4.87238 48.4041C4.39105 48.405 3.92032 48.2625 3.51972 47.9947C3.11913 47.7269 2.80673 47.3457 2.62211 46.8996C2.43749 46.4534 2.38895 45.9623 2.48263 45.4884C2.57632 45.0146 2.80801 44.5793 3.14837 44.2376C3.48872 43.896 3.9224 43.6635 4.39453 43.5695C4.86666 43.4754 5.356 43.5241 5.80052 43.7094C6.24504 43.8947 6.62476 44.2083 6.89161 44.6104C7.15846 45.0124 7.30043 45.4849 7.29953 45.968C7.29832 46.6137 7.0422 47.2327 6.58728 47.6893C6.13237 48.1458 5.51572 48.4029 4.87238 48.4041Z" fill="white"/>
<path d="M18.1532 15.0024C17.9322 15.0026 17.7155 14.9412 17.5271 14.8252C17.3388 14.7092 17.1862 14.543 17.0862 14.3451L10.7666 1.9166C10.6221 1.63195 10.5961 1.30134 10.6944 0.997494C10.7928 0.693645 11.0073 0.441449 11.2909 0.296385C11.5745 0.15132 11.9039 0.125266 12.2066 0.223963C12.5094 0.32266 12.7606 0.538019 12.9052 0.822662L19.2203 13.2604C19.2923 13.4013 19.336 13.5551 19.3487 13.7129C19.3615 13.8708 19.3431 14.0296 19.2946 14.1804C19.2461 14.3311 19.1684 14.4707 19.0661 14.5913C18.9638 14.7118 18.8388 14.8109 18.6982 14.8829C18.529 14.9677 18.3424 15.0118 18.1532 15.0116" fill="white"/>
<path d="M14.3794 16.7812C14.1395 16.7808 13.9052 16.7088 13.7062 16.5744L4.38699 10.236C4.24829 10.151 4.12819 10.0387 4.03403 9.9058C3.93987 9.7729 3.8736 9.62218 3.83921 9.46279C3.80482 9.3034 3.80302 9.13868 3.83396 8.97858C3.8649 8.81848 3.92794 8.66636 4.01922 8.53144C4.11049 8.39652 4.22813 8.28161 4.36497 8.19369C4.50181 8.10576 4.65503 8.04665 4.81532 8.01993C4.9756 7.99322 5.1396 7.99945 5.29741 8.03827C5.45523 8.07708 5.60351 8.14766 5.73334 8.24573L15.0526 14.5795C15.2654 14.724 15.4263 14.9332 15.5118 15.1764C15.5972 15.4195 15.6027 15.6838 15.5273 15.9303C15.4519 16.1767 15.2997 16.3924 15.0931 16.5456C14.8865 16.6988 14.6363 16.7814 14.3794 16.7812Z" fill="white"/>
<path d="M22.2517 13.6005C22.1968 13.6051 22.1417 13.6051 22.0868 13.6005C21.9303 13.5802 21.7793 13.5289 21.6428 13.4495C21.5062 13.3701 21.3866 13.2642 21.2912 13.138C21.1957 13.0119 21.1262 12.8679 21.0867 12.7145C21.0472 12.5611 21.0385 12.4014 21.061 12.2446L22.5952 1.05248C22.6419 0.738798 22.8101 0.456289 23.0631 0.266308C23.3162 0.0763281 23.6336 -0.00578758 23.9466 0.0377954C24.2596 0.0813784 24.5429 0.247143 24.7349 0.499086C24.9268 0.751029 25.012 1.06881 24.9719 1.38342L23.4469 12.5618C23.4072 12.8493 23.2653 13.1128 23.0473 13.3037C22.8294 13.4945 22.5501 13.6 22.2609 13.6005" fill="white"/>
<path d="M23.4745 20.8674C23.273 20.8674 23.076 20.8674 22.8791 20.8674C19.1983 20.9683 15.7028 22.5108 13.1405 25.165C10.5782 27.8192 9.15238 31.3744 9.1681 35.0702C9.16853 35.5861 9.19606 36.1016 9.25056 36.6146C9.52361 39.3789 10.5902 42.0043 12.3209 44.1721C14.0516 46.3399 16.3721 47.9569 19.0006 48.8269C21.6291 49.6968 24.4526 49.7823 27.1286 49.073C29.8046 48.3637 32.2179 46.8901 34.0757 44.8309C35.9335 42.7718 37.1558 40.2157 37.5944 37.4729C38.033 34.7301 37.669 31.9184 36.5466 29.3792C35.4241 26.84 33.5914 24.6824 31.271 23.1682C28.9506 21.654 26.2422 20.8484 23.4745 20.8491" fill="#1C3F71"/>
<circle cx="28" cy="31" r="3" fill="white"/>
<path d="M47.6035 22.5266H61.4885V25.2707H50.5206V31.701H60.7283V34.445H50.5206V41.3671H62.0334V44.1111H47.6035V22.5266Z" fill="#DF7F1B"/>
<path d="M66.8927 21.0603H64.1587V44.111H66.8927V21.0603Z" fill="#DF7F1B"/>
<path d="M72.667 21.0603H69.9331V44.111H72.667V21.0603Z" fill="#DF7F1B"/>
<path d="M75.0622 24.4756C75.0558 24.0023 75.2137 23.5416 75.5085 23.1722C75.8034 22.8028 76.217 22.5478 76.6786 22.4508C77.1402 22.3538 77.621 22.4208 78.0387 22.6404C78.4565 22.8601 78.7851 23.2186 78.9685 23.6547C79.1519 24.0907 79.1786 24.5772 79.0439 25.0309C78.9093 25.4845 78.6218 25.877 78.2306 26.1413C77.8393 26.4056 77.3688 26.5251 76.8994 26.4795C76.43 26.4339 75.991 26.226 75.6575 25.8913C75.4674 25.7085 75.3166 25.4886 75.2142 25.2451C75.1118 25.0017 75.0601 24.7398 75.0622 24.4756ZM75.7033 29.6603H78.451V44.1112H75.7033V29.6603Z" fill="#DF7F1B"/>
<path d="M88.9335 33.2866C88.6015 32.8733 88.1944 32.527 87.7337 32.2662C87.1988 31.9759 86.5967 31.8332 85.9889 31.8526C85.4004 31.8374 84.8187 31.9802 84.3037 32.2662C84.0832 32.3784 83.8989 32.5512 83.7725 32.7644C83.646 32.9776 83.5825 33.2224 83.5892 33.4705C83.5819 33.6618 83.6144 33.8526 83.6845 34.0306C83.7547 34.2087 83.8611 34.3701 83.9968 34.5047C84.2801 34.7749 84.6088 34.9928 84.9677 35.1481C85.3544 35.3137 85.7584 35.4355 86.1721 35.5113L87.262 35.7273C87.8262 35.8604 88.3802 36.034 88.9197 36.2467C89.4075 36.4309 89.8599 36.6984 90.257 37.0372C90.6337 37.3644 90.9339 37.7708 91.1363 38.2277C91.363 38.7667 91.4723 39.3481 91.4568 39.9329C91.4771 40.6643 91.2981 41.3874 90.9393 42.0243C90.6062 42.5918 90.1489 43.0758 89.6021 43.44C89.0335 43.8175 88.4 44.0856 87.7337 44.2305C87.0419 44.3952 86.3335 44.4785 85.6225 44.4788C84.5497 44.501 83.4827 44.3136 82.481 43.9272C81.5009 43.5003 80.6621 42.802 80.063 41.914L82.1284 40.2087C82.581 40.6575 83.0799 41.0565 83.6167 41.3992C84.2231 41.7584 84.9188 41.9369 85.6225 41.914C85.9748 41.9148 86.3262 41.8794 86.6713 41.8083C87.0011 41.7462 87.3194 41.633 87.6146 41.4727C87.8759 41.3295 88.1038 41.1321 88.2832 40.8936C88.4539 40.659 88.544 40.3751 88.5397 40.0846C88.551 39.7118 88.4143 39.3497 88.1596 39.078C87.898 38.8115 87.5868 38.5991 87.2437 38.4529C86.8811 38.299 86.5056 38.1775 86.1217 38.0898C85.7233 37.9979 85.3752 37.9198 85.073 37.86C84.4822 37.7175 83.9281 37.5566 83.4015 37.3728C82.9011 37.2031 82.4299 36.9565 82.0047 36.642C81.5986 36.334 81.2667 35.9381 81.0339 35.4837C80.7722 34.9433 80.6464 34.3467 80.6675 33.7463C80.6457 33.0616 80.8036 32.3831 81.1255 31.779C81.4309 31.2304 81.8569 30.7588 82.3711 30.4001C82.9067 30.0251 83.5033 29.7467 84.1342 29.5774C85.7137 29.1324 87.3957 29.2278 88.9152 29.8485C89.8041 30.2146 90.5511 30.8596 91.0446 31.6871L88.9335 33.2866Z" fill="#DF7F1B"/>
<path d="M113.741 36.6514C113.732 35.6358 113.933 34.6295 114.331 33.6959C114.714 32.7957 115.266 31.978 115.957 31.2874C116.652 30.5893 117.477 30.0349 118.384 29.6557C120.311 28.8589 122.474 28.8589 124.402 29.6557C126.227 30.4187 127.682 31.8691 128.454 33.6959C128.856 34.6286 129.059 35.6353 129.05 36.6514C129.054 37.6511 128.86 38.6417 128.479 39.5656C128.099 40.4895 127.539 41.3285 126.833 42.0337C126.13 42.7207 125.306 43.2695 124.402 43.6516C122.473 44.442 120.313 44.442 118.384 43.6516C117.481 43.2704 116.657 42.7215 115.957 42.0337C115.249 41.3302 114.688 40.4916 114.307 39.5672C113.926 38.6429 113.734 37.6515 113.741 36.6514ZM116.653 36.6514C116.647 37.3413 116.76 38.0271 116.987 38.6784C117.191 39.266 117.512 39.8057 117.931 40.2641C118.348 40.7116 118.856 41.0656 119.419 41.3029C120.686 41.8113 122.099 41.8113 123.367 41.3029C123.931 41.0667 124.438 40.7126 124.855 40.2641C125.274 39.8057 125.595 39.266 125.798 38.6784C126.244 37.364 126.244 35.9387 125.798 34.6244C125.595 34.0367 125.274 33.497 124.855 33.0386C124.438 32.5915 123.93 32.2389 123.367 32.0044C122.099 31.496 120.686 31.496 119.419 32.0044C118.856 32.2401 118.349 32.5925 117.931 33.0386C117.512 33.497 117.191 34.0367 116.987 34.6244C116.761 35.2758 116.648 35.9614 116.653 36.6514Z" fill="white"/>
<path d="M141.259 33.2683C140.802 32.776 140.263 32.3683 139.665 32.0641C139.043 31.7744 138.363 31.6328 137.677 31.6504C137.001 31.6341 136.33 31.7757 135.717 32.0641C135.172 32.327 134.694 32.7123 134.321 33.1902C133.939 33.6818 133.65 34.2395 133.469 34.8357C133.276 35.4639 133.178 36.1179 133.18 36.7753C133.176 37.4247 133.289 38.0696 133.515 38.6782C133.723 39.2584 134.042 39.7924 134.454 40.2502C134.862 40.699 135.36 41.0575 135.914 41.3028C136.519 41.5639 137.171 41.6939 137.829 41.6842C138.51 41.7031 139.186 41.5614 139.802 41.2706C140.381 40.9698 140.897 40.5611 141.323 40.0663L143.264 42.0198C142.593 42.7845 141.744 43.3704 140.792 43.725C139.831 44.0732 138.817 44.249 137.797 44.2444C136.753 44.2561 135.717 44.0706 134.742 43.6975C133.854 43.3492 133.044 42.8256 132.361 42.1577C131.683 41.4815 131.154 40.6705 130.808 39.7768C130.436 38.7984 130.251 37.7583 130.263 36.711C130.252 35.6594 130.437 34.615 130.808 33.6314C131.153 32.7331 131.675 31.9138 132.342 31.223C133.018 30.5436 133.826 30.0103 134.715 29.6556C135.695 29.2672 136.742 29.0751 137.797 29.0902C138.83 29.0868 139.856 29.2786 140.819 29.6556C141.776 30.0279 142.633 30.6179 143.324 31.3792L141.259 33.2683Z" fill="white"/>
<path d="M152.904 33.0523C152.571 32.6402 152.164 32.2941 151.704 32.0319C151.168 31.7452 150.567 31.6042 149.96 31.6228C149.37 31.6085 148.788 31.7496 148.27 32.0319C148.05 32.1447 147.867 32.3178 147.741 32.5309C147.616 32.7441 147.553 32.9886 147.56 33.2361C147.552 33.4282 147.584 33.6199 147.654 33.7988C147.725 33.9777 147.831 34.1398 147.968 34.2749C148.25 34.5447 148.579 34.7611 148.938 34.9138C149.324 35.0809 149.726 35.2042 150.138 35.2815L151.233 35.4929C151.796 35.6288 152.35 35.8023 152.891 36.0123C153.377 36.1995 153.829 36.4667 154.228 36.8029C154.602 37.1325 154.902 37.5384 155.107 37.9934C155.333 38.5341 155.443 39.1169 155.428 39.7032C155.447 40.4331 155.268 41.1545 154.91 41.79C154.577 42.3574 154.12 42.8415 153.573 43.2056C153.003 43.5826 152.37 43.8521 151.704 44.0008C151.012 44.1617 150.304 44.2434 149.593 44.2444C148.519 44.2653 147.452 44.0797 146.447 43.6974C145.471 43.2659 144.635 42.5685 144.034 41.6842L146.099 39.9744C146.548 40.4269 147.048 40.8263 147.587 41.1649C148.193 41.5254 148.889 41.7055 149.593 41.6842C149.945 41.6825 150.297 41.6471 150.642 41.5785C150.962 41.5129 151.271 41.3998 151.558 41.243C151.82 41.0991 152.048 40.9 152.227 40.6593C152.401 40.428 152.493 40.1448 152.488 39.8549C152.495 39.6701 152.465 39.4857 152.399 39.3128C152.334 39.1399 152.235 38.9819 152.107 38.8483C151.848 38.5797 151.536 38.367 151.192 38.2232C150.827 38.0677 150.451 37.9447 150.065 37.8555C149.671 37.7635 149.323 37.69 149.016 37.6257C148.453 37.4926 147.896 37.33 147.349 37.1384C146.856 36.9684 146.393 36.7218 145.976 36.4076C145.566 36.1019 145.232 35.7055 145 35.2493C144.742 34.7078 144.618 34.1118 144.638 33.5119C144.617 32.8273 144.775 32.149 145.096 31.5447C145.403 30.9987 145.827 30.5278 146.337 30.1658C146.874 29.7925 147.47 29.5143 148.1 29.343C148.749 29.1607 149.419 29.0679 150.093 29.0672C151.051 29.0649 152 29.2524 152.886 29.6188C153.775 29.9834 154.521 30.6289 155.011 31.4573L152.904 33.0523Z" fill="white"/>
<path d="M93.7466 22.5635H101.207C102.548 22.5406 103.885 22.714 105.177 23.0783C106.229 23.3795 107.227 23.8448 108.135 24.4572C108.935 24.9986 109.639 25.6696 110.219 26.4428C110.751 27.1507 111.193 27.9228 111.533 28.741C111.846 29.5019 112.078 30.2938 112.225 31.1036C112.36 31.8236 112.43 32.5542 112.435 33.2868C112.437 34.6507 112.182 36.0026 111.684 37.2719C111.18 38.5543 110.419 39.7196 109.45 40.6961C108.4 41.7349 107.154 42.5536 105.786 43.1046C104.183 43.7394 102.472 44.0518 100.749 44.0239H93.774L93.7466 22.5635ZM96.6453 41.2891H100.309C101.489 41.2961 102.663 41.1288 103.794 40.7927C104.843 40.4832 105.823 39.9728 106.679 39.2897C107.511 38.6136 108.183 37.7593 108.644 36.7892C109.146 35.6935 109.393 34.4974 109.367 33.2914C109.351 32.4781 109.239 31.6696 109.033 30.8829C108.799 29.9317 108.373 29.0386 107.783 28.2584C107.1 27.3725 106.226 26.6529 105.227 26.1533C103.908 25.5275 102.458 25.231 101 25.2892H96.6545L96.6453 41.2891Z" fill="white"/>
<path d="M18.2079 37.8279H20.9006V32.6386H18.1529C19.2612 29.5545 22.5401 29.0902 22.5401 29.0902C22.911 27.4448 24.4268 24.5858 25.6083 22.7565C24.8891 22.6254 24.1595 22.5593 23.4285 22.5588C20.0788 22.5588 16.8662 23.8944 14.4976 26.2718C12.129 28.6491 10.7983 31.8735 10.7983 35.2356C10.7983 38.5977 12.129 41.822 14.4976 44.1994C16.8662 46.5767 20.0788 47.9123 23.4285 47.9123C23.9213 47.9111 24.4136 47.882 24.9031 47.825C23.827 46.014 22.6134 43.1505 22.3432 41.4269C21.3909 41.2597 20.5015 40.8369 19.7694 40.2032C19.0373 39.5695 18.4898 38.7487 18.185 37.8279" fill="#DF7F1B"/>
<path d="M36.581 35.2356C36.5831 31.89 35.3225 28.6678 33.053 26.2175C30.7835 23.7672 27.6736 22.2706 24.349 22.029C21.0244 21.7873 17.732 22.8185 15.1345 24.9151C12.5369 27.0117 10.827 30.0179 10.3488 33.3289C9.87061 36.6398 10.6596 40.0097 12.5571 42.7603C14.4546 45.5108 17.3197 47.438 20.5758 48.1538C23.8319 48.8696 27.2372 48.321 30.1065 46.6183C32.9759 44.9157 35.0961 42.1854 36.0406 38.977C36.3985 37.7623 36.5805 36.5023 36.581 35.2356ZM23.4471 47.9123C20.0973 47.9123 16.8848 46.5767 14.5162 44.1994C12.1476 41.822 10.8169 38.5976 10.8169 35.2356C10.8169 31.8735 12.1476 28.6491 14.5162 26.2718C16.8848 23.8944 20.0973 22.5588 23.4471 22.5588C24.1781 22.5593 24.9076 22.6254 25.6269 22.7565C24.4454 24.595 22.9296 27.4447 22.5587 29.0902C22.5587 29.0902 19.2797 29.5499 18.1715 32.6386H20.9192V37.8279H18.2264C18.532 38.7491 19.0803 39.57 19.8132 40.2037C20.5461 40.8373 21.4363 41.26 22.3892 41.4269C22.6777 43.1505 23.873 46.0232 24.9446 47.825C24.4551 47.882 23.9628 47.9111 23.47 47.9123M30.614 45.6647V45.6095L30.5682 43.771L30.4124 37.7957H26.5702C26.605 38.237 26.6646 38.6759 26.7489 39.1103C27.1632 41.1677 27.9385 43.1349 29.0386 44.9201C29.2172 45.2005 29.3912 45.4533 29.5561 45.6739C29.7209 45.8945 29.8034 45.9773 29.9179 46.106C29.4145 46.408 28.8912 46.6752 28.3517 46.9057C27.4481 47.2873 26.5028 47.5604 25.5353 47.7193C21.9313 41.6613 21.3038 34.5185 23.1906 28.7041C23.9727 26.643 24.9787 24.6747 26.1902 22.8346C26.9005 22.9922 27.5961 23.2106 28.2693 23.4873L28.5624 23.616L28.6082 23.639C30.6517 24.5591 32.4149 26.0077 33.7174 27.8365C35.0198 29.6654 35.8146 31.8087 36.0206 34.0472C36.2265 36.2857 35.8361 38.5389 34.8893 40.5761C33.9426 42.6134 32.4734 44.3616 30.6322 45.6417" fill="white"/>
<path d="M35.9765 35.2357C35.9737 32.7979 35.2747 30.412 33.9622 28.3607C32.6498 26.3094 30.7789 24.6788 28.5714 23.662L28.5257 23.6391L28.2326 23.5104C27.5594 23.2337 26.8638 23.0153 26.1535 22.8577C24.942 24.6977 23.9361 26.6661 23.1539 28.7272C21.2672 34.5416 21.8946 41.6843 25.4986 47.7423C26.4661 47.5835 27.4114 47.3104 28.315 46.9288C28.8406 46.7003 29.3501 46.4361 29.84 46.1382C29.7346 46.0003 29.6293 45.8486 29.5194 45.6786C29.3546 45.4579 29.1805 45.2189 29.0019 44.9248C27.7859 43.2003 27.0006 41.2078 26.7122 39.115C26.628 38.6805 26.5683 38.2416 26.5336 37.8004H26.6206H30.4307L30.5315 43.7757L30.5773 45.6142C32.2569 44.4645 33.6272 42.9156 34.566 41.1056C35.5048 39.2956 35.9831 37.2807 35.9581 35.2403M26.3 32.7812C26.3916 30.8967 27.1381 28.8375 27.4403 28.9432C29.0065 29.4718 30.188 32.1607 30.188 32.7812H26.3Z" fill="#DF7F1B"/>
</g>
</g>
<defs>
<clipPath id="clip0_70_1542">
<rect width="156" height="55" fill="white"/>
</clipPath>
</defs>
</svg>
