<svg width="156" height="55" viewBox="0 0 156 55" fill="none" xmlns="http://www.w3.org/2000/svg">
<g clip-path="url(#clip0_845_222)">
<path d="M48.2586 48.0227H52.2977V49.2362H49.5683V50.3485H52.1466V51.5619H49.5683V52.7754H52.4488V53.9888H48.2586V48.0227Z" fill="#1C3F71"/>
<path d="M53.6303 48.0227H54.9446V52.7754H57.3672V53.9888H53.6303V48.0227Z" fill="#1C3F71"/>
<path d="M58.2235 48.0227H59.5332V52.7754H61.9604V53.9888H58.2235V48.0227Z" fill="#1C3F71"/>
<path d="M64.0578 48.0227H62.748V53.9888H64.0578V48.0227Z" fill="#1C3F71"/>
<path d="M68.2709 49.4798C68.1582 49.3416 68.009 49.2381 67.8404 49.181C67.6745 49.1199 67.4996 49.0873 67.323 49.0845C67.2244 49.0841 67.126 49.0949 67.0299 49.1167C66.9311 49.1394 66.8356 49.1749 66.7459 49.2224C66.6581 49.2658 66.5825 49.3306 66.5261 49.4108C66.4691 49.4963 66.4403 49.5976 66.4437 49.7004C66.4389 49.7803 66.4549 49.8601 66.4902 49.9318C66.5256 50.0036 66.579 50.0648 66.6451 50.1095C66.8 50.2166 66.9698 50.3002 67.1489 50.3577L67.8084 50.5599C68.0407 50.6225 68.2628 50.7185 68.4678 50.8449C68.6734 50.9685 68.8474 51.1385 68.9761 51.3413C69.1216 51.5951 69.1915 51.8854 69.1776 52.1778C69.1856 52.4764 69.1228 52.7726 68.9944 53.042C68.8778 53.2833 68.7069 53.4941 68.4953 53.6579C68.2774 53.8265 68.0284 53.9499 67.7626 54.021C67.4779 54.1011 67.1835 54.1413 66.8879 54.1405C66.5215 54.1442 66.1573 54.0835 65.8117 53.9612C65.4714 53.8348 65.16 53.641 64.8958 53.3913L65.8117 52.3617C65.9449 52.5404 66.1194 52.6839 66.32 52.78C66.5171 52.8758 66.733 52.926 66.952 52.9271C67.0617 52.9266 67.1708 52.9127 67.2771 52.8857C67.3801 52.8651 67.4791 52.8278 67.5702 52.7754C67.6537 52.7273 67.7257 52.6614 67.7809 52.5823C67.8327 52.4981 67.8597 52.4009 67.8587 52.3019C67.8619 52.2198 67.8448 52.1382 67.8088 52.0644C67.7728 51.9906 67.7192 51.927 67.6527 51.8791C67.4966 51.7639 67.3236 51.6739 67.1398 51.6125L66.4665 51.3919C66.2309 51.3222 66.0048 51.2233 65.7934 51.0977C65.5874 50.9753 65.4108 50.809 65.2759 50.6105C65.1281 50.3695 65.0578 50.0886 65.0744 49.8061C65.0672 49.5145 65.1317 49.2256 65.2622 48.965C65.3843 48.7285 65.5562 48.5215 65.7659 48.3583C65.9829 48.1926 66.228 48.068 66.4895 47.9906C66.765 47.9117 67.0501 47.8715 67.3367 47.8711C67.6671 47.869 67.9959 47.9171 68.3121 48.0136C68.6244 48.1031 68.9135 48.26 69.1593 48.4732L68.2709 49.4798Z" fill="#1C3F71"/>
<path d="M77.1963 52.5823L78.5198 53.9888H76.9032L76.4041 53.4234C76.183 53.6616 75.9126 53.8483 75.6119 53.9704C75.3076 54.0861 74.9846 54.1437 74.6593 54.1405C74.3959 54.1414 74.1337 54.1042 73.8808 54.0302C73.636 53.9617 73.4061 53.8479 73.203 53.6946C72.9941 53.5408 72.8257 53.3382 72.7124 53.1043C72.5991 52.8705 72.5443 52.6124 72.5527 52.3525C72.5514 52.1673 72.584 51.9835 72.6489 51.8101C72.7134 51.6432 72.8047 51.4879 72.9191 51.3505C73.0337 51.2094 73.1679 51.0856 73.3175 50.9828C73.4718 50.8803 73.6378 50.797 73.8121 50.7346L73.5465 50.4312C73.4666 50.3372 73.396 50.2356 73.3358 50.1279C73.2794 50.0212 73.2349 49.9087 73.203 49.7923C73.1707 49.6631 73.1553 49.5302 73.1573 49.397C73.1497 49.1562 73.2032 48.9173 73.3129 48.703C73.4152 48.5199 73.5577 48.3627 73.7297 48.2434C73.9086 48.1148 74.1108 48.0227 74.325 47.9722C74.5498 47.917 74.7805 47.8892 75.0119 47.8894C75.2332 47.8876 75.4537 47.917 75.6668 47.9768C75.8655 48.0313 76.052 48.1233 76.2163 48.2479C76.3779 48.3696 76.5095 48.5268 76.601 48.7076C76.6992 48.9108 76.7478 49.1345 76.743 49.3603C76.744 49.5301 76.7129 49.6985 76.6514 49.8567C76.5948 50.0094 76.5144 50.1521 76.4133 50.2795C76.3138 50.4128 76.1967 50.5318 76.0652 50.6335C75.9341 50.739 75.793 50.8314 75.6439 50.9092L76.4041 51.7274L76.9857 50.9368H78.4465L77.1963 52.5823ZM74.5906 51.4424L74.3433 51.5987C74.2668 51.6506 74.1948 51.7091 74.1281 51.7734C74.0641 51.8392 74.0114 51.9153 73.9724 51.9986C73.9303 52.0908 73.91 52.1914 73.9128 52.2927C73.9107 52.398 73.9343 52.5021 73.9815 52.5961C74.0221 52.6846 74.0815 52.763 74.1556 52.8259C74.2325 52.8886 74.3192 52.9382 74.412 52.973C74.5071 53.0095 74.6079 53.0282 74.7097 53.0282C74.8875 53.0315 75.063 52.9871 75.218 52.8995C75.3695 52.809 75.5121 52.7043 75.6439 52.5869L74.5906 51.4424ZM74.9936 48.8822C74.8433 48.878 74.6973 48.9324 74.5861 49.0339C74.5296 49.0845 74.4851 49.147 74.4558 49.217C74.4265 49.2869 74.4131 49.3626 74.4166 49.4384C74.4175 49.5118 74.4347 49.584 74.467 49.6498C74.4993 49.7223 74.5409 49.7903 74.5906 49.8521C74.6364 49.9184 74.6885 49.9799 74.7463 50.0359L74.9112 50.1876L75.131 50.0497C75.2077 49.9962 75.2796 49.9362 75.3462 49.8705C75.4128 49.8088 75.4699 49.7375 75.5156 49.659C75.56 49.5872 75.5838 49.5045 75.5843 49.42C75.5887 49.3443 75.5752 49.2687 75.5449 49.1992C75.5147 49.1297 75.4686 49.0684 75.4103 49.0201C75.2919 48.9264 75.1444 48.8776 74.9936 48.8822Z" fill="#1C3F71"/>
<path d="M83.7862 48.0227H84.8669L87.4544 53.998H85.9752L85.4623 52.734H83.1725L82.6779 53.998H81.2354L83.7862 48.0227ZM84.2899 49.7556L83.5664 51.5941H85.018L84.2899 49.7556Z" fill="#1C3F71"/>
<path d="M91.0721 49.4798C90.9533 49.3358 90.7936 49.2315 90.6142 49.181C90.45 49.1196 90.2765 49.0869 90.1013 49.0845C90.0027 49.0841 89.9044 49.0949 89.8082 49.1167C89.7081 49.1402 89.6113 49.1757 89.5197 49.2224C89.4341 49.2672 89.3603 49.3318 89.3045 49.4108C89.2437 49.4947 89.213 49.5968 89.2174 49.7004C89.2126 49.7803 89.2287 49.8601 89.264 49.9318C89.2994 50.0036 89.3528 50.0648 89.4189 50.1095C89.576 50.2157 89.7471 50.2993 89.9273 50.3577L90.5867 50.5599C90.8184 50.6242 91.0403 50.7201 91.2462 50.8449C91.4517 50.9685 91.6257 51.1385 91.7545 51.3413C91.9 51.5951 91.9699 51.8854 91.9559 52.1778C91.9616 52.4761 91.8989 52.7718 91.7727 53.0419C91.6546 53.2823 91.484 53.4928 91.2736 53.6579C91.0558 53.8265 90.8067 53.9499 90.5409 54.021C90.2547 54.1011 89.9588 54.1413 89.6616 54.1405C89.2967 54.1438 88.9341 54.0832 88.59 53.9612C88.2498 53.8348 87.9383 53.6409 87.6741 53.3913L88.59 52.3617C88.7233 52.5403 88.8977 52.6839 89.0983 52.7799C89.2952 52.8762 89.5113 52.9265 89.7303 52.927C89.8385 52.9269 89.9462 52.913 90.0509 52.8857C90.1553 52.865 90.2558 52.8277 90.3485 52.7753C90.4316 52.7285 90.5023 52.6623 90.5546 52.5823C90.6098 52.4994 90.6385 52.4016 90.637 52.3019C90.6402 52.2198 90.6231 52.1382 90.5871 52.0644C90.5512 51.9906 90.4975 51.9269 90.431 51.8791C90.2733 51.7639 90.0987 51.674 89.9135 51.6125C89.7074 51.5389 89.4831 51.4654 89.2449 51.3919C89.0093 51.3221 88.7831 51.2233 88.5717 51.0977C88.3657 50.9753 88.1891 50.8089 88.0542 50.6105C87.9048 50.37 87.8329 50.0891 87.8482 49.8061C87.8423 49.5141 87.9084 49.2252 88.0405 48.965C88.1627 48.7285 88.3345 48.5215 88.5442 48.3583C88.7606 48.1917 89.006 48.067 89.2678 47.9905C89.5433 47.9117 89.8284 47.8715 90.115 47.871C90.4454 47.8694 90.7742 47.9174 91.0904 48.0135C91.4021 48.1047 91.6909 48.2614 91.9377 48.4732L91.0721 49.4798Z" fill="#1C3F71"/>
<path d="M95.9768 49.4798C95.8561 49.3379 95.697 49.2341 95.5188 49.181C95.353 49.1196 95.178 49.087 95.0013 49.0845C94.9028 49.0843 94.8045 49.0951 94.7082 49.1167C94.6094 49.1394 94.514 49.1749 94.4243 49.2224C94.3365 49.2658 94.261 49.3306 94.2045 49.4108C94.1475 49.4963 94.1187 49.5976 94.1221 49.7004C94.1172 49.7803 94.1333 49.8601 94.1687 49.9318C94.204 50.0036 94.2574 50.0648 94.3236 50.1095C94.4796 50.2175 94.6509 50.3012 94.8319 50.3577L95.4913 50.5599C95.7231 50.6242 95.945 50.7201 96.1508 50.8449C96.3544 50.971 96.5279 51.1405 96.6591 51.3413C96.8028 51.5956 96.8711 51.8859 96.856 52.1778C96.8641 52.4764 96.8013 52.7726 96.6729 53.042C96.5562 53.2833 96.3853 53.4941 96.1737 53.6579C95.957 53.8256 95.7096 53.949 95.4455 54.021C95.1592 54.1008 94.8634 54.141 94.5663 54.1405C94.1999 54.1438 93.8357 54.0832 93.4901 53.9612C93.1491 53.8363 92.8373 53.6423 92.5742 53.3913L93.4901 52.3617C93.6253 52.5384 93.7993 52.6815 93.9985 52.78C94.1957 52.8752 94.4115 52.9254 94.6304 52.9271C94.74 52.9269 94.8493 52.913 94.9556 52.8857C95.0585 52.8651 95.1575 52.8278 95.2486 52.7754C95.3331 52.7287 95.4053 52.6625 95.4593 52.5823C95.5144 52.4994 95.5432 52.4016 95.5417 52.3019C95.5449 52.2198 95.5278 52.1382 95.4918 52.0644C95.4559 51.9906 95.4022 51.9269 95.3356 51.8791C95.1779 51.7639 95.0033 51.674 94.8181 51.6125C94.6105 51.5389 94.3862 51.4654 94.145 51.3919C93.9237 51.3186 93.7117 51.2199 93.513 51.0977C93.3061 50.9765 93.1292 50.81 92.9955 50.6105C92.8461 50.37 92.7742 50.0891 92.7895 49.8061C92.7848 49.5148 92.8491 49.2265 92.9772 48.965C93.1009 48.7295 93.2725 48.5228 93.481 48.3583C93.6998 48.193 93.9464 48.0684 94.2091 47.9906C94.4846 47.9113 94.7697 47.8711 95.0563 47.8711C95.3867 47.8697 95.7154 47.9177 96.0317 48.0135C96.3434 48.1047 96.6322 48.2614 96.8789 48.4732L95.9768 49.4798Z" fill="#1C3F71"/>
<path d="M97.6345 51.0058C97.6277 50.5607 97.7087 50.1186 97.8726 49.705C98.0225 49.3314 98.2504 48.9944 98.5412 48.7168C98.8328 48.4393 99.1791 48.2264 99.5579 48.0917C100.388 47.7976 101.293 47.7976 102.122 48.0917C102.501 48.2264 102.847 48.4393 103.139 48.7168C103.43 48.9944 103.658 49.3314 103.808 49.705C103.972 50.1186 104.053 50.5607 104.046 51.0058C104.053 51.4494 103.972 51.89 103.808 52.302C103.658 52.6756 103.43 53.0126 103.139 53.2902C102.848 53.5691 102.501 53.7836 102.122 53.9199C101.293 54.2139 100.388 54.2139 99.5579 53.9199C99.1789 53.7836 98.8325 53.5691 98.5412 53.2902C98.2504 53.0126 98.0225 52.6756 97.8726 52.302C97.7083 51.89 97.6274 51.4494 97.6345 51.0058ZM99.0083 51.0058C99.0047 51.2688 99.0481 51.5304 99.1366 51.778C99.2191 52.0025 99.3469 52.2075 99.5121 52.3801C99.6751 52.5548 99.8734 52.6927 100.094 52.7846C100.583 52.9745 101.125 52.9745 101.614 52.7846C101.834 52.6927 102.033 52.5548 102.196 52.3801C102.361 52.2075 102.489 52.0025 102.571 51.778C102.742 51.2791 102.742 50.7371 102.571 50.2382C102.491 50.0119 102.364 49.805 102.199 49.6308C102.035 49.4566 101.835 49.3191 101.614 49.227C101.125 49.037 100.583 49.037 100.094 49.227C99.8726 49.3191 99.6732 49.4566 99.5083 49.6308C99.3435 49.805 99.2169 50.0119 99.1366 50.2382C99.0485 50.4843 99.005 50.7443 99.0083 51.0058Z" fill="#1C3F71"/>
<path d="M108.895 49.5717C108.771 49.4182 108.615 49.2942 108.438 49.2086C108.226 49.1207 108 49.0755 107.771 49.0755C107.543 49.0755 107.316 49.1207 107.105 49.2086C106.897 49.3023 106.712 49.4385 106.56 49.6085C106.401 49.7867 106.278 49.9943 106.198 50.2198C106.022 50.7178 106.022 51.2616 106.198 51.7596C106.28 51.9814 106.401 52.1869 106.555 52.3663C106.696 52.5381 106.872 52.6778 107.071 52.7761C107.27 52.8743 107.488 52.9289 107.709 52.9362C107.952 52.9435 108.192 52.8881 108.407 52.7755C108.622 52.6628 108.804 52.4966 108.937 52.2928L110.027 53.1109C109.785 53.456 109.454 53.7279 109.069 53.8969C108.694 54.0618 108.289 54.1478 107.879 54.1497C107.44 54.1541 107.004 54.0793 106.592 53.9291C106.215 53.7904 105.87 53.5779 105.575 53.3039C105.287 53.0236 105.061 52.6853 104.911 52.3111C104.745 51.8996 104.663 51.4589 104.669 51.015C104.663 50.5696 104.746 50.1275 104.911 49.7142C105.06 49.3408 105.286 49.0038 105.575 48.726C105.868 48.4504 106.214 48.2377 106.592 48.1009C107.004 47.9506 107.44 47.8759 107.879 47.8802C108.054 47.8804 108.229 47.8958 108.401 47.9262C108.584 47.9569 108.764 48.0062 108.937 48.0733C109.117 48.1416 109.288 48.2327 109.445 48.3445C109.618 48.4557 109.773 48.5938 109.903 48.7536L108.895 49.5717Z" fill="#1C3F71"/>
<path d="M112.138 48.0227H110.828V53.9888H112.138V48.0227Z" fill="#1C3F71"/>
<path d="M115.366 48.0227H116.452L119.034 53.998H117.555L117.047 52.734H114.734L114.24 53.998H112.797L115.366 48.0227ZM115.87 49.7556L115.146 51.5941H116.603L115.87 49.7556Z" fill="#1C3F71"/>
<path d="M120.092 49.1856H118.398V48.0227H123.101V49.1856H121.407V53.9888H120.092V49.1856Z" fill="#1C3F71"/>
<path d="M123.898 48.0227H127.937V49.2362H125.208V50.3485H127.786V51.5619H125.208V52.7754H128.088V53.9888H123.898V48.0227Z" fill="#1C3F71"/>
<path d="M132.155 49.4798C132.043 49.3403 131.894 49.2364 131.724 49.181C131.558 49.1196 131.383 49.0869 131.207 49.0845C131.108 49.0841 131.01 49.0949 130.914 49.1167C130.815 49.1394 130.719 49.1749 130.63 49.2224C130.542 49.2658 130.466 49.3306 130.41 49.4108C130.353 49.4963 130.324 49.5976 130.327 49.7004C130.323 49.7803 130.339 49.8601 130.374 49.9318C130.409 50.0035 130.463 50.0648 130.529 50.1095C130.685 50.2175 130.856 50.3012 131.037 50.3577L131.692 50.5599C131.924 50.6225 132.147 50.7185 132.352 50.8449C132.557 50.9685 132.731 51.1385 132.86 51.3413C133.007 51.5943 133.077 51.8852 133.061 52.1778C133.069 52.4764 133.007 52.7725 132.878 53.0419C132.762 53.2833 132.591 53.4941 132.379 53.6579C132.161 53.8265 131.912 53.9499 131.646 54.021C131.362 54.1011 131.067 54.1413 130.772 54.1405C130.405 54.1438 130.041 54.0831 129.695 53.9612C129.354 53.8363 129.043 53.6423 128.78 53.3913L129.695 52.3617C129.829 52.5403 130.003 52.6839 130.204 52.7799C130.401 52.8752 130.617 52.9254 130.836 52.927C130.945 52.9269 131.055 52.913 131.161 52.8857C131.264 52.8651 131.363 52.8278 131.454 52.7753C131.538 52.7273 131.609 52.6614 131.665 52.5823C131.717 52.4981 131.743 52.4009 131.743 52.3019C131.746 52.2198 131.729 52.1382 131.693 52.0644C131.657 51.9906 131.603 51.9269 131.536 51.8791C131.38 51.7639 131.207 51.6739 131.024 51.6125C130.813 51.5389 130.593 51.4654 130.35 51.3919C130.12 51.3203 129.898 51.2215 129.691 51.0977C129.486 50.9751 129.311 50.8087 129.178 50.6105C129.029 50.37 128.957 50.0891 128.972 49.8061C128.964 49.527 129.023 49.25 129.143 48.9982C129.263 48.7464 129.442 48.527 129.663 48.3583C129.882 48.193 130.129 48.0684 130.392 47.9905C130.667 47.911 130.952 47.8708 131.239 47.871C131.568 47.8694 131.895 47.9174 132.21 48.0135C132.523 48.1031 132.814 48.2599 133.061 48.4732L132.155 49.4798Z" fill="#1C3F71"/>
<path d="M134.284 52.6237H135.489L134.733 55H133.661L134.284 52.6237Z" fill="#1C3F71"/>
<path d="M140.553 48.0227H139.244V53.9888H140.553V48.0227Z" fill="#1C3F71"/>
<path d="M141.827 48.0227H143.608L146.136 52.1686H146.15V48.0227H147.459V53.9888H145.747L143.155 49.7418H143.136V53.9888H141.827V48.0227Z" fill="#1C3F71"/>
<path d="M152.639 49.5717C152.514 49.4191 152.358 49.2953 152.181 49.2086C151.975 49.1226 151.753 49.0804 151.53 49.0845C151.298 49.0811 151.068 49.1278 150.856 49.2214C150.643 49.3149 150.453 49.4532 150.299 49.6268C150.139 49.805 150.017 50.0127 149.937 50.2382C149.766 50.7371 149.766 51.279 149.937 51.7779C150.019 51.9998 150.14 52.2052 150.294 52.3846C150.443 52.5523 150.623 52.6882 150.825 52.7845C151.033 52.8783 151.257 52.9269 151.485 52.927C151.733 52.9329 151.979 52.8743 152.199 52.757C152.405 52.6487 152.582 52.4908 152.712 52.2973L153.802 53.1155C153.561 53.4606 153.23 53.7325 152.845 53.9015C152.469 54.0664 152.064 54.1524 151.654 54.1542C151.215 54.1586 150.78 54.0839 150.367 53.9336C149.991 53.796 149.647 53.5833 149.355 53.3085C149.065 53.0284 148.837 52.6901 148.687 52.3157C148.522 51.9038 148.441 51.4632 148.448 51.0195C148.442 50.5744 148.523 50.1324 148.687 49.7188C148.836 49.3451 149.064 49.0081 149.355 48.7306C149.646 48.4542 149.99 48.2413 150.367 48.1054C150.78 47.9552 151.215 47.8804 151.654 47.8848C151.831 47.8847 152.007 47.9001 152.181 47.9308C152.364 47.9626 152.543 48.0118 152.717 48.0779C152.896 48.1481 153.066 48.2391 153.225 48.349C153.397 48.4613 153.552 48.5993 153.683 48.7581L152.639 49.5717Z" fill="#1C3F71"/>
<path d="M154.452 53.2626C154.451 53.1584 154.471 53.0552 154.512 52.9592C154.549 52.8657 154.605 52.7812 154.677 52.711C154.748 52.6404 154.832 52.5843 154.924 52.5455C155.117 52.4659 155.335 52.4659 155.528 52.5455C155.621 52.5837 155.705 52.6399 155.776 52.7109C155.846 52.7819 155.902 52.8663 155.94 52.9592C156.014 53.1547 156.014 53.3704 155.94 53.5659C155.902 53.6588 155.846 53.7433 155.776 53.8143C155.705 53.8853 155.621 53.9415 155.528 53.9796C155.335 54.0593 155.117 54.0593 154.924 53.9796C154.832 53.9409 154.748 53.8847 154.677 53.8141C154.605 53.744 154.549 53.6594 154.512 53.5659C154.471 53.47 154.451 53.3667 154.452 53.2626Z" fill="#1C3F71"/>
<path d="M57.1838 8.67331L55.439 4.16429C55.3696 3.98409 55.2655 3.81937 55.1326 3.67957C54.9998 3.53977 54.8407 3.42761 54.6647 3.3495C54.4886 3.27139 54.299 3.22886 54.1065 3.22434C53.9141 3.21982 53.7226 3.25339 53.5431 3.32315L16.9073 17.6178C13.894 18.7255 10.409 21.8189 8.66421 24.1538C7.06925 26.2722 5.89822 28.6806 5.21584 31.246C4.50144 34.0406 4.8678 38.4393 4.98687 38.3428C5.1082 39.2865 5.30266 40.2194 5.56847 41.1328C5.33802 41.0981 5.10541 41.0796 4.87238 41.0776C3.9946 41.0766 3.13288 41.3136 2.37821 41.7635C1.62354 42.2135 1.00396 42.8597 0.584989 43.6339C0.166022 44.4081 -0.0367955 45.2815 -0.00203692 46.1618C0.0327217 47.0421 0.303797 47.8967 0.78249 48.6352C1.26118 49.3736 1.92975 49.9686 2.71753 50.3572C3.50531 50.7458 4.38305 50.9136 5.25799 50.8429C6.13294 50.7721 6.97257 50.4655 7.68821 49.9553C8.40386 49.4452 8.96894 48.7504 9.32368 47.9446C11.8291 50.6507 15.0682 52.5624 18.6422 53.4444C22.2163 54.3264 25.9693 54.1403 29.4393 52.9088C32.9093 51.6774 35.9448 49.4544 38.1722 46.5136C40.3995 43.5728 41.7215 40.0424 41.9753 36.3572C42.0923 34.4019 41.9054 32.4403 41.4212 30.5428C41.027 29.0148 41.0663 27.4066 41.5349 25.8999C42.0034 24.3932 42.8825 23.0481 44.0728 22.0165L56.5519 11.2381C56.9081 10.9283 57.1603 10.5157 57.2742 10.0567C57.3882 9.5977 57.3582 9.1146 57.1884 8.67331M4.87238 48.4042C4.39105 48.4051 3.92032 48.2626 3.51972 47.9948C3.11913 47.727 2.80673 47.3458 2.62211 46.8997C2.43749 46.4535 2.38895 45.9624 2.48263 45.4885C2.57632 45.0147 2.80801 44.5794 3.14837 44.2377C3.48872 43.8961 3.9224 43.6636 4.39453 43.5696C4.86666 43.4755 5.356 43.5242 5.80052 43.7095C6.24504 43.8948 6.62476 44.2084 6.89161 44.6105C7.15846 45.0125 7.30043 45.485 7.29953 45.9681C7.29832 46.6138 7.0422 47.2328 6.58728 47.6894C6.13237 48.1459 5.51572 48.403 4.87238 48.4042Z" fill="#1C3F71"/>
<path d="M18.153 15.0025C17.932 15.0027 17.7153 14.9413 17.5269 14.8253C17.3386 14.7093 17.186 14.5431 17.086 14.3452L10.7664 1.91669C10.6219 1.63204 10.5959 1.30143 10.6942 0.997585C10.7926 0.693736 11.0071 0.44154 11.2907 0.296476C11.5743 0.151411 11.9037 0.125357 12.2064 0.224054C12.5092 0.322751 12.7604 0.53811 12.905 0.822753L19.2201 13.2605C19.2921 13.4014 19.3358 13.5552 19.3485 13.713C19.3613 13.8709 19.3429 14.0297 19.2944 14.1805C19.2459 14.3312 19.1682 14.4708 19.0659 14.5914C18.9636 14.7119 18.8386 14.811 18.698 14.883C18.5288 14.9678 18.3422 15.0119 18.153 15.0117" fill="#DF7F1B"/>
<path d="M14.3795 16.7813C14.1396 16.7809 13.9053 16.7089 13.7063 16.5745L4.38711 10.2361C4.24841 10.1511 4.12831 10.0388 4.03415 9.90592C3.93999 9.77302 3.87372 9.6223 3.83933 9.46291C3.80494 9.30352 3.80314 9.1388 3.83408 8.9787C3.86502 8.8186 3.92806 8.66648 4.01934 8.53156C4.11061 8.39664 4.22825 8.28173 4.36509 8.19381C4.50193 8.10588 4.65515 8.04677 4.81544 8.02005C4.97572 7.99334 5.13972 7.99957 5.29753 8.03839C5.45535 8.0772 5.60363 8.14778 5.73346 8.24585L15.0527 14.5796C15.2655 14.7241 15.4264 14.9333 15.5119 15.1765C15.5973 15.4196 15.6028 15.6839 15.5274 15.9304C15.452 16.1768 15.2998 16.3925 15.0932 16.5457C14.8866 16.6989 14.6364 16.7815 14.3795 16.7813Z" fill="#DF7F1B"/>
<path d="M22.2517 13.6006C22.1968 13.6052 22.1417 13.6052 22.0868 13.6006C21.9303 13.5803 21.7793 13.529 21.6428 13.4496C21.5062 13.3702 21.3866 13.2643 21.2912 13.1381C21.1957 13.012 21.1262 12.868 21.0867 12.7146C21.0472 12.5612 21.0385 12.4015 21.061 12.2447L22.5952 1.05257C22.6419 0.73889 22.8101 0.456381 23.0631 0.2664C23.3162 0.0764196 23.6336 -0.00569604 23.9466 0.0378869C24.2596 0.0814699 24.5429 0.247235 24.7349 0.499178C24.9268 0.751121 25.012 1.0689 24.9719 1.38351L23.4469 12.5619C23.4072 12.8494 23.2653 13.1129 23.0473 13.3038C22.8294 13.4946 22.5501 13.6001 22.2609 13.6006" fill="#DF7F1B"/>
<path d="M23.4745 20.8674C23.273 20.8674 23.076 20.8674 22.8791 20.8674C19.1983 20.9683 15.7028 22.5108 13.1405 25.165C10.5782 27.8192 9.15239 31.3744 9.16811 35.0702C9.16854 35.5861 9.19607 36.1016 9.25057 36.6146C9.52362 39.3789 10.5902 42.0043 12.3209 44.1721C14.0516 46.3399 16.3721 47.9569 19.0006 48.8269C21.6291 49.6968 24.4526 49.7823 27.1286 49.073C29.8046 48.3637 32.2179 46.8901 34.0757 44.8309C35.9335 42.7718 37.1558 40.2157 37.5944 37.4729C38.033 34.7301 37.669 31.9184 36.5466 29.3792C35.4241 26.84 33.5914 24.6824 31.271 23.1682C28.9506 21.654 26.2422 20.8484 23.4745 20.8491" fill="white"/>
<path d="M47.6037 22.5267H61.4887V25.2708H50.5208V31.7011H60.7285V34.4451H50.5208V41.3672H62.0336V44.1112H47.6037V22.5267Z" fill="#DF7F1B"/>
<path d="M66.8925 21.0605H64.1585V44.1112H66.8925V21.0605Z" fill="#DF7F1B"/>
<path d="M72.6672 21.0605H69.9333V44.1112H72.6672V21.0605Z" fill="#DF7F1B"/>
<path d="M75.0623 24.4756C75.0559 24.0023 75.2138 23.5416 75.5086 23.1722C75.8035 22.8028 76.2171 22.5478 76.6787 22.4508C77.1403 22.3538 77.6211 22.4208 78.0388 22.6404C78.4566 22.8601 78.7852 23.2186 78.9686 23.6547C79.152 24.0907 79.1787 24.5772 79.044 25.0309C78.9094 25.4845 78.6219 25.877 78.2307 26.1413C77.8394 26.4056 77.3689 26.5251 76.8995 26.4795C76.4301 26.4339 75.9911 26.226 75.6576 25.8913C75.4675 25.7085 75.3167 25.4886 75.2143 25.2451C75.1119 25.0017 75.0602 24.7398 75.0623 24.4756ZM75.7034 29.6603H78.4511V44.1112H75.7034V29.6603Z" fill="#DF7F1B"/>
<path d="M88.9335 33.2868C88.6015 32.8735 88.1944 32.5272 87.7337 32.2664C87.1988 31.9761 86.5967 31.8334 85.9889 31.8528C85.4004 31.8376 84.8187 31.9804 84.3037 32.2664C84.0832 32.3786 83.8989 32.5514 83.7725 32.7646C83.646 32.9778 83.5825 33.2226 83.5892 33.4707C83.5819 33.662 83.6144 33.8528 83.6845 34.0308C83.7547 34.2089 83.8611 34.3703 83.9968 34.5049C84.2801 34.7751 84.6088 34.993 84.9677 35.1483C85.3544 35.3139 85.7584 35.4357 86.1721 35.5115L87.262 35.7275C87.8262 35.8606 88.3802 36.0342 88.9197 36.2469C89.4075 36.4311 89.8599 36.6986 90.257 37.0374C90.6337 37.3646 90.9339 37.771 91.1363 38.2279C91.363 38.7669 91.4723 39.3483 91.4568 39.9331C91.4771 40.6645 91.2981 41.3876 90.9393 42.0245C90.6062 42.592 90.1489 43.076 89.6021 43.4402C89.0335 43.8177 88.4 44.0858 87.7337 44.2307C87.0419 44.3954 86.3335 44.4787 85.6225 44.479C84.5497 44.5012 83.4827 44.3138 82.481 43.9274C81.5009 43.5005 80.6621 42.8022 80.063 41.9142L82.1284 40.2089C82.581 40.6577 83.0799 41.0567 83.6167 41.3994C84.2231 41.7586 84.9188 41.9371 85.6225 41.9142C85.9748 41.915 86.3262 41.8796 86.6713 41.8085C87.0011 41.7464 87.3194 41.6332 87.6146 41.4729C87.8759 41.3297 88.1038 41.1323 88.2832 40.8938C88.4539 40.6592 88.544 40.3753 88.5397 40.0848C88.551 39.712 88.4143 39.3499 88.1596 39.0782C87.898 38.8117 87.5868 38.5993 87.2437 38.4531C86.8811 38.2992 86.5056 38.1777 86.1217 38.09C85.7233 37.9981 85.3752 37.92 85.073 37.8602C84.4822 37.7177 83.9281 37.5568 83.4015 37.373C82.9011 37.2033 82.4299 36.9567 82.0047 36.6422C81.5986 36.3342 81.2667 35.9383 81.0339 35.4839C80.7722 34.9435 80.6464 34.3469 80.6675 33.7465C80.6457 33.0618 80.8036 32.3833 81.1255 31.7792C81.4309 31.2306 81.8569 30.759 82.3711 30.4003C82.9067 30.0253 83.5033 29.7469 84.1342 29.5776C85.7137 29.1326 87.3957 29.228 88.9152 29.8487C89.8041 30.2148 90.5511 30.8598 91.0446 31.6873L88.9335 33.2868Z" fill="#DF7F1B"/>
<path d="M113.741 36.6514C113.732 35.6358 113.933 34.6295 114.331 33.6959C114.714 32.7957 115.266 31.978 115.957 31.2874C116.652 30.5893 117.477 30.0349 118.384 29.6557C120.311 28.8589 122.474 28.8589 124.402 29.6557C126.227 30.4187 127.682 31.8691 128.454 33.6959C128.856 34.6286 129.059 35.6353 129.05 36.6514C129.054 37.6511 128.86 38.6417 128.479 39.5656C128.099 40.4895 127.539 41.3285 126.833 42.0337C126.13 42.7207 125.306 43.2695 124.402 43.6516C122.473 44.442 120.313 44.442 118.384 43.6516C117.481 43.2704 116.657 42.7215 115.957 42.0337C115.249 41.3302 114.688 40.4916 114.307 39.5672C113.926 38.6429 113.734 37.6515 113.741 36.6514ZM116.653 36.6514C116.647 37.3413 116.76 38.0271 116.987 38.6784C117.191 39.266 117.512 39.8057 117.931 40.2641C118.348 40.7116 118.856 41.0656 119.419 41.3029C120.686 41.8113 122.099 41.8113 123.367 41.3029C123.931 41.0667 124.438 40.7126 124.855 40.2641C125.274 39.8057 125.595 39.266 125.798 38.6784C126.244 37.364 126.244 35.9387 125.798 34.6244C125.595 34.0367 125.274 33.497 124.855 33.0386C124.438 32.5915 123.93 32.2389 123.367 32.0044C122.099 31.496 120.686 31.496 119.419 32.0044C118.856 32.2401 118.349 32.5925 117.931 33.0386C117.512 33.497 117.191 34.0367 116.987 34.6244C116.761 35.2758 116.648 35.9614 116.653 36.6514Z" fill="#1C3F71"/>
<path d="M141.259 33.2684C140.802 32.7761 140.263 32.3684 139.665 32.0642C139.043 31.7745 138.363 31.6329 137.677 31.6505C137.001 31.6342 136.33 31.7758 135.717 32.0642C135.172 32.3271 134.694 32.7124 134.321 33.1903C133.939 33.6819 133.65 34.2396 133.469 34.8358C133.276 35.464 133.178 36.118 133.18 36.7754C133.176 37.4248 133.289 38.0697 133.515 38.6783C133.723 39.2585 134.042 39.7925 134.454 40.2503C134.862 40.6991 135.36 41.0576 135.914 41.3029C136.519 41.564 137.171 41.694 137.829 41.6843C138.51 41.7032 139.186 41.5615 139.802 41.2707C140.381 40.9699 140.897 40.5612 141.323 40.0664L143.264 42.0199C142.593 42.7846 141.744 43.3705 140.792 43.7251C139.831 44.0733 138.817 44.2491 137.797 44.2445C136.753 44.2562 135.717 44.0707 134.742 43.6976C133.854 43.3493 133.044 42.8257 132.361 42.1578C131.683 41.4816 131.154 40.6706 130.808 39.7769C130.436 38.7985 130.251 37.7584 130.263 36.7111C130.252 35.6595 130.437 34.6151 130.808 33.6315C131.153 32.7332 131.675 31.9139 132.342 31.2231C133.018 30.5437 133.826 30.0104 134.715 29.6557C135.695 29.2673 136.742 29.0752 137.797 29.0903C138.83 29.0869 139.856 29.2787 140.819 29.6557C141.776 30.028 142.633 30.618 143.324 31.3793L141.259 33.2684Z" fill="#1C3F71"/>
<path d="M152.904 33.0524C152.571 32.6403 152.164 32.2942 151.704 32.032C151.168 31.7453 150.567 31.6043 149.96 31.6229C149.37 31.6086 148.788 31.7497 148.27 32.032C148.05 32.1448 147.867 32.3179 147.741 32.531C147.616 32.7442 147.553 32.9887 147.56 33.2362C147.552 33.4283 147.584 33.62 147.654 33.7989C147.725 33.9778 147.831 34.1399 147.968 34.275C148.25 34.5448 148.579 34.7612 148.938 34.9139C149.324 35.081 149.726 35.2043 150.138 35.2816L151.233 35.493C151.796 35.6289 152.35 35.8024 152.891 36.0124C153.377 36.1996 153.829 36.4668 154.228 36.803C154.602 37.1326 154.902 37.5385 155.107 37.9935C155.333 38.5342 155.443 39.117 155.428 39.7033C155.447 40.4332 155.268 41.1546 154.91 41.7901C154.577 42.3575 154.12 42.8416 153.573 43.2057C153.003 43.5827 152.37 43.8522 151.704 44.0009C151.012 44.1618 150.304 44.2435 149.593 44.2445C148.519 44.2654 147.452 44.0798 146.447 43.6975C145.471 43.266 144.635 42.5686 144.034 41.6843L146.099 39.9745C146.548 40.427 147.048 40.8264 147.587 41.165C148.193 41.5255 148.889 41.7056 149.593 41.6843C149.945 41.6826 150.297 41.6472 150.642 41.5786C150.962 41.513 151.271 41.3999 151.558 41.2431C151.82 41.0992 152.048 40.9001 152.227 40.6594C152.401 40.4281 152.493 40.1449 152.488 39.855C152.495 39.6702 152.465 39.4858 152.399 39.3129C152.334 39.14 152.235 38.982 152.107 38.8484C151.848 38.5798 151.536 38.3671 151.192 38.2233C150.827 38.0678 150.451 37.9448 150.065 37.8556C149.671 37.7636 149.323 37.6901 149.016 37.6258C148.453 37.4927 147.896 37.3301 147.349 37.1385C146.856 36.9685 146.393 36.7219 145.976 36.4077C145.566 36.102 145.232 35.7056 145 35.2494C144.742 34.7079 144.618 34.1119 144.638 33.512C144.617 32.8274 144.775 32.1491 145.096 31.5448C145.403 30.9988 145.827 30.5279 146.337 30.1659C146.874 29.7926 147.47 29.5144 148.1 29.3431C148.749 29.1608 149.419 29.068 150.093 29.0673C151.051 29.065 152 29.2525 152.886 29.6189C153.775 29.9835 154.521 30.629 155.011 31.4574L152.904 33.0524Z" fill="#1C3F71"/>
<path d="M93.7466 22.5635H101.207C102.548 22.5406 103.885 22.714 105.177 23.0783C106.229 23.3795 107.227 23.8448 108.135 24.4572C108.935 24.9986 109.639 25.6696 110.219 26.4428C110.751 27.1507 111.193 27.9228 111.533 28.741C111.846 29.5019 112.078 30.2938 112.225 31.1036C112.36 31.8236 112.43 32.5542 112.435 33.2868C112.437 34.6507 112.182 36.0026 111.684 37.2719C111.18 38.5543 110.419 39.7196 109.45 40.6961C108.4 41.7349 107.154 42.5536 105.786 43.1046C104.183 43.7394 102.472 44.0518 100.749 44.0239H93.774L93.7466 22.5635ZM96.6453 41.2891H100.309C101.489 41.2961 102.663 41.1288 103.794 40.7927C104.843 40.4832 105.823 39.9728 106.679 39.2897C107.511 38.6136 108.183 37.7593 108.644 36.7892C109.146 35.6935 109.393 34.4974 109.367 33.2914C109.351 32.4781 109.239 31.6696 109.033 30.8829C108.799 29.9317 108.373 29.0386 107.783 28.2584C107.1 27.3725 106.226 26.6529 105.227 26.1533C103.908 25.5275 102.458 25.231 101 25.2892H96.6545L96.6453 41.2891Z" fill="#1C3F71"/>
<path d="M35.9764 35.2357C35.9736 32.7979 35.2746 30.412 33.9621 28.3607C32.6497 26.3094 30.7788 24.6788 28.5713 23.662L28.5256 23.6391L28.2325 23.5104C27.5593 23.2337 26.8637 23.0153 26.1534 22.8577C24.9419 24.6977 23.936 26.6661 23.1538 28.7272C21.2671 34.5416 21.8945 41.6843 25.4985 47.7423C26.466 47.5835 27.4113 47.3104 28.3149 46.9288C28.8405 46.7003 29.35 46.4361 29.8399 46.1382C29.7345 46.0003 29.6292 45.8486 29.5193 45.6786C29.3545 45.4579 29.1804 45.2189 29.0018 44.9248C27.7858 43.2003 27.0005 41.2078 26.7121 39.115C26.6279 38.6805 26.5682 38.2416 26.5335 37.8004H26.6205H30.4306L30.5314 43.7757L30.5772 45.6142C32.2568 44.4645 33.6271 42.9156 34.5659 41.1056C35.5047 39.2956 35.983 37.2807 35.958 35.2403M26.2999 32.7812C26.3915 30.8967 27.138 28.8375 27.4402 28.9432C29.0064 29.4718 30.1879 32.1607 30.1879 32.7812H26.2999Z" fill="#DF7F1B"/>
<path d="M18.208 37.828H20.9007V32.6387H18.153C19.2613 29.5546 22.5402 29.0903 22.5402 29.0903C22.9111 27.4449 24.4269 24.5859 25.6084 22.7566C24.8892 22.6255 24.1596 22.5594 23.4286 22.5589C20.0789 22.5589 16.8663 23.8945 14.4977 26.2719C12.1291 28.6492 10.7984 31.8736 10.7984 35.2357C10.7984 38.5978 12.1291 41.8221 14.4977 44.1995C16.8663 46.5768 20.0789 47.9124 23.4286 47.9124C23.9214 47.9112 24.4137 47.8821 24.9032 47.8251C23.8271 46.0141 22.6135 43.1506 22.3433 41.427C21.391 41.2598 20.5016 40.837 19.7695 40.2033C19.0374 39.5696 18.4899 38.7488 18.1851 37.828" fill="#DF7F1B"/>
<path d="M36.5809 35.2357C36.583 31.8901 35.3224 28.6679 33.0529 26.2176C30.7834 23.7673 27.6735 22.2707 24.3489 22.0291C21.0243 21.7874 17.7319 22.8186 15.1344 24.9152C12.5368 27.0118 10.8269 30.018 10.3487 33.329C9.87046 36.6399 10.6595 40.0098 12.557 42.7604C14.4545 45.5109 17.3196 47.4381 20.5757 48.1539C23.8318 48.8697 27.2371 48.3211 30.1064 46.6184C32.9758 44.9158 35.096 42.1855 36.0405 38.9771C36.3984 37.7624 36.5804 36.5024 36.5809 35.2357ZM23.447 47.9124C20.0972 47.9124 16.8847 46.5768 14.5161 44.1995C12.1475 41.8221 10.8168 38.5977 10.8168 35.2357C10.8168 31.8736 12.1475 28.6492 14.5161 26.2719C16.8847 23.8945 20.0972 22.5589 23.447 22.5589C24.178 22.5594 24.9075 22.6255 25.6268 22.7566C24.4453 24.5951 22.9295 27.4448 22.5586 29.0903C22.5586 29.0903 19.2796 29.55 18.1714 32.6387H20.9191V37.828H18.2263C18.5319 38.7492 19.0802 39.5701 19.8131 40.2038C20.546 40.8374 21.4362 41.2601 22.3891 41.427C22.6776 43.1506 23.8729 46.0233 24.9445 47.8251C24.455 47.8821 23.9627 47.9112 23.4699 47.9124M30.6139 45.6648V45.6096L30.5681 43.7711L30.4123 37.7958H26.5701C26.6049 38.2371 26.6645 38.676 26.7488 39.1104C27.1631 41.1678 27.9384 43.135 29.0385 44.9202C29.2171 45.2006 29.3911 45.4534 29.556 45.674C29.7208 45.8946 29.8033 45.9774 29.9178 46.1061C29.4144 46.4081 28.8911 46.6753 28.3516 46.9058C27.448 47.2874 26.5027 47.5605 25.5352 47.7194C21.9312 41.6614 21.3037 34.5186 23.1905 28.7042C23.9726 26.6431 24.9786 24.6748 26.1901 22.8347C26.9004 22.9923 27.596 23.2107 28.2692 23.4874L28.5623 23.6161L28.6081 23.6391C30.6516 24.5592 32.4148 26.0078 33.7173 27.8366C35.0197 29.6655 35.8145 31.8088 36.0205 34.0473C36.2264 36.2858 35.836 38.539 34.8892 40.5762C33.9425 42.6135 32.4733 44.3617 30.6321 45.6418" fill="white"/>
</g>
<defs>
<clipPath id="clip0_845_222">
<rect width="156" height="55" fill="white"/>
</clipPath>
</defs>
</svg>
