<svg width="156" height="55" viewBox="0 0 156 55" fill="none" xmlns="http://www.w3.org/2000/svg">
<g clip-path="url(#clip0_2_41)">
<path d="M48.2646 47.9963H52.3038V49.2097H49.5744V50.322H52.1526V51.5355H49.5744V52.7489H52.4549V53.9624H48.2646V47.9963Z" fill="white"/>
<path d="M53.6357 47.9963H54.9501V52.7489H57.3726V53.9624H53.6357V47.9963Z" fill="white"/>
<path d="M58.2295 47.9963H59.5392V52.7489H61.9664V53.9624H58.2295V47.9963Z" fill="white"/>
<path d="M64.0636 47.9963H62.7539V53.9624H64.0636V47.9963Z" fill="white"/>
<path d="M68.2764 49.4533C68.1637 49.3152 68.0145 49.2116 67.8459 49.1546C67.6801 49.0935 67.5052 49.0609 67.3285 49.0581C67.2299 49.0576 67.1316 49.0684 67.0354 49.0902C66.9366 49.1129 66.8412 49.1485 66.7515 49.196C66.6637 49.2394 66.5881 49.3041 66.5316 49.3844C66.4747 49.4699 66.4459 49.5712 66.4492 49.674C66.4444 49.7539 66.4605 49.8336 66.4958 49.9054C66.5311 49.9771 66.5845 50.0384 66.6507 50.083C66.8056 50.1902 66.9753 50.2738 67.1545 50.3313L67.8139 50.5335C68.0463 50.5961 68.2684 50.6921 68.4734 50.8185C68.6789 50.9421 68.853 51.112 68.9817 51.3149C69.1272 51.5686 69.1971 51.859 69.1832 52.1514C69.1912 52.4499 69.1284 52.7461 69 53.0155C68.8833 53.2568 68.7125 53.4677 68.5008 53.6314C68.283 53.8 68.0339 53.9235 67.7681 53.9945C67.4835 54.0747 67.1891 54.1149 66.8934 54.114C66.527 54.1177 66.1628 54.0571 65.8173 53.9348C65.477 53.8084 65.1655 53.6145 64.9014 53.3648L65.8173 52.3353C65.9505 52.5139 66.1249 52.6574 66.3256 52.7535C66.5226 52.8493 66.7386 52.8996 66.9575 52.9006C67.0672 52.9002 67.1764 52.8863 67.2827 52.8592C67.3857 52.8386 67.4847 52.8014 67.5758 52.7489C67.6593 52.7009 67.7312 52.635 67.7865 52.5559C67.8383 52.4717 67.8652 52.3745 67.8643 52.2755C67.8675 52.1934 67.8503 52.1118 67.8144 52.038C67.7784 51.9642 67.7248 51.9005 67.6582 51.8526C67.5022 51.7374 67.3291 51.6475 67.1453 51.586L66.4721 51.3654C66.2364 51.2957 66.0103 51.1969 65.7989 51.0713C65.593 50.9488 65.4163 50.7825 65.2814 50.584C65.1336 50.343 65.0633 50.0622 65.08 49.7797C65.0727 49.4881 65.1372 49.1992 65.2677 48.9385C65.3899 48.7021 65.5618 48.4951 65.7715 48.3318C65.9884 48.1662 66.2336 48.0416 66.495 47.9641C66.7706 47.8852 67.0557 47.845 67.3422 47.8446C67.6726 47.8426 68.0015 47.8906 68.3176 47.9871C68.63 48.0767 68.9191 48.2336 69.1648 48.4467L68.2764 49.4533Z" fill="white"/>
<path d="M77.2021 52.5559L78.5255 53.9624H76.909L76.4098 53.397C76.1887 53.6352 75.9183 53.8219 75.6176 53.944C75.3134 54.0596 74.9903 54.1173 74.665 54.114C74.4016 54.1149 74.1394 54.0778 73.8865 54.0037C73.6417 53.9353 73.4119 53.8215 73.2088 53.6682C72.9998 53.5144 72.8314 53.3118 72.7181 53.0779C72.6048 52.844 72.55 52.586 72.5585 52.3261C72.5572 52.1409 72.5897 51.957 72.6546 51.7837C72.7192 51.6167 72.8105 51.4615 72.9249 51.324C73.0395 51.183 73.1736 51.0592 73.3233 50.9563C73.4775 50.8539 73.6436 50.7705 73.8178 50.7081L73.5522 50.4048C73.4723 50.3108 73.4017 50.2092 73.3415 50.1014C73.2851 49.9948 73.2406 49.8823 73.2088 49.7659C73.1764 49.6367 73.1611 49.5038 73.163 49.3706C73.1554 49.1297 73.209 48.8909 73.3187 48.6765C73.4209 48.4935 73.5635 48.3363 73.7354 48.2169C73.9143 48.0884 74.1165 47.9963 74.3307 47.9457C74.5555 47.8905 74.7862 47.8627 75.0176 47.863C75.2389 47.8611 75.4594 47.8905 75.6725 47.9503C75.8712 48.0048 76.0577 48.0969 76.2221 48.2215C76.3837 48.3431 76.5152 48.5004 76.6067 48.6811C76.7049 48.8843 76.7536 49.108 76.7487 49.3338C76.7497 49.5036 76.7187 49.6721 76.6571 49.8302C76.6006 49.9829 76.5202 50.1257 76.419 50.2531C76.3195 50.3863 76.2024 50.5054 76.071 50.607C75.9399 50.7126 75.7987 50.805 75.6496 50.8828L76.4098 51.7009L76.9914 50.9104H78.4523L77.2021 52.5559ZM74.5964 51.416L74.3491 51.5722C74.2725 51.6242 74.2005 51.6826 74.1338 51.7469C74.0698 51.8128 74.0172 51.8889 73.9781 51.9721C73.9361 52.0643 73.9157 52.165 73.9186 52.2663C73.9164 52.3715 73.94 52.4757 73.9873 52.5697C74.0278 52.6581 74.0873 52.7366 74.1613 52.7995C74.2383 52.8621 74.3249 52.9118 74.4178 52.9466C74.5128 52.983 74.6136 53.0017 74.7154 53.0017C74.8932 53.005 75.0688 52.9606 75.2238 52.873C75.3752 52.7826 75.5178 52.6779 75.6496 52.5605L74.5964 51.416ZM74.9994 48.8558C74.8491 48.8516 74.703 48.906 74.5918 49.0075C74.5353 49.058 74.4908 49.1205 74.4615 49.1905C74.4322 49.2605 74.4188 49.3361 74.4223 49.412C74.4232 49.4853 74.4404 49.5576 74.4727 49.6234C74.5051 49.6959 74.5466 49.7639 74.5964 49.8256C74.6421 49.8919 74.6942 49.9535 74.7521 50.0095L74.9169 50.1612L75.1367 50.0233C75.2134 49.9698 75.2854 49.9098 75.3519 49.844C75.4185 49.7823 75.4756 49.7111 75.5214 49.6326C75.5657 49.5608 75.5895 49.4781 75.5901 49.3936C75.5944 49.3179 75.5809 49.2422 75.5507 49.1728C75.5204 49.1033 75.4743 49.0419 75.4161 48.9937C75.2976 48.9 75.1501 48.8511 74.9994 48.8558Z" fill="white"/>
<path d="M83.792 47.9963H84.8728L87.4602 53.9715H85.981L85.4681 52.7075H83.1784L82.6838 53.9715H81.2412L83.792 47.9963ZM84.2957 49.7291L83.5722 51.5676H85.0239L84.2957 49.7291Z" fill="white"/>
<path d="M91.0777 49.4533C90.9589 49.3093 90.7991 49.2051 90.6197 49.1546C90.4555 49.0931 90.282 49.0605 90.1068 49.058C90.0082 49.0576 89.9099 49.0684 89.8137 49.0902C89.7137 49.1137 89.6168 49.1492 89.5252 49.1959C89.4396 49.2408 89.3659 49.3053 89.31 49.3844C89.2493 49.4683 89.2186 49.5703 89.223 49.674C89.2182 49.7539 89.2343 49.8336 89.2696 49.9054C89.3049 49.9771 89.3583 50.0384 89.4245 50.083C89.5815 50.1893 89.7526 50.2728 89.9328 50.3312L90.5922 50.5335C90.824 50.5978 91.0459 50.6937 91.2517 50.8185C91.4572 50.9421 91.6313 51.112 91.76 51.3149C91.9055 51.5686 91.9754 51.859 91.9615 52.1514C91.9671 52.4497 91.9045 52.7454 91.7783 53.0155C91.6601 53.2559 91.4895 53.4664 91.2792 53.6314C91.0613 53.8 90.8123 53.9234 90.5464 53.9945C90.2602 54.0747 89.9643 54.1149 89.6672 54.114C89.3023 54.1174 88.9397 54.0567 88.5956 53.9348C88.2553 53.8083 87.9438 53.6145 87.6797 53.3648L88.5956 52.3353C88.7288 52.5139 88.9032 52.6574 89.1039 52.7535C89.3008 52.8498 89.5169 52.9001 89.7359 52.9006C89.844 52.9004 89.9517 52.8865 90.0564 52.8592C90.1608 52.8386 90.2613 52.8013 90.3541 52.7489C90.4372 52.7021 90.5079 52.6359 90.5602 52.5559C90.6154 52.473 90.6441 52.3752 90.6426 52.2755C90.6458 52.1934 90.6286 52.1118 90.5927 52.038C90.5567 51.9642 90.5031 51.9005 90.4365 51.8526C90.2788 51.7375 90.1042 51.6475 89.9191 51.586C89.713 51.5125 89.4886 51.439 89.2505 51.3654C89.0148 51.2957 88.7886 51.1969 88.5772 51.0713C88.3713 50.9488 88.1946 50.7825 88.0598 50.584C87.9103 50.3435 87.8384 50.0627 87.8537 49.7797C87.8479 49.4877 87.914 49.1988 88.0461 48.9385C88.1682 48.7021 88.3401 48.4951 88.5498 48.3318C88.7662 48.1653 89.0115 48.0406 89.2733 47.9641C89.5489 47.8852 89.834 47.845 90.1205 47.8446C90.4509 47.8429 90.7797 47.891 91.096 47.9871C91.4076 48.0783 91.6965 48.235 91.9432 48.4467L91.0777 49.4533Z" fill="white"/>
<path d="M95.9827 49.4533C95.862 49.3114 95.7029 49.2076 95.5247 49.1546C95.3589 49.0931 95.1839 49.0605 95.0072 49.058C94.9086 49.0578 94.8103 49.0686 94.7141 49.0902C94.6153 49.1129 94.5199 49.1485 94.4302 49.1959C94.3424 49.2393 94.2668 49.3041 94.2104 49.3844C94.1534 49.4699 94.1246 49.5711 94.1279 49.6739C94.1231 49.7538 94.1392 49.8336 94.1746 49.9054C94.2099 49.9771 94.2633 50.0383 94.3295 50.083C94.4855 50.191 94.6568 50.2747 94.8378 50.3312L95.4972 50.5335C95.729 50.5978 95.9509 50.6937 96.1567 50.8184C96.3603 50.9446 96.5338 51.114 96.665 51.3148C96.8087 51.5692 96.877 51.8594 96.8619 52.1514C96.87 52.4499 96.8072 52.7461 96.6787 53.0155C96.5621 53.2568 96.3912 53.4676 96.1796 53.6314C95.9629 53.7992 95.7155 53.9225 95.4514 53.9945C95.1651 54.0744 94.8693 54.1146 94.5722 54.114C94.2058 54.1173 93.8416 54.0567 93.496 53.9348C93.155 53.8098 92.8432 53.6158 92.5801 53.3648L93.496 52.3352C93.6312 52.5119 93.8052 52.6551 94.0043 52.7535C94.2016 52.8487 94.4174 52.899 94.6363 52.9006C94.7459 52.9004 94.8552 52.8865 94.9614 52.8592C95.0644 52.8386 95.1634 52.8013 95.2545 52.7489C95.339 52.7022 95.4112 52.636 95.4652 52.5559C95.5203 52.473 95.5491 52.3752 95.5476 52.2755C95.5508 52.1934 95.5337 52.1118 95.4977 52.038C95.4617 51.9642 95.4081 51.9005 95.3415 51.8526C95.1838 51.7374 95.0092 51.6475 94.824 51.586C94.6164 51.5125 94.3921 51.439 94.1509 51.3654C93.9296 51.2921 93.7175 51.1934 93.5189 51.0712C93.312 50.9501 93.1351 50.7835 93.0014 50.584C92.852 50.3435 92.7801 50.0627 92.7954 49.7797C92.7906 49.4883 92.855 49.2 92.9831 48.9385C93.1068 48.7031 93.2784 48.4964 93.4869 48.3318C93.7057 48.1665 93.9523 48.042 94.215 47.9641C94.4905 47.8849 94.7756 47.8447 95.0622 47.8446C95.3926 47.8433 95.7213 47.8913 96.0376 47.9871C96.3493 48.0783 96.6381 48.235 96.8848 48.4467L95.9827 49.4533Z" fill="white"/>
<path d="M97.6401 50.9793C97.6333 50.5342 97.7142 50.0922 97.8782 49.6786C98.028 49.3049 98.256 48.9679 98.5468 48.6903C98.8384 48.4129 99.1847 48.1999 99.5634 48.0652C100.393 47.7712 101.298 47.7712 102.128 48.0652C102.507 48.1999 102.853 48.4129 103.145 48.6903C103.435 48.9679 103.663 49.3049 103.813 49.6786C103.977 50.0922 104.058 50.5342 104.051 50.9793C104.059 51.423 103.978 51.8636 103.813 52.2755C103.663 52.6491 103.435 52.9861 103.145 53.2637C102.853 53.5426 102.507 53.7571 102.128 53.8934C101.298 54.1875 100.393 54.1875 99.5634 53.8934C99.1844 53.7571 98.8381 53.5426 98.5468 53.2637C98.256 52.9861 98.028 52.6491 97.8782 52.2755C97.7139 51.8636 97.6329 51.423 97.6401 50.9793ZM99.0139 50.9793C99.0103 51.2423 99.0537 51.5039 99.1422 51.7515C99.2247 51.976 99.3525 52.181 99.5177 52.3536C99.6807 52.5284 99.879 52.6662 100.099 52.7581C100.588 52.9481 101.131 52.9481 101.62 52.7581C101.84 52.6662 102.038 52.5284 102.201 52.3536C102.366 52.181 102.494 51.976 102.577 51.7515C102.748 51.2526 102.748 50.7106 102.577 50.2117C102.496 49.9854 102.37 49.7785 102.205 49.6043C102.04 49.4302 101.841 49.2926 101.62 49.2005C101.131 49.0106 100.588 49.0106 100.099 49.2005C99.8782 49.2926 99.6788 49.4302 99.5139 49.6043C99.3491 49.7785 99.2224 49.9854 99.1422 50.2117C99.0541 50.4578 99.0106 50.7178 99.0139 50.9793Z" fill="white"/>
<path d="M108.901 49.5453C108.777 49.3917 108.621 49.2677 108.443 49.1822C108.232 49.0943 108.005 49.049 107.777 49.049C107.548 49.049 107.322 49.0943 107.11 49.1822C106.903 49.2758 106.717 49.412 106.565 49.582C106.406 49.7602 106.283 49.9679 106.204 50.1933C106.027 50.6913 106.027 51.2351 106.204 51.7331C106.286 51.955 106.407 52.1604 106.561 52.3399C106.702 52.5117 106.878 52.6513 107.077 52.7496C107.276 52.8479 107.493 52.9025 107.715 52.9098C107.957 52.9171 108.197 52.8617 108.412 52.749C108.627 52.6363 108.81 52.4701 108.942 52.2663L110.032 53.0845C109.791 53.4296 109.46 53.7015 109.075 53.8704C108.699 54.0353 108.294 54.1214 107.884 54.1232C107.446 54.1276 107.01 54.0529 106.598 53.9026C106.221 53.7639 105.875 53.5515 105.581 53.2775C105.292 52.9972 105.066 52.6588 104.917 52.2847C104.751 51.8731 104.668 51.4325 104.674 50.9885C104.669 50.5431 104.751 50.101 104.917 49.6877C105.065 49.3144 105.291 48.9774 105.581 48.6995C105.874 48.424 106.22 48.2113 106.598 48.0744C107.01 47.9242 107.446 47.8494 107.884 47.8538C108.059 47.8539 108.234 47.8693 108.406 47.8998C108.589 47.9305 108.769 47.9798 108.942 48.0469C109.122 48.1152 109.293 48.2063 109.451 48.318C109.624 48.4293 109.778 48.5673 109.908 48.7271L108.901 49.5453Z" fill="white"/>
<path d="M112.144 47.9963H110.834V53.9624H112.144V47.9963Z" fill="white"/>
<path d="M115.372 47.9963H116.457L119.04 53.9715H117.561L117.053 52.7075H114.74L114.245 53.9715H112.803L115.372 47.9963ZM115.876 49.7291L115.152 51.5676H116.608L115.876 49.7291Z" fill="white"/>
<path d="M120.098 49.1592H118.403V47.9963H123.106V49.1592H121.412V53.9624H120.098V49.1592Z" fill="white"/>
<path d="M123.903 47.9963H127.942V49.2097H125.213V50.322H127.791V51.5355H125.213V52.7489H128.094V53.9624H123.903V47.9963Z" fill="white"/>
<path d="M132.16 49.4533C132.049 49.3138 131.899 49.21 131.73 49.1546C131.564 49.0931 131.389 49.0605 131.212 49.058C131.114 49.0576 131.015 49.0684 130.919 49.0902C130.82 49.1129 130.725 49.1485 130.635 49.1959C130.547 49.2394 130.472 49.3041 130.415 49.3844C130.358 49.4699 130.33 49.5712 130.333 49.674C130.328 49.7538 130.344 49.8336 130.38 49.9054C130.415 49.9771 130.468 50.0384 130.534 50.083C130.69 50.191 130.862 50.2747 131.043 50.3312L131.698 50.5335C131.93 50.5961 132.152 50.6921 132.357 50.8185C132.563 50.9421 132.737 51.112 132.865 51.3149C133.013 51.5678 133.083 51.8588 133.067 52.1514C133.075 52.4499 133.012 52.7461 132.884 53.0155C132.767 53.2568 132.596 53.4677 132.385 53.6314C132.167 53.8 131.918 53.9234 131.652 53.9945C131.367 54.0747 131.073 54.1149 130.777 54.114C130.411 54.1174 130.047 54.0567 129.701 53.9348C129.36 53.8099 129.048 53.6158 128.785 53.3648L129.701 52.3352C129.834 52.5139 130.009 52.6574 130.209 52.7535C130.407 52.8487 130.622 52.899 130.841 52.9006C130.951 52.9004 131.06 52.8865 131.166 52.8592C131.269 52.8386 131.368 52.8014 131.46 52.7489C131.543 52.7009 131.615 52.635 131.67 52.5559C131.722 52.4717 131.749 52.3745 131.748 52.2755C131.751 52.1934 131.734 52.1118 131.698 52.038C131.662 51.9642 131.609 51.9005 131.542 51.8526C131.386 51.7374 131.213 51.6475 131.029 51.586C130.818 51.5125 130.599 51.439 130.356 51.3654C130.125 51.2938 129.904 51.1951 129.696 51.0713C129.492 50.9486 129.317 50.7823 129.184 50.584C129.034 50.3435 128.962 50.0627 128.978 49.7797C128.97 49.5005 129.028 49.2236 129.149 48.9718C129.269 48.72 129.447 48.5006 129.669 48.3318C129.888 48.1665 130.134 48.042 130.397 47.9641C130.673 47.8846 130.958 47.8444 131.244 47.8446C131.573 47.843 131.901 47.891 132.215 47.9871C132.529 48.0766 132.82 48.2335 133.067 48.4467L132.16 49.4533Z" fill="white"/>
<path d="M134.29 52.5972H135.494L134.739 54.9735H133.667L134.29 52.5972Z" fill="white"/>
<path d="M140.56 47.9963H139.25V53.9624H140.56V47.9963Z" fill="white"/>
<path d="M141.832 47.9963H143.613L146.141 52.1422H146.155V47.9963H147.465V53.9624H145.752L143.16 49.7153H143.142V53.9624H141.832V47.9963Z" fill="white"/>
<path d="M152.645 49.5453C152.52 49.3927 152.364 49.2689 152.187 49.1821C151.981 49.0962 151.759 49.0539 151.537 49.058C151.304 49.0547 151.074 49.1014 150.862 49.1949C150.649 49.2885 150.459 49.4268 150.305 49.6004C150.146 49.7786 150.023 49.9863 149.943 50.2117C149.772 50.7106 149.772 51.2526 149.943 51.7515C150.025 51.9734 150.146 52.1788 150.3 52.3582C150.449 52.5258 150.629 52.6618 150.831 52.7581C151.039 52.8519 151.263 52.9005 151.491 52.9006C151.739 52.9065 151.986 52.8479 152.205 52.7305C152.411 52.6223 152.588 52.4643 152.718 52.2709L153.808 53.0891C153.567 53.4342 153.236 53.7061 152.851 53.875C152.475 54.0399 152.07 54.126 151.66 54.1278C151.222 54.1322 150.786 54.0575 150.373 53.9072C149.997 53.7696 149.653 53.5569 149.361 53.2821C149.071 53.002 148.844 52.6637 148.693 52.2893C148.528 51.8774 148.447 51.4367 148.455 50.9931C148.448 50.548 148.529 50.1059 148.693 49.6923C148.842 49.3187 149.07 48.9817 149.361 48.7041C149.652 48.4277 149.997 48.2149 150.373 48.079C150.786 47.9287 151.222 47.854 151.66 47.8584C151.837 47.8583 152.013 47.8737 152.187 47.9043C152.37 47.9362 152.549 47.9854 152.723 48.0514C152.902 48.1217 153.073 48.2127 153.231 48.3226C153.403 48.4349 153.558 48.5728 153.689 48.7317L152.645 49.5453Z" fill="white"/>
<path d="M57.1897 8.64688L55.4449 4.13786C55.3755 3.95766 55.2714 3.79295 55.1385 3.65314C55.0056 3.51334 54.8466 3.40119 54.6705 3.32308C54.4945 3.24496 54.3049 3.20243 54.1124 3.19791C53.92 3.19339 53.7285 3.22696 53.549 3.29672L16.9131 17.5914C13.8998 18.6991 10.4148 21.7925 8.67006 24.1274C7.07511 26.2458 5.90408 28.6542 5.2217 31.2196C4.5073 34.0142 4.87366 38.4129 4.99273 38.3164C5.11406 39.2601 5.30852 40.1929 5.57433 41.1063C5.34388 41.0716 5.11127 41.0532 4.87824 41.0512C4.00046 41.0502 3.13874 41.2871 2.38407 41.7371C1.6294 42.1871 1.00981 42.8333 0.590848 43.6075C0.171881 44.3816 -0.0309362 45.255 0.00382246 46.1354C0.0385811 47.0157 0.309657 47.8702 0.788349 48.6087C1.26704 49.3472 1.93561 49.9422 2.72339 50.3308C3.51117 50.7194 4.3889 50.8872 5.26385 50.8164C6.1388 50.7457 6.97843 50.439 7.69407 49.9289C8.40972 49.4187 8.9748 48.724 9.32954 47.9181C11.8349 50.6242 15.074 52.5359 18.6481 53.418C22.2222 54.3 25.9752 54.1138 29.4452 52.8824C32.9152 51.651 35.9507 49.428 38.178 46.4872C40.4054 43.5464 41.7273 40.016 41.9812 36.3307C42.0982 34.3755 41.9112 32.4139 41.4271 30.5163C41.0328 28.9884 41.0722 27.3802 41.5408 25.8735C42.0093 24.3668 42.8884 23.0217 44.0786 21.9901L56.5577 11.2116C56.9139 10.9019 57.1662 10.4893 57.2801 10.0303C57.394 9.57128 57.3641 9.08817 57.1943 8.64688M4.87824 48.3778C4.39691 48.3787 3.92618 48.2362 3.52558 47.9684C3.12499 47.7005 2.81259 47.3194 2.62797 46.8732C2.44335 46.4271 2.39481 45.936 2.48849 45.4621C2.58217 44.9882 2.81387 44.5529 3.15423 44.2113C3.49458 43.8697 3.92826 43.6372 4.40039 43.5431C4.87252 43.4491 5.36186 43.4978 5.80638 43.6831C6.2509 43.8684 6.63062 44.182 6.89747 44.584C7.16432 44.9861 7.30629 45.4586 7.30539 45.9417C7.30418 46.5874 7.04805 47.2063 6.59314 47.6629C6.13823 48.1195 5.52158 48.3766 4.87824 48.3778Z" fill="white"/>
<path d="M18.1591 14.9761C17.9381 14.9762 17.7214 14.9149 17.533 14.7989C17.3447 14.6828 17.192 14.5166 17.0921 14.3188L10.7725 1.89023C10.6279 1.60559 10.602 1.27498 10.7003 0.971127C10.7986 0.667277 11.0132 0.415081 11.2968 0.270017C11.5804 0.124952 11.9098 0.0988984 12.2125 0.197596C12.5152 0.296293 12.7665 0.511651 12.9111 0.796295L19.2262 13.234C19.2982 13.3749 19.3419 13.5287 19.3546 13.6866C19.3674 13.8444 19.349 14.0033 19.3005 14.154C19.252 14.3047 19.1743 14.4443 19.072 14.5649C18.9697 14.6855 18.8447 14.7846 18.7041 14.8565C18.5349 14.9413 18.3483 14.9854 18.1591 14.9852" fill="white"/>
<path d="M14.3857 16.7549C14.1459 16.7545 13.9116 16.6825 13.7126 16.548L4.39334 10.2096C4.25463 10.1247 4.13454 10.0124 4.04038 9.8795C3.94621 9.74659 3.87995 9.59587 3.84556 9.43648C3.81117 9.2771 3.80936 9.11237 3.8403 8.95227C3.87125 8.79217 3.93429 8.64005 4.02556 8.50513C4.11683 8.37021 4.23447 8.25531 4.37132 8.16738C4.50816 8.07945 4.66137 8.02034 4.82166 7.99363C4.98195 7.96691 5.14595 7.97314 5.30376 8.01196C5.46157 8.05077 5.60986 8.12135 5.73968 8.21942L15.059 14.5532C15.2717 14.6977 15.4326 14.9069 15.5181 15.15C15.6035 15.3932 15.609 15.6574 15.5336 15.9039C15.4583 16.1504 15.3061 16.3661 15.0994 16.5193C14.8928 16.6725 14.6426 16.755 14.3857 16.7549Z" fill="white"/>
<path d="M22.2576 13.5742C22.2027 13.5787 22.1476 13.5787 22.0927 13.5742C21.9362 13.5539 21.7852 13.5025 21.6486 13.4231C21.512 13.3437 21.3925 13.2378 21.2971 13.1117C21.2016 12.9855 21.1321 12.8415 21.0926 12.6882C21.0531 12.5348 21.0444 12.375 21.0669 12.2182L22.601 1.02611C22.6478 0.712431 22.8159 0.429922 23.069 0.239942C23.322 0.0499609 23.6395 -0.0321548 23.9525 0.0114282C24.2655 0.0550112 24.5488 0.220776 24.7407 0.472719C24.9327 0.724662 25.0178 1.04244 24.9778 1.35705L23.4528 12.5354C23.4131 12.823 23.2712 13.0864 23.0532 13.2773C22.8353 13.4682 22.556 13.5736 22.2667 13.5742" fill="white"/>
<mask id="path-25-inside-1_2_41" fill="white">
<path d="M23.4803 20.841C23.2788 20.841 23.0819 20.841 22.8849 20.841C19.2041 20.9418 15.7087 22.4843 13.1463 25.1386C10.584 27.7928 9.15823 31.348 9.17396 35.0438C9.17438 35.5596 9.20192 36.0751 9.25641 36.5881C9.52946 39.3525 10.596 41.9779 12.3268 44.1457C14.0575 46.3135 16.3779 47.9305 19.0064 48.8005C21.6349 49.6704 24.4585 49.7559 27.1344 49.0466C29.8104 48.3373 32.2238 46.8636 34.0815 44.8045C35.9393 42.7454 37.1617 40.1893 37.6003 37.4465C38.0389 34.7036 37.6749 31.892 36.5524 29.3528C35.4299 26.8136 33.5972 24.6559 31.2768 23.1418C28.9564 21.6276 26.248 20.8219 23.4803 20.8226"/>
</mask>
<path d="M23.4803 20.841C23.2788 20.841 23.0819 20.841 22.8849 20.841C19.2041 20.9418 15.7087 22.4843 13.1463 25.1386C10.584 27.7928 9.15823 31.348 9.17396 35.0438C9.17438 35.5596 9.20192 36.0751 9.25641 36.5881C9.52946 39.3525 10.596 41.9779 12.3268 44.1457C14.0575 46.3135 16.3779 47.9305 19.0064 48.8005C21.6349 49.6704 24.4585 49.7559 27.1344 49.0466C29.8104 48.3373 32.2238 46.8636 34.0815 44.8045C35.9393 42.7454 37.1617 40.1893 37.6003 37.4465C38.0389 34.7036 37.6749 31.892 36.5524 29.3528C35.4299 26.8136 33.5972 24.6559 31.2768 23.1418C28.9564 21.6276 26.248 20.8219 23.4803 20.8226" fill="white"/>
<path d="M22.8849 20.841V19.841H22.8712L22.8575 19.8414L22.8849 20.841ZM13.1463 25.1386L12.4268 24.4441L12.4268 24.4441L13.1463 25.1386ZM9.17396 35.0438L10.174 35.043L10.1739 35.0395L9.17396 35.0438ZM9.25641 36.5881L10.2516 36.4898L10.2508 36.4825L9.25641 36.5881ZM12.3268 44.1457L13.1083 43.5218L13.1083 43.5218L12.3268 44.1457ZM19.0064 48.8005L18.6922 49.7499L18.6922 49.7499L19.0064 48.8005ZM27.1344 49.0466L26.8782 48.08L26.8782 48.08L27.1344 49.0466ZM34.0815 44.8045L33.339 44.1346L33.339 44.1346L34.0815 44.8045ZM37.6003 37.4465L38.5878 37.6044L38.5878 37.6044L37.6003 37.4465ZM31.2768 23.1418L30.7303 23.9793L30.7303 23.9793L31.2768 23.1418ZM23.4803 19.841C23.4799 19.841 23.4795 19.841 23.4791 19.841C23.4787 19.841 23.4783 19.841 23.4779 19.841C23.4775 19.841 23.4771 19.841 23.4768 19.841C23.4764 19.841 23.476 19.841 23.4756 19.841C23.4752 19.841 23.4748 19.841 23.4744 19.841C23.474 19.841 23.4736 19.841 23.4732 19.841C23.4728 19.841 23.4724 19.841 23.472 19.841C23.4716 19.841 23.4712 19.841 23.4709 19.841C23.4705 19.841 23.4701 19.841 23.4697 19.841C23.4693 19.841 23.4689 19.841 23.4685 19.841C23.4681 19.841 23.4677 19.841 23.4673 19.841C23.4669 19.841 23.4665 19.841 23.4661 19.841C23.4657 19.841 23.4654 19.841 23.465 19.841C23.4646 19.841 23.4642 19.841 23.4638 19.841C23.4634 19.841 23.463 19.841 23.4626 19.841C23.4622 19.841 23.4618 19.841 23.4614 19.841C23.461 19.841 23.4606 19.841 23.4602 19.841C23.4598 19.841 23.4595 19.841 23.4591 19.841C23.4587 19.841 23.4583 19.841 23.4579 19.841C23.4575 19.841 23.4571 19.841 23.4567 19.841C23.4563 19.841 23.4559 19.841 23.4555 19.841C23.4551 19.841 23.4547 19.841 23.4543 19.841C23.454 19.841 23.4536 19.841 23.4532 19.841C23.4528 19.841 23.4524 19.841 23.452 19.841C23.4516 19.841 23.4512 19.841 23.4508 19.841C23.4504 19.841 23.45 19.841 23.4496 19.841C23.4492 19.841 23.4489 19.841 23.4485 19.841C23.4481 19.841 23.4477 19.841 23.4473 19.841C23.4469 19.841 23.4465 19.841 23.4461 19.841C23.4457 19.841 23.4453 19.841 23.4449 19.841C23.4445 19.841 23.4441 19.841 23.4437 19.841C23.4434 19.841 23.443 19.841 23.4426 19.841C23.4422 19.841 23.4418 19.841 23.4414 19.841C23.441 19.841 23.4406 19.841 23.4402 19.841C23.4398 19.841 23.4394 19.841 23.439 19.841C23.4386 19.841 23.4383 19.841 23.4379 19.841C23.4375 19.841 23.4371 19.841 23.4367 19.841C23.4363 19.841 23.4359 19.841 23.4355 19.841C23.4351 19.841 23.4347 19.841 23.4343 19.841C23.4339 19.841 23.4335 19.841 23.4332 19.841C23.4328 19.841 23.4324 19.841 23.432 19.841C23.4316 19.841 23.4312 19.841 23.4308 19.841C23.4304 19.841 23.43 19.841 23.4296 19.841C23.4292 19.841 23.4288 19.841 23.4284 19.841C23.4281 19.841 23.4277 19.841 23.4273 19.841C23.4269 19.841 23.4265 19.841 23.4261 19.841C23.4257 19.841 23.4253 19.841 23.4249 19.841C23.4245 19.841 23.4241 19.841 23.4237 19.841C23.4234 19.841 23.423 19.841 23.4226 19.841C23.4222 19.841 23.4218 19.841 23.4214 19.841C23.421 19.841 23.4206 19.841 23.4202 19.841C23.4198 19.841 23.4194 19.841 23.419 19.841C23.4186 19.841 23.4183 19.841 23.4179 19.841C23.4175 19.841 23.4171 19.841 23.4167 19.841C23.4163 19.841 23.4159 19.841 23.4155 19.841C23.4151 19.841 23.4147 19.841 23.4143 19.841C23.4139 19.841 23.4136 19.841 23.4132 19.841C23.4128 19.841 23.4124 19.841 23.412 19.841C23.4116 19.841 23.4112 19.841 23.4108 19.841C23.4104 19.841 23.41 19.841 23.4096 19.841C23.4092 19.841 23.4089 19.841 23.4085 19.841C23.4081 19.841 23.4077 19.841 23.4073 19.841C23.4069 19.841 23.4065 19.841 23.4061 19.841C23.4057 19.841 23.4053 19.841 23.4049 19.841C23.4046 19.841 23.4042 19.841 23.4038 19.841C23.4034 19.841 23.403 19.841 23.4026 19.841C23.4022 19.841 23.4018 19.841 23.4014 19.841C23.401 19.841 23.4006 19.841 23.4002 19.841C23.3999 19.841 23.3995 19.841 23.3991 19.841C23.3987 19.841 23.3983 19.841 23.3979 19.841C23.3975 19.841 23.3971 19.841 23.3967 19.841C23.3963 19.841 23.3959 19.841 23.3955 19.841C23.3952 19.841 23.3948 19.841 23.3944 19.841C23.394 19.841 23.3936 19.841 23.3932 19.841C23.3928 19.841 23.3924 19.841 23.392 19.841C23.3916 19.841 23.3912 19.841 23.3909 19.841C23.3905 19.841 23.3901 19.841 23.3897 19.841C23.3893 19.841 23.3889 19.841 23.3885 19.841C23.3881 19.841 23.3877 19.841 23.3873 19.841C23.3869 19.841 23.3866 19.841 23.3862 19.841C23.3858 19.841 23.3854 19.841 23.385 19.841C23.3846 19.841 23.3842 19.841 23.3838 19.841C23.3834 19.841 23.383 19.841 23.3826 19.841C23.3823 19.841 23.3819 19.841 23.3815 19.841C23.3811 19.841 23.3807 19.841 23.3803 19.841C23.3799 19.841 23.3795 19.841 23.3791 19.841C23.3787 19.841 23.3783 19.841 23.378 19.841C23.3776 19.841 23.3772 19.841 23.3768 19.841C23.3764 19.841 23.376 19.841 23.3756 19.841C23.3752 19.841 23.3748 19.841 23.3744 19.841C23.374 19.841 23.3737 19.841 23.3733 19.841C23.3729 19.841 23.3725 19.841 23.3721 19.841C23.3717 19.841 23.3713 19.841 23.3709 19.841C23.3705 19.841 23.3701 19.841 23.3698 19.841C23.3694 19.841 23.369 19.841 23.3686 19.841C23.3682 19.841 23.3678 19.841 23.3674 19.841C23.367 19.841 23.3666 19.841 23.3662 19.841C23.3658 19.841 23.3655 19.841 23.3651 19.841C23.3647 19.841 23.3643 19.841 23.3639 19.841C23.3635 19.841 23.3631 19.841 23.3627 19.841C23.3623 19.841 23.3619 19.841 23.3616 19.841C23.3612 19.841 23.3608 19.841 23.3604 19.841C23.36 19.841 23.3596 19.841 23.3592 19.841C23.3588 19.841 23.3584 19.841 23.358 19.841C23.3576 19.841 23.3573 19.841 23.3569 19.841C23.3565 19.841 23.3561 19.841 23.3557 19.841C23.3553 19.841 23.3549 19.841 23.3545 19.841C23.3541 19.841 23.3537 19.841 23.3534 19.841C23.353 19.841 23.3526 19.841 23.3522 19.841C23.3518 19.841 23.3514 19.841 23.351 19.841C23.3506 19.841 23.3502 19.841 23.3498 19.841C23.3495 19.841 23.3491 19.841 23.3487 19.841C23.3483 19.841 23.3479 19.841 23.3475 19.841C23.3471 19.841 23.3467 19.841 23.3463 19.841C23.3459 19.841 23.3456 19.841 23.3452 19.841C23.3448 19.841 23.3444 19.841 23.344 19.841C23.3436 19.841 23.3432 19.841 23.3428 19.841C23.3424 19.841 23.342 19.841 23.3417 19.841C23.3413 19.841 23.3409 19.841 23.3405 19.841C23.3401 19.841 23.3397 19.841 23.3393 19.841C23.3389 19.841 23.3385 19.841 23.3381 19.841C23.3378 19.841 23.3374 19.841 23.337 19.841C23.3366 19.841 23.3362 19.841 23.3358 19.841C23.3354 19.841 23.335 19.841 23.3346 19.841C23.3342 19.841 23.3339 19.841 23.3335 19.841C23.3331 19.841 23.3327 19.841 23.3323 19.841C23.3319 19.841 23.3315 19.841 23.3311 19.841C23.3307 19.841 23.3304 19.841 23.33 19.841C23.3296 19.841 23.3292 19.841 23.3288 19.841C23.3284 19.841 23.328 19.841 23.3276 19.841C23.3272 19.841 23.3268 19.841 23.3265 19.841C23.3261 19.841 23.3257 19.841 23.3253 19.841C23.3249 19.841 23.3245 19.841 23.3241 19.841C23.3237 19.841 23.3233 19.841 23.3229 19.841C23.3226 19.841 23.3222 19.841 23.3218 19.841C23.3214 19.841 23.321 19.841 23.3206 19.841C23.3202 19.841 23.3198 19.841 23.3194 19.841C23.3191 19.841 23.3187 19.841 23.3183 19.841C23.3179 19.841 23.3175 19.841 23.3171 19.841C23.3167 19.841 23.3163 19.841 23.3159 19.841C23.3156 19.841 23.3152 19.841 23.3148 19.841C23.3144 19.841 23.314 19.841 23.3136 19.841C23.3132 19.841 23.3128 19.841 23.3124 19.841C23.312 19.841 23.3117 19.841 23.3113 19.841C23.3109 19.841 23.3105 19.841 23.3101 19.841C23.3097 19.841 23.3093 19.841 23.3089 19.841C23.3085 19.841 23.3082 19.841 23.3078 19.841C23.3074 19.841 23.307 19.841 23.3066 19.841C23.3062 19.841 23.3058 19.841 23.3054 19.841C23.305 19.841 23.3047 19.841 23.3043 19.841C23.3039 19.841 23.3035 19.841 23.3031 19.841C23.3027 19.841 23.3023 19.841 23.3019 19.841C23.3015 19.841 23.3012 19.841 23.3008 19.841C23.3004 19.841 23.3 19.841 23.2996 19.841C23.2992 19.841 23.2988 19.841 23.2984 19.841C23.298 19.841 23.2977 19.841 23.2973 19.841C23.2969 19.841 23.2965 19.841 23.2961 19.841C23.2957 19.841 23.2953 19.841 23.2949 19.841C23.2945 19.841 23.2942 19.841 23.2938 19.841C23.2934 19.841 23.293 19.841 23.2926 19.841C23.2922 19.841 23.2918 19.841 23.2914 19.841C23.291 19.841 23.2907 19.841 23.2903 19.841C23.2899 19.841 23.2895 19.841 23.2891 19.841C23.2887 19.841 23.2883 19.841 23.2879 19.841C23.2875 19.841 23.2872 19.841 23.2868 19.841C23.2864 19.841 23.286 19.841 23.2856 19.841C23.2852 19.841 23.2848 19.841 23.2844 19.841C23.284 19.841 23.2837 19.841 23.2833 19.841C23.2829 19.841 23.2825 19.841 23.2821 19.841C23.2817 19.841 23.2813 19.841 23.2809 19.841C23.2805 19.841 23.2802 19.841 23.2798 19.841C23.2794 19.841 23.279 19.841 23.2786 19.841C23.2782 19.841 23.2778 19.841 23.2774 19.841C23.277 19.841 23.2767 19.841 23.2763 19.841C23.2759 19.841 23.2755 19.841 23.2751 19.841C23.2747 19.841 23.2743 19.841 23.2739 19.841C23.2736 19.841 23.2732 19.841 23.2728 19.841C23.2724 19.841 23.272 19.841 23.2716 19.841C23.2712 19.841 23.2708 19.841 23.2704 19.841C23.2701 19.841 23.2697 19.841 23.2693 19.841C23.2689 19.841 23.2685 19.841 23.2681 19.841C23.2677 19.841 23.2673 19.841 23.2669 19.841C23.2666 19.841 23.2662 19.841 23.2658 19.841C23.2654 19.841 23.265 19.841 23.2646 19.841C23.2642 19.841 23.2638 19.841 23.2635 19.841C23.2631 19.841 23.2627 19.841 23.2623 19.841C23.2619 19.841 23.2615 19.841 23.2611 19.841C23.2607 19.841 23.2603 19.841 23.26 19.841C23.2596 19.841 23.2592 19.841 23.2588 19.841C23.2584 19.841 23.258 19.841 23.2576 19.841C23.2572 19.841 23.2569 19.841 23.2565 19.841C23.2561 19.841 23.2557 19.841 23.2553 19.841C23.2549 19.841 23.2545 19.841 23.2541 19.841C23.2538 19.841 23.2534 19.841 23.253 19.841C23.2526 19.841 23.2522 19.841 23.2518 19.841C23.2514 19.841 23.251 19.841 23.2506 19.841C23.2503 19.841 23.2499 19.841 23.2495 19.841C23.2491 19.841 23.2487 19.841 23.2483 19.841C23.2479 19.841 23.2475 19.841 23.2472 19.841C23.2468 19.841 23.2464 19.841 23.246 19.841C23.2456 19.841 23.2452 19.841 23.2448 19.841C23.2444 19.841 23.2441 19.841 23.2437 19.841C23.2433 19.841 23.2429 19.841 23.2425 19.841C23.2421 19.841 23.2417 19.841 23.2413 19.841C23.2409 19.841 23.2406 19.841 23.2402 19.841C23.2398 19.841 23.2394 19.841 23.239 19.841C23.2386 19.841 23.2382 19.841 23.2378 19.841C23.2375 19.841 23.2371 19.841 23.2367 19.841C23.2363 19.841 23.2359 19.841 23.2355 19.841C23.2351 19.841 23.2347 19.841 23.2344 19.841C23.234 19.841 23.2336 19.841 23.2332 19.841C23.2328 19.841 23.2324 19.841 23.232 19.841C23.2316 19.841 23.2313 19.841 23.2309 19.841C23.2305 19.841 23.2301 19.841 23.2297 19.841C23.2293 19.841 23.2289 19.841 23.2285 19.841C23.2282 19.841 23.2278 19.841 23.2274 19.841C23.227 19.841 23.2266 19.841 23.2262 19.841C23.2258 19.841 23.2254 19.841 23.2251 19.841C23.2247 19.841 23.2243 19.841 23.2239 19.841C23.2235 19.841 23.2231 19.841 23.2227 19.841C23.2223 19.841 23.222 19.841 23.2216 19.841C23.2212 19.841 23.2208 19.841 23.2204 19.841C23.22 19.841 23.2196 19.841 23.2192 19.841C23.2189 19.841 23.2185 19.841 23.2181 19.841C23.2177 19.841 23.2173 19.841 23.2169 19.841C23.2165 19.841 23.2161 19.841 23.2158 19.841C23.2154 19.841 23.215 19.841 23.2146 19.841C23.2142 19.841 23.2138 19.841 23.2134 19.841C23.213 19.841 23.2127 19.841 23.2123 19.841C23.2119 19.841 23.2115 19.841 23.2111 19.841C23.2107 19.841 23.2103 19.841 23.2099 19.841C23.2096 19.841 23.2092 19.841 23.2088 19.841C23.2084 19.841 23.208 19.841 23.2076 19.841C23.2072 19.841 23.2068 19.841 23.2065 19.841C23.2061 19.841 23.2057 19.841 23.2053 19.841C23.2049 19.841 23.2045 19.841 23.2041 19.841C23.2037 19.841 23.2034 19.841 23.203 19.841C23.2026 19.841 23.2022 19.841 23.2018 19.841C23.2014 19.841 23.201 19.841 23.2006 19.841C23.2003 19.841 23.1999 19.841 23.1995 19.841C23.1991 19.841 23.1987 19.841 23.1983 19.841C23.1979 19.841 23.1976 19.841 23.1972 19.841C23.1968 19.841 23.1964 19.841 23.196 19.841C23.1956 19.841 23.1952 19.841 23.1948 19.841C23.1945 19.841 23.1941 19.841 23.1937 19.841C23.1933 19.841 23.1929 19.841 23.1925 19.841C23.1921 19.841 23.1917 19.841 23.1914 19.841C23.191 19.841 23.1906 19.841 23.1902 19.841C23.1898 19.841 23.1894 19.841 23.189 19.841C23.1886 19.841 23.1883 19.841 23.1879 19.841C23.1875 19.841 23.1871 19.841 23.1867 19.841C23.1863 19.841 23.1859 19.841 23.1856 19.841C23.1852 19.841 23.1848 19.841 23.1844 19.841C23.184 19.841 23.1836 19.841 23.1832 19.841C23.1828 19.841 23.1825 19.841 23.1821 19.841C23.1817 19.841 23.1813 19.841 23.1809 19.841C23.1805 19.841 23.1801 19.841 23.1797 19.841C23.1794 19.841 23.179 19.841 23.1786 19.841C23.1782 19.841 23.1778 19.841 23.1774 19.841C23.177 19.841 23.1767 19.841 23.1763 19.841C23.1759 19.841 23.1755 19.841 23.1751 19.841C23.1747 19.841 23.1743 19.841 23.1739 19.841C23.1736 19.841 23.1732 19.841 23.1728 19.841C23.1724 19.841 23.172 19.841 23.1716 19.841C23.1712 19.841 23.1709 19.841 23.1705 19.841C23.1701 19.841 23.1697 19.841 23.1693 19.841C23.1689 19.841 23.1685 19.841 23.1681 19.841C23.1678 19.841 23.1674 19.841 23.167 19.841C23.1666 19.841 23.1662 19.841 23.1658 19.841C23.1654 19.841 23.1651 19.841 23.1647 19.841C23.1643 19.841 23.1639 19.841 23.1635 19.841C23.1631 19.841 23.1627 19.841 23.1623 19.841C23.162 19.841 23.1616 19.841 23.1612 19.841C23.1608 19.841 23.1604 19.841 23.16 19.841C23.1596 19.841 23.1593 19.841 23.1589 19.841C23.1585 19.841 23.1581 19.841 23.1577 19.841C23.1573 19.841 23.1569 19.841 23.1565 19.841C23.1562 19.841 23.1558 19.841 23.1554 19.841C23.155 19.841 23.1546 19.841 23.1542 19.841C23.1538 19.841 23.1535 19.841 23.1531 19.841C23.1527 19.841 23.1523 19.841 23.1519 19.841C23.1515 19.841 23.1511 19.841 23.1508 19.841C23.1504 19.841 23.15 19.841 23.1496 19.841C23.1492 19.841 23.1488 19.841 23.1484 19.841C23.148 19.841 23.1477 19.841 23.1473 19.841C23.1469 19.841 23.1465 19.841 23.1461 19.841C23.1457 19.841 23.1453 19.841 23.145 19.841C23.1446 19.841 23.1442 19.841 23.1438 19.841C23.1434 19.841 23.143 19.841 23.1426 19.841C23.1423 19.841 23.1419 19.841 23.1415 19.841C23.1411 19.841 23.1407 19.841 23.1403 19.841C23.1399 19.841 23.1395 19.841 23.1392 19.841C23.1388 19.841 23.1384 19.841 23.138 19.841C23.1376 19.841 23.1372 19.841 23.1368 19.841C23.1365 19.841 23.1361 19.841 23.1357 19.841C23.1353 19.841 23.1349 19.841 23.1345 19.841C23.1341 19.841 23.1338 19.841 23.1334 19.841C23.133 19.841 23.1326 19.841 23.1322 19.841C23.1318 19.841 23.1314 19.841 23.131 19.841C23.1307 19.841 23.1303 19.841 23.1299 19.841C23.1295 19.841 23.1291 19.841 23.1287 19.841C23.1283 19.841 23.128 19.841 23.1276 19.841C23.1272 19.841 23.1268 19.841 23.1264 19.841C23.126 19.841 23.1256 19.841 23.1253 19.841C23.1249 19.841 23.1245 19.841 23.1241 19.841C23.1237 19.841 23.1233 19.841 23.1229 19.841C23.1226 19.841 23.1222 19.841 23.1218 19.841C23.1214 19.841 23.121 19.841 23.1206 19.841C23.1202 19.841 23.1199 19.841 23.1195 19.841C23.1191 19.841 23.1187 19.841 23.1183 19.841C23.1179 19.841 23.1175 19.841 23.1171 19.841C23.1168 19.841 23.1164 19.841 23.116 19.841C23.1156 19.841 23.1152 19.841 23.1148 19.841C23.1144 19.841 23.1141 19.841 23.1137 19.841C23.1133 19.841 23.1129 19.841 23.1125 19.841C23.1121 19.841 23.1117 19.841 23.1114 19.841C23.111 19.841 23.1106 19.841 23.1102 19.841C23.1098 19.841 23.1094 19.841 23.109 19.841C23.1087 19.841 23.1083 19.841 23.1079 19.841C23.1075 19.841 23.1071 19.841 23.1067 19.841C23.1063 19.841 23.106 19.841 23.1056 19.841C23.1052 19.841 23.1048 19.841 23.1044 19.841C23.104 19.841 23.1036 19.841 23.1033 19.841C23.1029 19.841 23.1025 19.841 23.1021 19.841C23.1017 19.841 23.1013 19.841 23.1009 19.841C23.1006 19.841 23.1002 19.841 23.0998 19.841C23.0994 19.841 23.099 19.841 23.0986 19.841C23.0982 19.841 23.0979 19.841 23.0975 19.841C23.0971 19.841 23.0967 19.841 23.0963 19.841C23.0959 19.841 23.0955 19.841 23.0952 19.841C23.0948 19.841 23.0944 19.841 23.094 19.841C23.0936 19.841 23.0932 19.841 23.0928 19.841C23.0925 19.841 23.0921 19.841 23.0917 19.841C23.0913 19.841 23.0909 19.841 23.0905 19.841C23.0901 19.841 23.0898 19.841 23.0894 19.841C23.089 19.841 23.0886 19.841 23.0882 19.841C23.0878 19.841 23.0874 19.841 23.0871 19.841C23.0867 19.841 23.0863 19.841 23.0859 19.841C23.0855 19.841 23.0851 19.841 23.0847 19.841C23.0844 19.841 23.084 19.841 23.0836 19.841C23.0832 19.841 23.0828 19.841 23.0824 19.841C23.082 19.841 23.0817 19.841 23.0813 19.841C23.0809 19.841 23.0805 19.841 23.0801 19.841C23.0797 19.841 23.0793 19.841 23.079 19.841C23.0786 19.841 23.0782 19.841 23.0778 19.841C23.0774 19.841 23.077 19.841 23.0766 19.841C23.0763 19.841 23.0759 19.841 23.0755 19.841C23.0751 19.841 23.0747 19.841 23.0743 19.841C23.0739 19.841 23.0736 19.841 23.0732 19.841C23.0728 19.841 23.0724 19.841 23.072 19.841C23.0716 19.841 23.0712 19.841 23.0709 19.841C23.0705 19.841 23.0701 19.841 23.0697 19.841C23.0693 19.841 23.0689 19.841 23.0685 19.841C23.0682 19.841 23.0678 19.841 23.0674 19.841C23.067 19.841 23.0666 19.841 23.0662 19.841C23.0658 19.841 23.0655 19.841 23.0651 19.841C23.0647 19.841 23.0643 19.841 23.0639 19.841C23.0635 19.841 23.0631 19.841 23.0628 19.841C23.0624 19.841 23.062 19.841 23.0616 19.841C23.0612 19.841 23.0608 19.841 23.0604 19.841C23.0601 19.841 23.0597 19.841 23.0593 19.841C23.0589 19.841 23.0585 19.841 23.0581 19.841C23.0577 19.841 23.0574 19.841 23.057 19.841C23.0566 19.841 23.0562 19.841 23.0558 19.841C23.0554 19.841 23.0551 19.841 23.0547 19.841C23.0543 19.841 23.0539 19.841 23.0535 19.841C23.0531 19.841 23.0527 19.841 23.0524 19.841C23.052 19.841 23.0516 19.841 23.0512 19.841C23.0508 19.841 23.0504 19.841 23.05 19.841C23.0497 19.841 23.0493 19.841 23.0489 19.841C23.0485 19.841 23.0481 19.841 23.0477 19.841C23.0473 19.841 23.047 19.841 23.0466 19.841C23.0462 19.841 23.0458 19.841 23.0454 19.841C23.045 19.841 23.0446 19.841 23.0443 19.841C23.0439 19.841 23.0435 19.841 23.0431 19.841C23.0427 19.841 23.0423 19.841 23.0419 19.841C23.0416 19.841 23.0412 19.841 23.0408 19.841C23.0404 19.841 23.04 19.841 23.0396 19.841C23.0393 19.841 23.0389 19.841 23.0385 19.841C23.0381 19.841 23.0377 19.841 23.0373 19.841C23.0369 19.841 23.0366 19.841 23.0362 19.841C23.0358 19.841 23.0354 19.841 23.035 19.841C23.0346 19.841 23.0342 19.841 23.0339 19.841C23.0335 19.841 23.0331 19.841 23.0327 19.841C23.0323 19.841 23.0319 19.841 23.0315 19.841C23.0312 19.841 23.0308 19.841 23.0304 19.841C23.03 19.841 23.0296 19.841 23.0292 19.841C23.0288 19.841 23.0285 19.841 23.0281 19.841C23.0277 19.841 23.0273 19.841 23.0269 19.841C23.0265 19.841 23.0262 19.841 23.0258 19.841C23.0254 19.841 23.025 19.841 23.0246 19.841C23.0242 19.841 23.0238 19.841 23.0235 19.841C23.0231 19.841 23.0227 19.841 23.0223 19.841C23.0219 19.841 23.0215 19.841 23.0211 19.841C23.0208 19.841 23.0204 19.841 23.02 19.841C23.0196 19.841 23.0192 19.841 23.0188 19.841C23.0184 19.841 23.0181 19.841 23.0177 19.841C23.0173 19.841 23.0169 19.841 23.0165 19.841C23.0161 19.841 23.0158 19.841 23.0154 19.841C23.015 19.841 23.0146 19.841 23.0142 19.841C23.0138 19.841 23.0134 19.841 23.0131 19.841C23.0127 19.841 23.0123 19.841 23.0119 19.841C23.0115 19.841 23.0111 19.841 23.0107 19.841C23.0104 19.841 23.01 19.841 23.0096 19.841C23.0092 19.841 23.0088 19.841 23.0084 19.841C23.0081 19.841 23.0077 19.841 23.0073 19.841C23.0069 19.841 23.0065 19.841 23.0061 19.841C23.0057 19.841 23.0054 19.841 23.005 19.841C23.0046 19.841 23.0042 19.841 23.0038 19.841C23.0034 19.841 23.003 19.841 23.0027 19.841C23.0023 19.841 23.0019 19.841 23.0015 19.841C23.0011 19.841 23.0007 19.841 23.0003 19.841C23 19.841 22.9996 19.841 22.9992 19.841C22.9988 19.841 22.9984 19.841 22.998 19.841C22.9977 19.841 22.9973 19.841 22.9969 19.841C22.9965 19.841 22.9961 19.841 22.9957 19.841C22.9953 19.841 22.995 19.841 22.9946 19.841C22.9942 19.841 22.9938 19.841 22.9934 19.841C22.993 19.841 22.9926 19.841 22.9923 19.841C22.9919 19.841 22.9915 19.841 22.9911 19.841C22.9907 19.841 22.9903 19.841 22.99 19.841C22.9896 19.841 22.9892 19.841 22.9888 19.841C22.9884 19.841 22.988 19.841 22.9876 19.841C22.9873 19.841 22.9869 19.841 22.9865 19.841C22.9861 19.841 22.9857 19.841 22.9853 19.841C22.9849 19.841 22.9846 19.841 22.9842 19.841C22.9838 19.841 22.9834 19.841 22.983 19.841C22.9826 19.841 22.9823 19.841 22.9819 19.841C22.9815 19.841 22.9811 19.841 22.9807 19.841C22.9803 19.841 22.9799 19.841 22.9796 19.841C22.9792 19.841 22.9788 19.841 22.9784 19.841C22.978 19.841 22.9776 19.841 22.9773 19.841C22.9769 19.841 22.9765 19.841 22.9761 19.841C22.9757 19.841 22.9753 19.841 22.9749 19.841C22.9746 19.841 22.9742 19.841 22.9738 19.841C22.9734 19.841 22.973 19.841 22.9726 19.841C22.9722 19.841 22.9719 19.841 22.9715 19.841C22.9711 19.841 22.9707 19.841 22.9703 19.841C22.9699 19.841 22.9696 19.841 22.9692 19.841C22.9688 19.841 22.9684 19.841 22.968 19.841C22.9676 19.841 22.9672 19.841 22.9669 19.841C22.9665 19.841 22.9661 19.841 22.9657 19.841C22.9653 19.841 22.9649 19.841 22.9645 19.841C22.9642 19.841 22.9638 19.841 22.9634 19.841C22.963 19.841 22.9626 19.841 22.9622 19.841C22.9619 19.841 22.9615 19.841 22.9611 19.841C22.9607 19.841 22.9603 19.841 22.9599 19.841C22.9595 19.841 22.9592 19.841 22.9588 19.841C22.9584 19.841 22.958 19.841 22.9576 19.841C22.9572 19.841 22.9569 19.841 22.9565 19.841C22.9561 19.841 22.9557 19.841 22.9553 19.841C22.9549 19.841 22.9545 19.841 22.9542 19.841C22.9538 19.841 22.9534 19.841 22.953 19.841C22.9526 19.841 22.9522 19.841 22.9518 19.841C22.9515 19.841 22.9511 19.841 22.9507 19.841C22.9503 19.841 22.9499 19.841 22.9495 19.841C22.9492 19.841 22.9488 19.841 22.9484 19.841C22.948 19.841 22.9476 19.841 22.9472 19.841C22.9468 19.841 22.9465 19.841 22.9461 19.841C22.9457 19.841 22.9453 19.841 22.9449 19.841C22.9445 19.841 22.9442 19.841 22.9438 19.841C22.9434 19.841 22.943 19.841 22.9426 19.841C22.9422 19.841 22.9418 19.841 22.9415 19.841C22.9411 19.841 22.9407 19.841 22.9403 19.841C22.9399 19.841 22.9395 19.841 22.9391 19.841C22.9388 19.841 22.9384 19.841 22.938 19.841C22.9376 19.841 22.9372 19.841 22.9368 19.841C22.9365 19.841 22.9361 19.841 22.9357 19.841C22.9353 19.841 22.9349 19.841 22.9345 19.841C22.9341 19.841 22.9338 19.841 22.9334 19.841C22.933 19.841 22.9326 19.841 22.9322 19.841C22.9318 19.841 22.9315 19.841 22.9311 19.841C22.9307 19.841 22.9303 19.841 22.9299 19.841C22.9295 19.841 22.9291 19.841 22.9288 19.841C22.9284 19.841 22.928 19.841 22.9276 19.841C22.9272 19.841 22.9268 19.841 22.9265 19.841C22.9261 19.841 22.9257 19.841 22.9253 19.841C22.9249 19.841 22.9245 19.841 22.9241 19.841C22.9238 19.841 22.9234 19.841 22.923 19.841C22.9226 19.841 22.9222 19.841 22.9218 19.841C22.9214 19.841 22.9211 19.841 22.9207 19.841C22.9203 19.841 22.9199 19.841 22.9195 19.841C22.9191 19.841 22.9188 19.841 22.9184 19.841C22.918 19.841 22.9176 19.841 22.9172 19.841C22.9168 19.841 22.9164 19.841 22.9161 19.841C22.9157 19.841 22.9153 19.841 22.9149 19.841C22.9145 19.841 22.9141 19.841 22.9138 19.841C22.9134 19.841 22.913 19.841 22.9126 19.841C22.9122 19.841 22.9118 19.841 22.9114 19.841C22.9111 19.841 22.9107 19.841 22.9103 19.841C22.9099 19.841 22.9095 19.841 22.9091 19.841C22.9088 19.841 22.9084 19.841 22.908 19.841C22.9076 19.841 22.9072 19.841 22.9068 19.841C22.9064 19.841 22.9061 19.841 22.9057 19.841C22.9053 19.841 22.9049 19.841 22.9045 19.841C22.9041 19.841 22.9037 19.841 22.9034 19.841C22.903 19.841 22.9026 19.841 22.9022 19.841C22.9018 19.841 22.9014 19.841 22.9011 19.841C22.9007 19.841 22.9003 19.841 22.8999 19.841C22.8995 19.841 22.8991 19.841 22.8987 19.841C22.8984 19.841 22.898 19.841 22.8976 19.841C22.8972 19.841 22.8968 19.841 22.8964 19.841C22.8961 19.841 22.8957 19.841 22.8953 19.841C22.8949 19.841 22.8945 19.841 22.8941 19.841C22.8937 19.841 22.8934 19.841 22.893 19.841C22.8926 19.841 22.8922 19.841 22.8918 19.841C22.8914 19.841 22.8911 19.841 22.8907 19.841C22.8903 19.841 22.8899 19.841 22.8895 19.841C22.8891 19.841 22.8887 19.841 22.8884 19.841C22.888 19.841 22.8876 19.841 22.8872 19.841C22.8868 19.841 22.8864 19.841 22.8861 19.841C22.8857 19.841 22.8853 19.841 22.8849 19.841V21.841C22.8853 21.841 22.8857 21.841 22.8861 21.841C22.8864 21.841 22.8868 21.841 22.8872 21.841C22.8876 21.841 22.888 21.841 22.8884 21.841C22.8887 21.841 22.8891 21.841 22.8895 21.841C22.8899 21.841 22.8903 21.841 22.8907 21.841C22.8911 21.841 22.8914 21.841 22.8918 21.841C22.8922 21.841 22.8926 21.841 22.893 21.841C22.8934 21.841 22.8937 21.841 22.8941 21.841C22.8945 21.841 22.8949 21.841 22.8953 21.841C22.8957 21.841 22.8961 21.841 22.8964 21.841C22.8968 21.841 22.8972 21.841 22.8976 21.841C22.898 21.841 22.8984 21.841 22.8987 21.841C22.8991 21.841 22.8995 21.841 22.8999 21.841C22.9003 21.841 22.9007 21.841 22.9011 21.841C22.9014 21.841 22.9018 21.841 22.9022 21.841C22.9026 21.841 22.903 21.841 22.9034 21.841C22.9037 21.841 22.9041 21.841 22.9045 21.841C22.9049 21.841 22.9053 21.841 22.9057 21.841C22.9061 21.841 22.9064 21.841 22.9068 21.841C22.9072 21.841 22.9076 21.841 22.908 21.841C22.9084 21.841 22.9088 21.841 22.9091 21.841C22.9095 21.841 22.9099 21.841 22.9103 21.841C22.9107 21.841 22.9111 21.841 22.9114 21.841C22.9118 21.841 22.9122 21.841 22.9126 21.841C22.913 21.841 22.9134 21.841 22.9138 21.841C22.9141 21.841 22.9145 21.841 22.9149 21.841C22.9153 21.841 22.9157 21.841 22.9161 21.841C22.9164 21.841 22.9168 21.841 22.9172 21.841C22.9176 21.841 22.918 21.841 22.9184 21.841C22.9188 21.841 22.9191 21.841 22.9195 21.841C22.9199 21.841 22.9203 21.841 22.9207 21.841C22.9211 21.841 22.9214 21.841 22.9218 21.841C22.9222 21.841 22.9226 21.841 22.923 21.841C22.9234 21.841 22.9238 21.841 22.9241 21.841C22.9245 21.841 22.9249 21.841 22.9253 21.841C22.9257 21.841 22.9261 21.841 22.9265 21.841C22.9268 21.841 22.9272 21.841 22.9276 21.841C22.928 21.841 22.9284 21.841 22.9288 21.841C22.9291 21.841 22.9295 21.841 22.9299 21.841C22.9303 21.841 22.9307 21.841 22.9311 21.841C22.9315 21.841 22.9318 21.841 22.9322 21.841C22.9326 21.841 22.933 21.841 22.9334 21.841C22.9338 21.841 22.9341 21.841 22.9345 21.841C22.9349 21.841 22.9353 21.841 22.9357 21.841C22.9361 21.841 22.9365 21.841 22.9368 21.841C22.9372 21.841 22.9376 21.841 22.938 21.841C22.9384 21.841 22.9388 21.841 22.9391 21.841C22.9395 21.841 22.9399 21.841 22.9403 21.841C22.9407 21.841 22.9411 21.841 22.9415 21.841C22.9418 21.841 22.9422 21.841 22.9426 21.841C22.943 21.841 22.9434 21.841 22.9438 21.841C22.9442 21.841 22.9445 21.841 22.9449 21.841C22.9453 21.841 22.9457 21.841 22.9461 21.841C22.9465 21.841 22.9468 21.841 22.9472 21.841C22.9476 21.841 22.948 21.841 22.9484 21.841C22.9488 21.841 22.9492 21.841 22.9495 21.841C22.9499 21.841 22.9503 21.841 22.9507 21.841C22.9511 21.841 22.9515 21.841 22.9518 21.841C22.9522 21.841 22.9526 21.841 22.953 21.841C22.9534 21.841 22.9538 21.841 22.9542 21.841C22.9545 21.841 22.9549 21.841 22.9553 21.841C22.9557 21.841 22.9561 21.841 22.9565 21.841C22.9569 21.841 22.9572 21.841 22.9576 21.841C22.958 21.841 22.9584 21.841 22.9588 21.841C22.9592 21.841 22.9595 21.841 22.9599 21.841C22.9603 21.841 22.9607 21.841 22.9611 21.841C22.9615 21.841 22.9619 21.841 22.9622 21.841C22.9626 21.841 22.963 21.841 22.9634 21.841C22.9638 21.841 22.9642 21.841 22.9645 21.841C22.9649 21.841 22.9653 21.841 22.9657 21.841C22.9661 21.841 22.9665 21.841 22.9669 21.841C22.9672 21.841 22.9676 21.841 22.968 21.841C22.9684 21.841 22.9688 21.841 22.9692 21.841C22.9696 21.841 22.9699 21.841 22.9703 21.841C22.9707 21.841 22.9711 21.841 22.9715 21.841C22.9719 21.841 22.9722 21.841 22.9726 21.841C22.973 21.841 22.9734 21.841 22.9738 21.841C22.9742 21.841 22.9746 21.841 22.9749 21.841C22.9753 21.841 22.9757 21.841 22.9761 21.841C22.9765 21.841 22.9769 21.841 22.9773 21.841C22.9776 21.841 22.978 21.841 22.9784 21.841C22.9788 21.841 22.9792 21.841 22.9796 21.841C22.9799 21.841 22.9803 21.841 22.9807 21.841C22.9811 21.841 22.9815 21.841 22.9819 21.841C22.9823 21.841 22.9826 21.841 22.983 21.841C22.9834 21.841 22.9838 21.841 22.9842 21.841C22.9846 21.841 22.9849 21.841 22.9853 21.841C22.9857 21.841 22.9861 21.841 22.9865 21.841C22.9869 21.841 22.9873 21.841 22.9876 21.841C22.988 21.841 22.9884 21.841 22.9888 21.841C22.9892 21.841 22.9896 21.841 22.99 21.841C22.9903 21.841 22.9907 21.841 22.9911 21.841C22.9915 21.841 22.9919 21.841 22.9923 21.841C22.9926 21.841 22.993 21.841 22.9934 21.841C22.9938 21.841 22.9942 21.841 22.9946 21.841C22.995 21.841 22.9953 21.841 22.9957 21.841C22.9961 21.841 22.9965 21.841 22.9969 21.841C22.9973 21.841 22.9977 21.841 22.998 21.841C22.9984 21.841 22.9988 21.841 22.9992 21.841C22.9996 21.841 23 21.841 23.0003 21.841C23.0007 21.841 23.0011 21.841 23.0015 21.841C23.0019 21.841 23.0023 21.841 23.0027 21.841C23.003 21.841 23.0034 21.841 23.0038 21.841C23.0042 21.841 23.0046 21.841 23.005 21.841C23.0054 21.841 23.0057 21.841 23.0061 21.841C23.0065 21.841 23.0069 21.841 23.0073 21.841C23.0077 21.841 23.0081 21.841 23.0084 21.841C23.0088 21.841 23.0092 21.841 23.0096 21.841C23.01 21.841 23.0104 21.841 23.0107 21.841C23.0111 21.841 23.0115 21.841 23.0119 21.841C23.0123 21.841 23.0127 21.841 23.0131 21.841C23.0134 21.841 23.0138 21.841 23.0142 21.841C23.0146 21.841 23.015 21.841 23.0154 21.841C23.0158 21.841 23.0161 21.841 23.0165 21.841C23.0169 21.841 23.0173 21.841 23.0177 21.841C23.0181 21.841 23.0184 21.841 23.0188 21.841C23.0192 21.841 23.0196 21.841 23.02 21.841C23.0204 21.841 23.0208 21.841 23.0211 21.841C23.0215 21.841 23.0219 21.841 23.0223 21.841C23.0227 21.841 23.0231 21.841 23.0235 21.841C23.0238 21.841 23.0242 21.841 23.0246 21.841C23.025 21.841 23.0254 21.841 23.0258 21.841C23.0262 21.841 23.0265 21.841 23.0269 21.841C23.0273 21.841 23.0277 21.841 23.0281 21.841C23.0285 21.841 23.0288 21.841 23.0292 21.841C23.0296 21.841 23.03 21.841 23.0304 21.841C23.0308 21.841 23.0312 21.841 23.0315 21.841C23.0319 21.841 23.0323 21.841 23.0327 21.841C23.0331 21.841 23.0335 21.841 23.0339 21.841C23.0342 21.841 23.0346 21.841 23.035 21.841C23.0354 21.841 23.0358 21.841 23.0362 21.841C23.0366 21.841 23.0369 21.841 23.0373 21.841C23.0377 21.841 23.0381 21.841 23.0385 21.841C23.0389 21.841 23.0393 21.841 23.0396 21.841C23.04 21.841 23.0404 21.841 23.0408 21.841C23.0412 21.841 23.0416 21.841 23.0419 21.841C23.0423 21.841 23.0427 21.841 23.0431 21.841C23.0435 21.841 23.0439 21.841 23.0443 21.841C23.0446 21.841 23.045 21.841 23.0454 21.841C23.0458 21.841 23.0462 21.841 23.0466 21.841C23.047 21.841 23.0473 21.841 23.0477 21.841C23.0481 21.841 23.0485 21.841 23.0489 21.841C23.0493 21.841 23.0497 21.841 23.05 21.841C23.0504 21.841 23.0508 21.841 23.0512 21.841C23.0516 21.841 23.052 21.841 23.0524 21.841C23.0527 21.841 23.0531 21.841 23.0535 21.841C23.0539 21.841 23.0543 21.841 23.0547 21.841C23.0551 21.841 23.0554 21.841 23.0558 21.841C23.0562 21.841 23.0566 21.841 23.057 21.841C23.0574 21.841 23.0577 21.841 23.0581 21.841C23.0585 21.841 23.0589 21.841 23.0593 21.841C23.0597 21.841 23.0601 21.841 23.0604 21.841C23.0608 21.841 23.0612 21.841 23.0616 21.841C23.062 21.841 23.0624 21.841 23.0628 21.841C23.0631 21.841 23.0635 21.841 23.0639 21.841C23.0643 21.841 23.0647 21.841 23.0651 21.841C23.0655 21.841 23.0658 21.841 23.0662 21.841C23.0666 21.841 23.067 21.841 23.0674 21.841C23.0678 21.841 23.0682 21.841 23.0685 21.841C23.0689 21.841 23.0693 21.841 23.0697 21.841C23.0701 21.841 23.0705 21.841 23.0709 21.841C23.0712 21.841 23.0716 21.841 23.072 21.841C23.0724 21.841 23.0728 21.841 23.0732 21.841C23.0736 21.841 23.0739 21.841 23.0743 21.841C23.0747 21.841 23.0751 21.841 23.0755 21.841C23.0759 21.841 23.0763 21.841 23.0766 21.841C23.077 21.841 23.0774 21.841 23.0778 21.841C23.0782 21.841 23.0786 21.841 23.079 21.841C23.0793 21.841 23.0797 21.841 23.0801 21.841C23.0805 21.841 23.0809 21.841 23.0813 21.841C23.0817 21.841 23.082 21.841 23.0824 21.841C23.0828 21.841 23.0832 21.841 23.0836 21.841C23.084 21.841 23.0844 21.841 23.0847 21.841C23.0851 21.841 23.0855 21.841 23.0859 21.841C23.0863 21.841 23.0867 21.841 23.0871 21.841C23.0874 21.841 23.0878 21.841 23.0882 21.841C23.0886 21.841 23.089 21.841 23.0894 21.841C23.0898 21.841 23.0901 21.841 23.0905 21.841C23.0909 21.841 23.0913 21.841 23.0917 21.841C23.0921 21.841 23.0925 21.841 23.0928 21.841C23.0932 21.841 23.0936 21.841 23.094 21.841C23.0944 21.841 23.0948 21.841 23.0952 21.841C23.0955 21.841 23.0959 21.841 23.0963 21.841C23.0967 21.841 23.0971 21.841 23.0975 21.841C23.0979 21.841 23.0982 21.841 23.0986 21.841C23.099 21.841 23.0994 21.841 23.0998 21.841C23.1002 21.841 23.1006 21.841 23.1009 21.841C23.1013 21.841 23.1017 21.841 23.1021 21.841C23.1025 21.841 23.1029 21.841 23.1033 21.841C23.1036 21.841 23.104 21.841 23.1044 21.841C23.1048 21.841 23.1052 21.841 23.1056 21.841C23.106 21.841 23.1063 21.841 23.1067 21.841C23.1071 21.841 23.1075 21.841 23.1079 21.841C23.1083 21.841 23.1087 21.841 23.109 21.841C23.1094 21.841 23.1098 21.841 23.1102 21.841C23.1106 21.841 23.111 21.841 23.1114 21.841C23.1117 21.841 23.1121 21.841 23.1125 21.841C23.1129 21.841 23.1133 21.841 23.1137 21.841C23.1141 21.841 23.1144 21.841 23.1148 21.841C23.1152 21.841 23.1156 21.841 23.116 21.841C23.1164 21.841 23.1168 21.841 23.1171 21.841C23.1175 21.841 23.1179 21.841 23.1183 21.841C23.1187 21.841 23.1191 21.841 23.1195 21.841C23.1199 21.841 23.1202 21.841 23.1206 21.841C23.121 21.841 23.1214 21.841 23.1218 21.841C23.1222 21.841 23.1226 21.841 23.1229 21.841C23.1233 21.841 23.1237 21.841 23.1241 21.841C23.1245 21.841 23.1249 21.841 23.1253 21.841C23.1256 21.841 23.126 21.841 23.1264 21.841C23.1268 21.841 23.1272 21.841 23.1276 21.841C23.128 21.841 23.1283 21.841 23.1287 21.841C23.1291 21.841 23.1295 21.841 23.1299 21.841C23.1303 21.841 23.1307 21.841 23.131 21.841C23.1314 21.841 23.1318 21.841 23.1322 21.841C23.1326 21.841 23.133 21.841 23.1334 21.841C23.1338 21.841 23.1341 21.841 23.1345 21.841C23.1349 21.841 23.1353 21.841 23.1357 21.841C23.1361 21.841 23.1365 21.841 23.1368 21.841C23.1372 21.841 23.1376 21.841 23.138 21.841C23.1384 21.841 23.1388 21.841 23.1392 21.841C23.1395 21.841 23.1399 21.841 23.1403 21.841C23.1407 21.841 23.1411 21.841 23.1415 21.841C23.1419 21.841 23.1423 21.841 23.1426 21.841C23.143 21.841 23.1434 21.841 23.1438 21.841C23.1442 21.841 23.1446 21.841 23.145 21.841C23.1453 21.841 23.1457 21.841 23.1461 21.841C23.1465 21.841 23.1469 21.841 23.1473 21.841C23.1477 21.841 23.148 21.841 23.1484 21.841C23.1488 21.841 23.1492 21.841 23.1496 21.841C23.15 21.841 23.1504 21.841 23.1508 21.841C23.1511 21.841 23.1515 21.841 23.1519 21.841C23.1523 21.841 23.1527 21.841 23.1531 21.841C23.1535 21.841 23.1538 21.841 23.1542 21.841C23.1546 21.841 23.155 21.841 23.1554 21.841C23.1558 21.841 23.1562 21.841 23.1565 21.841C23.1569 21.841 23.1573 21.841 23.1577 21.841C23.1581 21.841 23.1585 21.841 23.1589 21.841C23.1593 21.841 23.1596 21.841 23.16 21.841C23.1604 21.841 23.1608 21.841 23.1612 21.841C23.1616 21.841 23.162 21.841 23.1623 21.841C23.1627 21.841 23.1631 21.841 23.1635 21.841C23.1639 21.841 23.1643 21.841 23.1647 21.841C23.1651 21.841 23.1654 21.841 23.1658 21.841C23.1662 21.841 23.1666 21.841 23.167 21.841C23.1674 21.841 23.1678 21.841 23.1681 21.841C23.1685 21.841 23.1689 21.841 23.1693 21.841C23.1697 21.841 23.1701 21.841 23.1705 21.841C23.1709 21.841 23.1712 21.841 23.1716 21.841C23.172 21.841 23.1724 21.841 23.1728 21.841C23.1732 21.841 23.1736 21.841 23.1739 21.841C23.1743 21.841 23.1747 21.841 23.1751 21.841C23.1755 21.841 23.1759 21.841 23.1763 21.841C23.1767 21.841 23.177 21.841 23.1774 21.841C23.1778 21.841 23.1782 21.841 23.1786 21.841C23.179 21.841 23.1794 21.841 23.1797 21.841C23.1801 21.841 23.1805 21.841 23.1809 21.841C23.1813 21.841 23.1817 21.841 23.1821 21.841C23.1825 21.841 23.1828 21.841 23.1832 21.841C23.1836 21.841 23.184 21.841 23.1844 21.841C23.1848 21.841 23.1852 21.841 23.1856 21.841C23.1859 21.841 23.1863 21.841 23.1867 21.841C23.1871 21.841 23.1875 21.841 23.1879 21.841C23.1883 21.841 23.1886 21.841 23.189 21.841C23.1894 21.841 23.1898 21.841 23.1902 21.841C23.1906 21.841 23.191 21.841 23.1914 21.841C23.1917 21.841 23.1921 21.841 23.1925 21.841C23.1929 21.841 23.1933 21.841 23.1937 21.841C23.1941 21.841 23.1945 21.841 23.1948 21.841C23.1952 21.841 23.1956 21.841 23.196 21.841C23.1964 21.841 23.1968 21.841 23.1972 21.841C23.1976 21.841 23.1979 21.841 23.1983 21.841C23.1987 21.841 23.1991 21.841 23.1995 21.841C23.1999 21.841 23.2003 21.841 23.2006 21.841C23.201 21.841 23.2014 21.841 23.2018 21.841C23.2022 21.841 23.2026 21.841 23.203 21.841C23.2034 21.841 23.2037 21.841 23.2041 21.841C23.2045 21.841 23.2049 21.841 23.2053 21.841C23.2057 21.841 23.2061 21.841 23.2065 21.841C23.2068 21.841 23.2072 21.841 23.2076 21.841C23.208 21.841 23.2084 21.841 23.2088 21.841C23.2092 21.841 23.2096 21.841 23.2099 21.841C23.2103 21.841 23.2107 21.841 23.2111 21.841C23.2115 21.841 23.2119 21.841 23.2123 21.841C23.2127 21.841 23.213 21.841 23.2134 21.841C23.2138 21.841 23.2142 21.841 23.2146 21.841C23.215 21.841 23.2154 21.841 23.2158 21.841C23.2161 21.841 23.2165 21.841 23.2169 21.841C23.2173 21.841 23.2177 21.841 23.2181 21.841C23.2185 21.841 23.2189 21.841 23.2192 21.841C23.2196 21.841 23.22 21.841 23.2204 21.841C23.2208 21.841 23.2212 21.841 23.2216 21.841C23.222 21.841 23.2223 21.841 23.2227 21.841C23.2231 21.841 23.2235 21.841 23.2239 21.841C23.2243 21.841 23.2247 21.841 23.2251 21.841C23.2254 21.841 23.2258 21.841 23.2262 21.841C23.2266 21.841 23.227 21.841 23.2274 21.841C23.2278 21.841 23.2282 21.841 23.2285 21.841C23.2289 21.841 23.2293 21.841 23.2297 21.841C23.2301 21.841 23.2305 21.841 23.2309 21.841C23.2313 21.841 23.2316 21.841 23.232 21.841C23.2324 21.841 23.2328 21.841 23.2332 21.841C23.2336 21.841 23.234 21.841 23.2344 21.841C23.2347 21.841 23.2351 21.841 23.2355 21.841C23.2359 21.841 23.2363 21.841 23.2367 21.841C23.2371 21.841 23.2375 21.841 23.2378 21.841C23.2382 21.841 23.2386 21.841 23.239 21.841C23.2394 21.841 23.2398 21.841 23.2402 21.841C23.2406 21.841 23.2409 21.841 23.2413 21.841C23.2417 21.841 23.2421 21.841 23.2425 21.841C23.2429 21.841 23.2433 21.841 23.2437 21.841C23.2441 21.841 23.2444 21.841 23.2448 21.841C23.2452 21.841 23.2456 21.841 23.246 21.841C23.2464 21.841 23.2468 21.841 23.2472 21.841C23.2475 21.841 23.2479 21.841 23.2483 21.841C23.2487 21.841 23.2491 21.841 23.2495 21.841C23.2499 21.841 23.2503 21.841 23.2506 21.841C23.251 21.841 23.2514 21.841 23.2518 21.841C23.2522 21.841 23.2526 21.841 23.253 21.841C23.2534 21.841 23.2538 21.841 23.2541 21.841C23.2545 21.841 23.2549 21.841 23.2553 21.841C23.2557 21.841 23.2561 21.841 23.2565 21.841C23.2569 21.841 23.2572 21.841 23.2576 21.841C23.258 21.841 23.2584 21.841 23.2588 21.841C23.2592 21.841 23.2596 21.841 23.26 21.841C23.2603 21.841 23.2607 21.841 23.2611 21.841C23.2615 21.841 23.2619 21.841 23.2623 21.841C23.2627 21.841 23.2631 21.841 23.2635 21.841C23.2638 21.841 23.2642 21.841 23.2646 21.841C23.265 21.841 23.2654 21.841 23.2658 21.841C23.2662 21.841 23.2666 21.841 23.2669 21.841C23.2673 21.841 23.2677 21.841 23.2681 21.841C23.2685 21.841 23.2689 21.841 23.2693 21.841C23.2697 21.841 23.2701 21.841 23.2704 21.841C23.2708 21.841 23.2712 21.841 23.2716 21.841C23.272 21.841 23.2724 21.841 23.2728 21.841C23.2732 21.841 23.2736 21.841 23.2739 21.841C23.2743 21.841 23.2747 21.841 23.2751 21.841C23.2755 21.841 23.2759 21.841 23.2763 21.841C23.2767 21.841 23.277 21.841 23.2774 21.841C23.2778 21.841 23.2782 21.841 23.2786 21.841C23.279 21.841 23.2794 21.841 23.2798 21.841C23.2802 21.841 23.2805 21.841 23.2809 21.841C23.2813 21.841 23.2817 21.841 23.2821 21.841C23.2825 21.841 23.2829 21.841 23.2833 21.841C23.2837 21.841 23.284 21.841 23.2844 21.841C23.2848 21.841 23.2852 21.841 23.2856 21.841C23.286 21.841 23.2864 21.841 23.2868 21.841C23.2872 21.841 23.2875 21.841 23.2879 21.841C23.2883 21.841 23.2887 21.841 23.2891 21.841C23.2895 21.841 23.2899 21.841 23.2903 21.841C23.2907 21.841 23.291 21.841 23.2914 21.841C23.2918 21.841 23.2922 21.841 23.2926 21.841C23.293 21.841 23.2934 21.841 23.2938 21.841C23.2942 21.841 23.2945 21.841 23.2949 21.841C23.2953 21.841 23.2957 21.841 23.2961 21.841C23.2965 21.841 23.2969 21.841 23.2973 21.841C23.2977 21.841 23.298 21.841 23.2984 21.841C23.2988 21.841 23.2992 21.841 23.2996 21.841C23.3 21.841 23.3004 21.841 23.3008 21.841C23.3012 21.841 23.3015 21.841 23.3019 21.841C23.3023 21.841 23.3027 21.841 23.3031 21.841C23.3035 21.841 23.3039 21.841 23.3043 21.841C23.3047 21.841 23.305 21.841 23.3054 21.841C23.3058 21.841 23.3062 21.841 23.3066 21.841C23.307 21.841 23.3074 21.841 23.3078 21.841C23.3082 21.841 23.3085 21.841 23.3089 21.841C23.3093 21.841 23.3097 21.841 23.3101 21.841C23.3105 21.841 23.3109 21.841 23.3113 21.841C23.3117 21.841 23.312 21.841 23.3124 21.841C23.3128 21.841 23.3132 21.841 23.3136 21.841C23.314 21.841 23.3144 21.841 23.3148 21.841C23.3152 21.841 23.3156 21.841 23.3159 21.841C23.3163 21.841 23.3167 21.841 23.3171 21.841C23.3175 21.841 23.3179 21.841 23.3183 21.841C23.3187 21.841 23.3191 21.841 23.3194 21.841C23.3198 21.841 23.3202 21.841 23.3206 21.841C23.321 21.841 23.3214 21.841 23.3218 21.841C23.3222 21.841 23.3226 21.841 23.3229 21.841C23.3233 21.841 23.3237 21.841 23.3241 21.841C23.3245 21.841 23.3249 21.841 23.3253 21.841C23.3257 21.841 23.3261 21.841 23.3265 21.841C23.3268 21.841 23.3272 21.841 23.3276 21.841C23.328 21.841 23.3284 21.841 23.3288 21.841C23.3292 21.841 23.3296 21.841 23.33 21.841C23.3304 21.841 23.3307 21.841 23.3311 21.841C23.3315 21.841 23.3319 21.841 23.3323 21.841C23.3327 21.841 23.3331 21.841 23.3335 21.841C23.3339 21.841 23.3342 21.841 23.3346 21.841C23.335 21.841 23.3354 21.841 23.3358 21.841C23.3362 21.841 23.3366 21.841 23.337 21.841C23.3374 21.841 23.3378 21.841 23.3381 21.841C23.3385 21.841 23.3389 21.841 23.3393 21.841C23.3397 21.841 23.3401 21.841 23.3405 21.841C23.3409 21.841 23.3413 21.841 23.3417 21.841C23.342 21.841 23.3424 21.841 23.3428 21.841C23.3432 21.841 23.3436 21.841 23.344 21.841C23.3444 21.841 23.3448 21.841 23.3452 21.841C23.3456 21.841 23.3459 21.841 23.3463 21.841C23.3467 21.841 23.3471 21.841 23.3475 21.841C23.3479 21.841 23.3483 21.841 23.3487 21.841C23.3491 21.841 23.3495 21.841 23.3498 21.841C23.3502 21.841 23.3506 21.841 23.351 21.841C23.3514 21.841 23.3518 21.841 23.3522 21.841C23.3526 21.841 23.353 21.841 23.3534 21.841C23.3537 21.841 23.3541 21.841 23.3545 21.841C23.3549 21.841 23.3553 21.841 23.3557 21.841C23.3561 21.841 23.3565 21.841 23.3569 21.841C23.3573 21.841 23.3576 21.841 23.358 21.841C23.3584 21.841 23.3588 21.841 23.3592 21.841C23.3596 21.841 23.36 21.841 23.3604 21.841C23.3608 21.841 23.3612 21.841 23.3616 21.841C23.3619 21.841 23.3623 21.841 23.3627 21.841C23.3631 21.841 23.3635 21.841 23.3639 21.841C23.3643 21.841 23.3647 21.841 23.3651 21.841C23.3655 21.841 23.3658 21.841 23.3662 21.841C23.3666 21.841 23.367 21.841 23.3674 21.841C23.3678 21.841 23.3682 21.841 23.3686 21.841C23.369 21.841 23.3694 21.841 23.3698 21.841C23.3701 21.841 23.3705 21.841 23.3709 21.841C23.3713 21.841 23.3717 21.841 23.3721 21.841C23.3725 21.841 23.3729 21.841 23.3733 21.841C23.3737 21.841 23.374 21.841 23.3744 21.841C23.3748 21.841 23.3752 21.841 23.3756 21.841C23.376 21.841 23.3764 21.841 23.3768 21.841C23.3772 21.841 23.3776 21.841 23.378 21.841C23.3783 21.841 23.3787 21.841 23.3791 21.841C23.3795 21.841 23.3799 21.841 23.3803 21.841C23.3807 21.841 23.3811 21.841 23.3815 21.841C23.3819 21.841 23.3823 21.841 23.3826 21.841C23.383 21.841 23.3834 21.841 23.3838 21.841C23.3842 21.841 23.3846 21.841 23.385 21.841C23.3854 21.841 23.3858 21.841 23.3862 21.841C23.3866 21.841 23.3869 21.841 23.3873 21.841C23.3877 21.841 23.3881 21.841 23.3885 21.841C23.3889 21.841 23.3893 21.841 23.3897 21.841C23.3901 21.841 23.3905 21.841 23.3909 21.841C23.3912 21.841 23.3916 21.841 23.392 21.841C23.3924 21.841 23.3928 21.841 23.3932 21.841C23.3936 21.841 23.394 21.841 23.3944 21.841C23.3948 21.841 23.3952 21.841 23.3955 21.841C23.3959 21.841 23.3963 21.841 23.3967 21.841C23.3971 21.841 23.3975 21.841 23.3979 21.841C23.3983 21.841 23.3987 21.841 23.3991 21.841C23.3995 21.841 23.3999 21.841 23.4002 21.841C23.4006 21.841 23.401 21.841 23.4014 21.841C23.4018 21.841 23.4022 21.841 23.4026 21.841C23.403 21.841 23.4034 21.841 23.4038 21.841C23.4042 21.841 23.4046 21.841 23.4049 21.841C23.4053 21.841 23.4057 21.841 23.4061 21.841C23.4065 21.841 23.4069 21.841 23.4073 21.841C23.4077 21.841 23.4081 21.841 23.4085 21.841C23.4089 21.841 23.4092 21.841 23.4096 21.841C23.41 21.841 23.4104 21.841 23.4108 21.841C23.4112 21.841 23.4116 21.841 23.412 21.841C23.4124 21.841 23.4128 21.841 23.4132 21.841C23.4136 21.841 23.4139 21.841 23.4143 21.841C23.4147 21.841 23.4151 21.841 23.4155 21.841C23.4159 21.841 23.4163 21.841 23.4167 21.841C23.4171 21.841 23.4175 21.841 23.4179 21.841C23.4183 21.841 23.4186 21.841 23.419 21.841C23.4194 21.841 23.4198 21.841 23.4202 21.841C23.4206 21.841 23.421 21.841 23.4214 21.841C23.4218 21.841 23.4222 21.841 23.4226 21.841C23.423 21.841 23.4234 21.841 23.4237 21.841C23.4241 21.841 23.4245 21.841 23.4249 21.841C23.4253 21.841 23.4257 21.841 23.4261 21.841C23.4265 21.841 23.4269 21.841 23.4273 21.841C23.4277 21.841 23.4281 21.841 23.4284 21.841C23.4288 21.841 23.4292 21.841 23.4296 21.841C23.43 21.841 23.4304 21.841 23.4308 21.841C23.4312 21.841 23.4316 21.841 23.432 21.841C23.4324 21.841 23.4328 21.841 23.4332 21.841C23.4335 21.841 23.4339 21.841 23.4343 21.841C23.4347 21.841 23.4351 21.841 23.4355 21.841C23.4359 21.841 23.4363 21.841 23.4367 21.841C23.4371 21.841 23.4375 21.841 23.4379 21.841C23.4383 21.841 23.4386 21.841 23.439 21.841C23.4394 21.841 23.4398 21.841 23.4402 21.841C23.4406 21.841 23.441 21.841 23.4414 21.841C23.4418 21.841 23.4422 21.841 23.4426 21.841C23.443 21.841 23.4434 21.841 23.4437 21.841C23.4441 21.841 23.4445 21.841 23.4449 21.841C23.4453 21.841 23.4457 21.841 23.4461 21.841C23.4465 21.841 23.4469 21.841 23.4473 21.841C23.4477 21.841 23.4481 21.841 23.4485 21.841C23.4489 21.841 23.4492 21.841 23.4496 21.841C23.45 21.841 23.4504 21.841 23.4508 21.841C23.4512 21.841 23.4516 21.841 23.452 21.841C23.4524 21.841 23.4528 21.841 23.4532 21.841C23.4536 21.841 23.454 21.841 23.4543 21.841C23.4547 21.841 23.4551 21.841 23.4555 21.841C23.4559 21.841 23.4563 21.841 23.4567 21.841C23.4571 21.841 23.4575 21.841 23.4579 21.841C23.4583 21.841 23.4587 21.841 23.4591 21.841C23.4595 21.841 23.4598 21.841 23.4602 21.841C23.4606 21.841 23.461 21.841 23.4614 21.841C23.4618 21.841 23.4622 21.841 23.4626 21.841C23.463 21.841 23.4634 21.841 23.4638 21.841C23.4642 21.841 23.4646 21.841 23.465 21.841C23.4654 21.841 23.4657 21.841 23.4661 21.841C23.4665 21.841 23.4669 21.841 23.4673 21.841C23.4677 21.841 23.4681 21.841 23.4685 21.841C23.4689 21.841 23.4693 21.841 23.4697 21.841C23.4701 21.841 23.4705 21.841 23.4709 21.841C23.4712 21.841 23.4716 21.841 23.472 21.841C23.4724 21.841 23.4728 21.841 23.4732 21.841C23.4736 21.841 23.474 21.841 23.4744 21.841C23.4748 21.841 23.4752 21.841 23.4756 21.841C23.476 21.841 23.4764 21.841 23.4768 21.841C23.4771 21.841 23.4775 21.841 23.4779 21.841C23.4783 21.841 23.4787 21.841 23.4791 21.841C23.4795 21.841 23.4799 21.841 23.4803 21.841V19.841ZM22.8575 19.8414C18.9144 19.9494 15.1707 21.6018 12.4268 24.4441L13.8657 25.8331C16.2467 23.3668 19.4938 21.9342 22.9123 21.8406L22.8575 19.8414ZM12.4268 24.4441C9.68319 27.2861 8.15713 31.0922 8.17397 35.0481L10.1739 35.0395C10.1593 31.6038 11.4848 28.2995 13.8657 25.8331L12.4268 24.4441ZM8.17396 35.0446C8.17441 35.5955 8.20382 36.146 8.262 36.6937L10.2508 36.4825C10.2 36.0043 10.1743 35.5237 10.174 35.043L8.17396 35.0446ZM8.26125 36.6864C8.55325 39.6427 9.69384 42.4507 11.5453 44.7696L13.1083 43.5218C11.4982 41.5051 10.5057 39.0623 10.2516 36.4898L8.26125 36.6864ZM11.5453 44.7696C13.3967 47.0886 15.8793 48.8188 18.6922 49.7499L19.3206 47.8512C16.8765 47.0422 14.7183 45.5384 13.1083 43.5218L11.5453 44.7696ZM18.6922 49.7499C21.5051 50.6808 24.5269 50.7723 27.3906 50.0132L26.8782 48.08C24.3901 48.7395 21.7647 48.66 19.3206 47.8511L18.6922 49.7499ZM27.3906 50.0132C30.2544 49.2541 32.8366 47.6772 34.824 45.4744L33.339 44.1346C31.611 46.05 29.3664 47.4205 26.8782 48.08L27.3906 50.0132ZM34.824 45.4744C36.8114 43.2716 38.1187 40.5376 38.5878 37.6044L36.6128 37.2886C36.2047 39.841 35.0672 42.2192 33.339 44.1346L34.824 45.4744ZM38.5878 37.6044C39.0568 34.6711 38.6676 31.6642 37.467 28.9485L35.6378 29.7571C36.6822 32.1198 37.021 34.7361 36.6128 37.2886L38.5878 37.6044ZM37.467 28.9485C36.2665 26.2327 34.3061 23.9244 31.8233 22.3043L30.7303 23.9793C32.8883 25.3874 34.5933 27.3945 35.6378 29.7571L37.467 28.9485ZM31.8233 22.3043C29.3405 20.6842 26.4422 19.8219 23.48 19.8226L23.4806 21.8226C26.0538 21.822 28.5723 22.571 30.7303 23.9793L31.8233 22.3043Z" fill="#1C3F71" mask="url(#path-25-inside-1_2_41)"/>
<path d="M47.6094 22.5003H61.4944V25.2443H50.5265V31.6746H60.7342V34.4186H50.5265V41.3408H62.0393V44.0848H47.6094V22.5003Z" fill="white"/>
<path d="M66.898 21.0341H64.1641V44.0848H66.898V21.0341Z" fill="white"/>
<path d="M72.6734 21.0341H69.9395V44.0848H72.6734V21.0341Z" fill="white"/>
<path d="M75.0685 24.4492C75.0622 23.9759 75.22 23.5151 75.5149 23.1457C75.8098 22.7764 76.2234 22.5213 76.685 22.4243C77.1466 22.3273 77.6273 22.3944 78.0451 22.614C78.4628 22.8336 78.7915 23.1922 78.9749 23.6282C79.1583 24.0643 79.1849 24.5508 79.0503 25.0044C78.9157 25.458 78.6282 25.8506 78.2369 26.1149C77.8457 26.3791 77.3751 26.4987 76.9058 26.4531C76.4364 26.4075 75.9974 26.1995 75.6639 25.8648C75.4738 25.682 75.323 25.4621 75.2206 25.2187C75.1182 24.9752 75.0665 24.7134 75.0685 24.4492ZM75.7097 29.6338H78.4574V44.0848H75.7097V29.6338Z" fill="white"/>
<path d="M88.9398 33.2604C88.6078 32.8471 88.2007 32.5008 87.74 32.24C87.205 31.9497 86.603 31.807 85.9952 31.8263C85.4067 31.8112 84.825 31.954 84.3099 32.24C84.0895 32.3522 83.9052 32.525 83.7788 32.7382C83.6523 32.9513 83.5887 33.1962 83.5955 33.4442C83.5882 33.6356 83.6207 33.8263 83.6908 34.0044C83.761 34.1824 83.8673 34.3439 84.0031 34.4784C84.2864 34.7487 84.6151 34.9665 84.9739 35.1219C85.3607 35.2875 85.7647 35.4093 86.1783 35.485L87.2683 35.701C87.8325 35.8342 88.3865 36.0077 88.926 36.2204C89.4138 36.4047 89.8662 36.6721 90.2633 37.011C90.64 37.3381 90.9402 37.7446 91.1425 38.2015C91.3693 38.7404 91.4785 39.3219 91.4631 39.9067C91.4833 40.6381 91.3044 41.3612 90.9456 41.9981C90.6124 42.5655 90.1552 43.0496 89.6084 43.4137C89.0398 43.7913 88.4062 44.0594 87.74 44.2043C87.0482 44.369 86.3398 44.4523 85.6288 44.4525C84.5559 44.4747 83.489 44.2874 82.4873 43.9009C81.5071 43.474 80.6684 42.7757 80.0693 41.8877L82.1347 40.1825C82.5873 40.6312 83.0862 41.0303 83.623 41.3729C84.2294 41.7321 84.9251 41.9107 85.6288 41.8877C85.9811 41.8885 86.3325 41.8531 86.6776 41.782C87.0074 41.7199 87.3257 41.6067 87.6209 41.4465C87.8822 41.3033 88.1101 41.1058 88.2895 40.8673C88.4602 40.6328 88.5503 40.3488 88.546 40.0584C88.5573 39.6855 88.4206 39.3235 88.1659 39.0518C87.9043 38.7853 87.5931 38.5729 87.25 38.4267C86.8874 38.2728 86.5119 38.1513 86.128 38.0636C85.7296 37.9716 85.3815 37.8935 85.0793 37.8338C84.4885 37.6913 83.9344 37.5304 83.4078 37.3465C82.9074 37.1768 82.4362 36.9303 82.011 36.6157C81.6048 36.3077 81.273 35.9118 81.0402 35.4574C80.7785 34.917 80.6527 34.3205 80.6738 33.72C80.652 33.0353 80.8099 32.3569 81.1318 31.7528C81.4372 31.2041 81.8632 30.7326 82.3774 30.3739C82.913 29.9989 83.5096 29.7204 84.1405 29.5511C85.7199 29.1061 87.402 29.2016 88.9215 29.8223C89.8104 30.1884 90.5574 30.8334 91.0509 31.6608L88.9398 33.2604Z" fill="white"/>
<path d="M113.746 36.6249C113.738 35.6094 113.939 34.6031 114.337 33.6695C114.72 32.7693 115.272 31.9516 115.963 31.261C116.658 30.5629 117.482 30.0085 118.39 29.6293C120.317 28.8325 122.48 28.8325 124.407 29.6293C126.233 30.3923 127.688 31.8426 128.46 33.6695C128.862 34.6022 129.064 35.6089 129.056 36.6249C129.059 37.6247 128.866 38.6152 128.485 39.5392C128.105 40.4631 127.545 41.302 126.839 42.0072C126.136 42.6942 125.311 43.243 124.407 43.6252C122.479 44.4155 120.318 44.4155 118.39 43.6252C117.487 43.244 116.663 42.6951 115.963 42.0072C115.255 41.3037 114.694 40.4651 114.313 39.5408C113.932 38.6165 113.74 37.6251 113.746 36.6249ZM116.659 36.6249C116.653 37.3149 116.766 38.0007 116.993 38.6519C117.196 39.2396 117.517 39.7793 117.937 40.2376C118.354 40.6852 118.861 41.0391 119.425 41.2764C120.692 41.7849 122.105 41.7849 123.372 41.2764C123.936 41.0403 124.444 40.6861 124.861 40.2376C125.28 39.7793 125.601 39.2396 125.804 38.6519C126.25 37.3376 126.25 35.9122 125.804 34.5979C125.601 34.0102 125.28 33.4705 124.861 33.0122C124.444 32.565 123.936 32.2124 123.372 31.978C122.105 31.4695 120.692 31.4695 119.425 31.978C118.862 32.2137 118.355 32.5661 117.937 33.0122C117.517 33.4705 117.196 34.0102 116.993 34.5979C116.767 35.2493 116.654 35.935 116.659 36.6249Z" fill="white"/>
<path d="M141.264 33.242C140.808 32.7496 140.268 32.3419 139.671 32.0377C139.049 31.7481 138.369 31.6065 137.683 31.6241C137.007 31.6078 136.336 31.7494 135.723 32.0377C135.178 32.3007 134.7 32.686 134.327 33.1638C133.945 33.6555 133.656 34.2132 133.475 34.8093C133.281 35.4375 133.184 36.0915 133.186 36.749C133.182 37.3984 133.295 38.0432 133.521 38.6519C133.729 39.2321 134.048 39.766 134.459 40.2238C134.868 40.6727 135.366 41.0311 135.92 41.2764C136.524 41.5376 137.177 41.6676 137.834 41.6579C138.516 41.6767 139.192 41.535 139.808 41.2442C140.387 40.9435 140.903 40.5348 141.329 40.04L143.27 41.9934C142.599 42.7582 141.749 43.3441 140.797 43.6987C139.837 44.0468 138.823 44.2227 137.802 44.2181C136.759 44.2298 135.723 44.0442 134.748 43.6711C133.859 43.3229 133.05 42.7993 132.367 42.1313C131.689 41.4552 131.16 40.6441 130.814 39.7504C130.442 38.7721 130.257 37.7319 130.269 36.6847C130.258 35.6331 130.443 34.5886 130.814 33.6051C131.159 32.7067 131.68 31.8875 132.348 31.1966C133.024 30.5173 133.831 29.9839 134.72 29.6292C135.701 29.2408 136.748 29.0488 137.802 29.0639C138.836 29.0604 139.862 29.2522 140.825 29.6292C141.781 30.0015 142.639 30.5916 143.33 31.3529L141.264 33.242Z" fill="white"/>
<path d="M152.91 33.0259C152.577 32.6139 152.17 32.2678 151.711 32.0056C151.175 31.7189 150.573 31.5779 149.966 31.5965C149.377 31.5822 148.794 31.7232 148.276 32.0056C148.056 32.1184 147.873 32.2914 147.748 32.5046C147.622 32.7177 147.559 32.9623 147.566 33.2098C147.558 33.4019 147.59 33.5936 147.661 33.7724C147.731 33.9513 147.838 34.1135 147.974 34.2486C148.257 34.5184 148.585 34.7348 148.945 34.8875C149.33 35.0546 149.732 35.1779 150.145 35.2552L151.239 35.4666C151.803 35.6025 152.356 35.776 152.897 35.986C153.383 36.1732 153.835 36.4403 154.234 36.7766C154.608 37.1062 154.908 37.512 155.113 37.967C155.34 38.5077 155.449 39.0906 155.434 39.6769C155.453 40.4067 155.275 41.1282 154.916 41.7636C154.583 42.3311 154.126 42.8151 153.579 43.1793C153.01 43.5562 152.376 43.8257 151.711 43.9745C151.018 44.1353 150.31 44.2171 149.6 44.2181C148.526 44.239 147.458 44.0533 146.453 43.6711C145.477 43.2396 144.641 42.5422 144.04 41.6579L146.105 39.9481C146.555 40.4006 147.054 40.8 147.594 41.1385C148.2 41.4991 148.895 41.6792 149.6 41.6579C149.952 41.6562 150.303 41.6208 150.648 41.5522C150.968 41.4866 151.277 41.3735 151.564 41.2167C151.826 41.0728 152.054 40.8737 152.233 40.6329C152.407 40.4016 152.499 40.1184 152.494 39.8286C152.501 39.6438 152.471 39.4594 152.406 39.2865C152.34 39.1136 152.241 38.9556 152.114 38.822C151.854 38.5534 151.542 38.3407 151.198 38.1968C150.834 38.0414 150.457 37.9184 150.071 37.8291C149.677 37.7372 149.329 37.6637 149.023 37.5993C148.459 37.4662 147.902 37.3036 147.356 37.1121C146.862 36.9421 146.399 36.6955 145.982 36.3813C145.572 36.0756 145.238 35.6792 145.006 35.223C144.748 34.6814 144.624 34.0855 144.645 33.4856C144.623 32.8009 144.781 32.1227 145.103 31.5183C145.41 30.9724 145.834 30.5015 146.344 30.1394C146.88 29.7662 147.476 29.4879 148.107 29.3167C148.755 29.1343 149.425 29.0416 150.099 29.0409C151.057 29.0386 152.006 29.226 152.892 29.5925C153.781 29.9571 154.527 30.6026 155.017 31.431L152.91 33.0259Z" fill="white"/>
<path d="M93.752 22.5371H101.212C102.553 22.5142 103.891 22.6876 105.182 23.0519C106.234 23.353 107.233 23.8184 108.141 24.4308C108.94 24.9722 109.644 25.6432 110.224 26.4164C110.756 27.1242 111.198 27.8963 111.539 28.7146C111.851 29.4754 112.083 30.2674 112.23 31.0771C112.365 31.7971 112.435 32.5278 112.441 33.2604C112.442 34.6243 112.187 35.9762 111.69 37.2454C111.185 38.5278 110.425 39.6931 109.455 40.6697C108.405 41.7084 107.16 42.5272 105.791 43.0782C104.189 43.713 102.477 44.0253 100.754 43.9974H93.7794L93.752 22.5371ZM96.6507 41.2626H100.314C101.494 41.2696 102.668 41.1023 103.799 40.7662C104.849 40.4567 105.828 39.9463 106.684 39.2632C107.517 38.5872 108.188 37.7329 108.649 36.7628C109.151 35.667 109.399 34.4709 109.373 33.265C109.357 32.4517 109.244 31.6432 109.038 30.8565C108.804 29.9053 108.379 29.0121 107.788 28.2319C107.105 27.346 106.232 26.6264 105.233 26.1268C103.914 25.501 102.464 25.2045 101.006 25.2627H96.6599L96.6507 41.2626Z" fill="white"/>
<path d="M35.9823 35.2092C35.9795 32.7714 35.2805 30.3855 33.9681 28.3343C32.6556 26.283 30.7848 24.6524 28.5773 23.6356L28.5315 23.6126L28.2384 23.4839C27.5652 23.2072 26.8697 22.9889 26.1594 22.8312C24.9479 24.6713 23.9419 26.6397 23.1598 28.7008C21.273 34.5152 21.9004 41.6579 25.5045 47.7159C26.4719 47.557 27.4173 47.2839 28.3209 46.9024C28.8465 46.6738 29.3559 46.4097 29.8458 46.1118C29.7405 45.9739 29.6352 45.8222 29.5253 45.6521C29.3604 45.4315 29.1864 45.1925 29.0078 44.8983C27.7917 43.1739 27.0064 41.1813 26.718 39.0885C26.6338 38.6541 26.5742 38.2152 26.5394 37.774H26.6265H30.4366L30.5373 43.7493L30.5831 45.5878C32.2627 44.438 33.633 42.8892 34.5719 41.0792C35.5107 39.2692 35.9889 37.2543 35.964 35.2138M26.3059 32.7548C26.3975 30.8703 27.1439 28.8111 27.4462 28.9168C29.0124 29.4454 30.1939 32.1343 30.1939 32.7548H26.3059Z" fill="#1C3F71"/>
<path d="M18.2143 37.8016H20.907V32.6123H18.1593C19.2675 29.5281 22.5465 29.0639 22.5465 29.0639C22.9174 27.4184 24.4332 24.5595 25.6147 22.7301C24.8954 22.5991 24.1659 22.5329 23.4349 22.5325C20.0851 22.5325 16.8726 23.8681 14.504 26.2454C12.1354 28.6228 10.8047 31.8471 10.8047 35.2092C10.8047 38.5713 12.1354 41.7957 14.504 44.173C16.8726 46.5504 20.0851 47.886 23.4349 47.886C23.9277 47.8848 24.42 47.8556 24.9095 47.7986C23.8333 45.9877 22.6197 43.1241 22.3495 41.4005C21.3973 41.2333 20.5079 40.8105 19.7758 40.1768C19.0436 39.5432 18.4961 38.7224 18.1914 37.8016" fill="#1C3F71"/>
<path d="M36.5865 35.2092C36.5886 31.8637 35.328 28.6415 33.0585 26.1912C30.789 23.7408 27.679 22.2443 24.3544 22.0026C21.0299 21.761 17.7375 22.7922 15.1399 24.8888C12.5423 26.9853 10.8324 29.9916 10.3542 33.3025C9.87599 36.6135 10.6651 39.9833 12.5625 42.7339C14.46 45.4845 17.3251 47.4116 20.5812 48.1274C23.8373 48.8433 27.2427 48.2946 30.112 46.592C32.9813 44.8894 35.1016 42.1591 36.0461 38.9507C36.4039 37.736 36.5859 36.4759 36.5865 35.2092ZM23.4525 47.886C20.1028 47.886 16.8902 46.5504 14.5216 44.173C12.153 41.7957 10.8223 38.5713 10.8223 35.2092C10.8223 31.8471 12.153 28.6228 14.5216 26.2454C16.8902 23.8681 20.1028 22.5325 23.4525 22.5325C24.1835 22.5329 24.9131 22.5991 25.6323 22.7301C24.4508 24.5687 22.9351 27.4184 22.5641 29.0639C22.5641 29.0639 19.2852 29.5235 18.1769 32.6123H20.9246V37.8016H18.2319C18.5375 38.7227 19.0858 39.5437 19.8187 40.1773C20.5516 40.811 21.4417 41.2336 22.3946 41.4005C22.6831 43.1241 23.8784 45.9969 24.95 47.7986C24.4605 47.8556 23.9682 47.8848 23.4754 47.886M30.6194 45.6384V45.5832L30.5736 43.7447L30.4179 37.7694H26.5757C26.6104 38.2106 26.6701 38.6495 26.7543 39.084C27.1687 41.1414 27.944 43.1086 29.044 44.8937C29.2226 45.1741 29.3967 45.4269 29.5615 45.6476C29.7264 45.8682 29.8088 45.9509 29.9233 46.0796C29.42 46.3816 28.8967 46.6488 28.3571 46.8794C27.4535 47.261 26.5082 47.534 25.5408 47.6929C21.9367 41.6349 21.3093 34.4922 23.196 28.6778C23.9782 26.6167 24.9841 24.6483 26.1956 22.8083C26.9059 22.9659 27.6015 23.1842 28.2747 23.4609L28.5678 23.5896L28.6136 23.6126C30.6571 24.5327 32.4204 25.9814 33.7228 27.8102C35.0252 29.639 35.8201 31.7824 36.026 34.0209C36.2319 36.2593 35.8416 38.5125 34.8948 40.5498C33.948 42.5871 32.4788 44.3352 30.6377 45.6154" fill="white"/>
</g>
<defs>
<clipPath id="clip0_2_41">
<rect width="156" height="55" fill="white"/>
</clipPath>
</defs>
</svg>
