<svg width="434" height="492" viewBox="0 0 434 492" fill="none" xmlns="http://www.w3.org/2000/svg">
<rect width="434" height="492" fill="url(#paint0_linear_851_418)"/>
<mask id="mask0_851_418" style="mask-type:alpha" maskUnits="userSpaceOnUse" x="0" y="0" width="434" height="492">
<rect width="434" height="492" fill="url(#paint1_linear_851_418)"/>
</mask>
<g mask="url(#mask0_851_418)">
<g style="mix-blend-mode:screen" opacity="0.1">
<path fill-rule="evenodd" clip-rule="evenodd" d="M186.861 163.301C186.415 163.338 185.967 163.338 185.522 163.301C184.25 163.136 183.023 162.719 181.913 162.074C180.803 161.429 179.832 160.568 179.056 159.543C178.281 158.518 177.716 157.348 177.395 156.102C177.074 154.855 177.003 153.557 177.186 152.283L189.652 61.338C190.032 58.7891 191.398 56.4935 193.455 54.9497C195.511 53.406 198.091 52.7387 200.634 53.0929C203.177 53.447 205.479 54.794 207.039 56.8412C208.599 58.8885 209.291 61.4707 208.965 64.0271L196.573 154.86C196.251 157.197 195.097 159.338 193.326 160.889C191.556 162.44 189.286 163.297 186.936 163.301H186.861ZM148.468 173.253C149.999 174.196 151.76 174.694 153.556 174.693V174.767C155.093 174.768 156.609 174.41 157.984 173.721C159.126 173.136 160.142 172.331 160.974 171.352C161.805 170.372 162.436 169.237 162.83 168.013C163.224 166.788 163.374 165.497 163.27 164.215C163.167 162.932 162.812 161.682 162.226 160.537L110.911 59.4703C109.736 57.1573 107.694 55.4073 105.235 54.6053C102.775 53.8033 100.098 54.015 97.7935 55.1938C95.489 56.3726 93.7457 58.4219 92.9466 60.8909C92.1476 63.3599 92.3586 66.0464 93.5331 68.3594L144.885 169.352C145.697 170.959 146.937 172.31 148.468 173.253ZM117.423 187.466C119.04 188.558 120.944 189.143 122.894 189.146C124.981 189.148 127.014 188.477 128.693 187.232C130.372 185.988 131.609 184.235 132.221 182.232C132.833 180.229 132.789 178.082 132.095 176.106C131.4 174.13 130.093 172.43 128.364 171.256L52.6371 119.789C51.5822 118.992 50.3772 118.419 49.0949 118.103C47.8125 117.788 46.4799 117.737 45.1774 117.954C43.875 118.171 42.63 118.652 41.518 119.366C40.406 120.081 39.4501 121.014 38.7085 122.111C37.9668 123.207 37.4545 124.443 37.2031 125.744C36.9517 127.045 36.9663 128.384 37.2458 129.679C37.5253 130.974 38.0637 132.199 38.8289 133.279C39.594 134.358 40.5699 135.271 41.697 135.961L117.423 187.466ZM470.714 123.263L456.536 86.623C455.971 85.1587 455.126 83.8203 454.046 82.6843C452.966 81.5482 451.674 80.6369 450.243 80.0022C448.813 79.3675 447.272 79.0219 445.708 78.9851C444.144 78.9484 442.588 79.2212 441.13 79.788L143.433 195.944C118.948 204.945 90.6293 230.081 76.4515 249.055C63.4911 266.268 53.9755 285.839 48.4307 306.684C42.6256 329.393 45.6025 365.136 46.5701 364.352C47.5559 372.02 49.1361 379.6 51.2961 387.023C49.4234 386.74 47.5333 386.591 45.6398 386.574C38.5071 386.566 31.5048 388.492 25.3725 392.148C19.2402 395.804 14.2056 401.055 10.8011 407.346C7.39668 413.637 5.74862 420.734 6.03106 427.887C6.3135 435.041 8.51622 441.985 12.406 447.986C16.2958 453.986 21.7285 458.821 28.1298 461.979C34.5312 465.136 41.6635 466.5 48.7732 465.925C55.8828 465.35 62.7055 462.858 68.5207 458.713C74.3359 454.568 78.9277 448.922 81.8102 442.374C102.169 464.363 128.489 479.897 157.531 487.065C186.573 494.232 217.07 492.719 245.266 482.713C273.463 472.706 298.129 454.643 316.228 430.746C334.327 406.85 345.069 378.163 347.132 348.217C348.082 332.329 346.564 316.389 342.63 300.97C339.426 288.554 339.746 275.486 343.553 263.243C347.36 251 354.504 240.07 364.175 231.687L465.578 144.103C468.473 141.586 470.522 138.234 471.448 134.504C472.374 130.774 472.131 126.848 470.751 123.263H470.714ZM45.6398 446.109C41.7285 446.116 37.9034 444.958 34.6483 442.782C31.3931 440.606 28.8546 437.509 27.3544 433.883C25.8542 430.258 25.4598 426.267 26.2211 422.417C26.9823 418.566 28.865 415.029 31.6307 412.253C34.3964 409.477 37.9204 407.587 41.7568 406.823C45.5933 406.059 49.5695 406.455 53.1816 407.961C56.7938 409.467 59.8793 412.014 62.0477 415.282C64.2161 418.549 65.3697 422.388 65.3623 426.314C65.3525 431.561 63.2713 436.59 59.5747 440.3C55.8782 444.01 50.8674 446.099 45.6398 446.109ZM196.796 222.35H191.958C162.048 223.169 133.645 235.703 112.824 257.271C92.003 278.839 80.4173 307.728 80.5451 337.759C80.5485 341.951 80.7723 346.14 81.2151 350.308C83.4339 372.771 92.1008 394.105 106.164 411.72C120.228 429.335 139.083 442.474 160.442 449.543C181.801 456.613 204.744 457.307 226.489 451.544C248.233 445.78 267.844 433.805 282.94 417.073C298.036 400.341 307.969 379.571 311.532 357.283C315.096 334.995 312.139 312.148 303.018 291.515C293.897 270.882 279.005 253.349 260.149 241.045C241.294 228.741 219.286 222.195 196.796 222.201V222.35ZM298.385 339.104C298.362 319.295 292.682 299.907 282.017 283.239C271.353 266.571 256.15 253.321 238.213 245.059L237.841 244.872L235.459 243.826C229.989 241.578 224.337 239.803 218.565 238.523C208.721 253.475 200.547 269.469 194.191 286.217C178.86 333.464 183.958 391.505 213.244 440.731C221.105 439.44 228.787 437.221 236.129 434.12C240.4 432.263 244.54 430.117 248.521 427.696C247.665 426.576 246.809 425.343 245.916 423.961C244.576 422.169 243.162 420.226 241.711 417.836C231.829 403.823 225.448 387.632 223.105 370.627C222.421 367.096 221.936 363.53 221.654 359.945H222.361H253.321L254.14 408.499L254.512 423.438C268.16 414.096 279.295 401.51 286.924 386.802C294.552 372.095 298.438 355.721 298.236 339.141L298.385 339.104ZM219.756 319.159C220.5 303.846 226.565 287.114 229.021 287.973C241.748 292.268 251.349 314.117 251.349 319.159H219.756ZM175.882 360.169H154.002H153.816C156.292 367.651 160.741 374.321 166.69 379.47C172.639 384.619 179.866 388.055 187.604 389.413C189.8 403.419 199.661 426.688 208.406 441.403C204.429 441.866 200.428 442.103 196.424 442.113C169.204 442.113 143.1 431.26 123.853 411.942C104.606 392.624 93.7929 366.424 93.7929 339.104C93.7929 311.784 104.606 285.584 123.853 266.266C143.1 246.948 169.204 236.095 196.424 236.095C202.364 236.099 208.292 236.636 214.137 237.701C204.536 252.566 192.219 275.797 189.205 289.168C189.205 289.168 162.561 292.94 153.555 318.002H175.882V360.169Z" fill="url(#paint2_linear_851_418)"/>
</g>
</g>
<defs>
<linearGradient id="paint0_linear_851_418" x1="217" y1="0" x2="217" y2="492" gradientUnits="userSpaceOnUse">
<stop stop-color="#173874"/>
<stop offset="1" stop-color="#446CB7"/>
</linearGradient>
<linearGradient id="paint1_linear_851_418" x1="217" y1="0" x2="217" y2="492" gradientUnits="userSpaceOnUse">
<stop stop-color="#173874"/>
<stop offset="1" stop-color="#446CB7"/>
</linearGradient>
<linearGradient id="paint2_linear_851_418" x1="115" y1="42" x2="330.5" y2="435.5" gradientUnits="userSpaceOnUse">
<stop stop-color="white"/>
<stop offset="1" stop-color="white" stop-opacity="0"/>
</linearGradient>
</defs>
</svg>
